<svg xmlns="http://www.w3.org/2000/svg" xmlns:xlink="http://www.w3.org/1999/xlink" viewBox="0 0 359.27 363.55"><defs><style>.cls-1{isolation:isolate;}.cls-102,.cls-2,.cls-20{opacity:0.2;}.cls-3{opacity:0;}.cls-4{opacity:0.09;}.cls-5{opacity:0.18;}.cls-21,.cls-6{opacity:0.27;}.cls-7{opacity:0.36;}.cls-8{opacity:0.45;}.cls-9{opacity:0.55;}.cls-10,.cls-26{opacity:0.64;}.cls-11{opacity:0.73;}.cls-12{opacity:0.82;}.cls-13{opacity:0.91;}.cls-14{fill:url(#linear-gradient);}.cls-15{fill:url(#linear-gradient-2);}.cls-16{fill:url(#linear-gradient-3);}.cls-17{fill:#fff;}.cls-18,.cls-83{opacity:0.8;}.cls-18{fill:url(#linear-gradient-4);}.cls-19{fill:url(#linear-gradient-5);}.cls-20{fill:url(#linear-gradient-6);}.cls-21{fill:url(#linear-gradient-7);}.cls-22{opacity:0.35;fill:url(#linear-gradient-8);}.cls-23{opacity:0.42;fill:url(#linear-gradient-9);}.cls-24{opacity:0.49;fill:url(#linear-gradient-10);}.cls-25{opacity:0.56;fill:url(#linear-gradient-11);}.cls-26{fill:url(#linear-gradient-12);}.cls-27{opacity:0.71;fill:url(#linear-gradient-13);}.cls-28{opacity:0.78;fill:url(#linear-gradient-14);}.cls-29{opacity:0.85;fill:url(#linear-gradient-15);}.cls-30{opacity:0.93;fill:url(#linear-gradient-16);}.cls-31{fill:url(#New_Gradient_Swatch_copy_7);}.cls-100,.cls-113,.cls-119,.cls-120,.cls-122,.cls-123,.cls-32,.cls-89,.cls-94,.cls-99{mix-blend-mode:color-dodge;}.cls-32{fill:url(#New_Gradient_Swatch_copy);}.cls-33{fill:url(#linear-gradient-17);}.cls-34{opacity:0.3;fill:url(#linear-gradient-18);}.cls-105,.cls-124,.cls-125,.cls-126,.cls-127,.cls-128,.cls-130,.cls-131,.cls-132,.cls-34,.cls-82,.cls-97{mix-blend-mode:screen;}.cls-102,.cls-104,.cls-35,.cls-41,.cls-87,.cls-92{mix-blend-mode:multiply;}.cls-35{fill:url(#linear-gradient-19);}.cls-36{fill:url(#New_Gradient_Swatch_copy_25);}.cls-37{fill:url(#linear-gradient-20);}.cls-38{fill:url(#linear-gradient-21);}.cls-39{fill:url(#New_Gradient_Swatch_copy_25-2);}.cls-40{fill:url(#linear-gradient-22);}.cls-41{fill:#f1f2f2;}.cls-42{fill:url(#linear-gradient-23);}.cls-43{fill:url(#linear-gradient-24);}.cls-44{fill:url(#linear-gradient-25);}.cls-45{fill:url(#linear-gradient-26);}.cls-46{fill:url(#linear-gradient-27);}.cls-47{fill:url(#linear-gradient-28);}.cls-48{fill:url(#linear-gradient-29);}.cls-49{fill:url(#linear-gradient-30);}.cls-50{fill:url(#linear-gradient-31);}.cls-51{fill:url(#linear-gradient-32);}.cls-52{fill:url(#linear-gradient-33);}.cls-53{fill:url(#linear-gradient-34);}.cls-54{fill:url(#linear-gradient-35);}.cls-55{fill:url(#linear-gradient-36);}.cls-56{fill:url(#linear-gradient-37);}.cls-57{fill:url(#linear-gradient-38);}.cls-58{fill:url(#linear-gradient-39);}.cls-59{fill:url(#linear-gradient-40);}.cls-60{fill:url(#linear-gradient-41);}.cls-61{fill:url(#linear-gradient-42);}.cls-62{fill:url(#linear-gradient-43);}.cls-63{fill:url(#linear-gradient-44);}.cls-64{fill:url(#linear-gradient-45);}.cls-65{fill:url(#linear-gradient-46);}.cls-66{fill:url(#linear-gradient-47);}.cls-67{fill:url(#linear-gradient-48);}.cls-68{fill:url(#linear-gradient-49);}.cls-69{fill:url(#linear-gradient-50);}.cls-70{fill:url(#linear-gradient-51);}.cls-71{fill:url(#linear-gradient-52);}.cls-72{fill:url(#linear-gradient-53);}.cls-73{fill:url(#linear-gradient-54);}.cls-74{fill:url(#linear-gradient-55);}.cls-75{fill:url(#linear-gradient-56);}.cls-76{fill:url(#linear-gradient-57);}.cls-77{fill:url(#linear-gradient-58);}.cls-78{fill:url(#linear-gradient-59);}.cls-79{fill:url(#linear-gradient-60);}.cls-80{fill:url(#linear-gradient-61);}.cls-81{fill:url(#linear-gradient-62);}.cls-82{fill:url(#linear-gradient-63);}.cls-84{fill:url(#New_Gradient_Swatch_copy_9);}.cls-85{fill:url(#New_Gradient_Swatch_copy_9-2);}.cls-86{fill:url(#New_Gradient_Swatch_copy_9-3);}.cls-87{fill:url(#linear-gradient-64);}.cls-88{fill:url(#New_Gradient_Swatch_copy_8);}.cls-90{fill:url(#Radial_Gradient_1);}.cls-91{fill:url(#Radial_Gradient_1-2);}.cls-92{fill:#e6cfc8;}.cls-93{fill:url(#New_Gradient_Swatch_copy_8-2);}.cls-94{fill:url(#Radial_Gradient_1-3);}.cls-95{fill:url(#linear-gradient-65);}.cls-96{fill:url(#linear-gradient-66);}.cls-97{fill:url(#radial-gradient);}.cls-98{fill:url(#linear-gradient-67);}.cls-99{fill:url(#radial-gradient-2);}.cls-100{fill:url(#radial-gradient-3);}.cls-101{fill:url(#linear-gradient-68);}.cls-102{fill:url(#radial-gradient-4);}.cls-103{fill:url(#New_Gradient_Swatch_copy_10);}.cls-104{fill:#eca30a;}.cls-104,.cls-119,.cls-120{opacity:0.7;}.cls-105{fill:url(#linear-gradient-69);}.cls-106{fill:url(#New_Gradient_Swatch_copy_10-2);}.cls-107{fill:url(#New_Gradient_Swatch_copy_10-3);}.cls-108{fill:#8b8c9e;}.cls-109{fill:url(#New_Gradient_Swatch_copy_9-4);}.cls-110{fill:url(#New_Gradient_Swatch_copy_9-5);}.cls-111{fill:url(#Radial_Gradient_1-4);}.cls-112{fill:url(#Radial_Gradient_1-5);}.cls-113{fill:url(#radial-gradient-5);}.cls-114{fill:url(#New_Gradient_Swatch_copy_36);}.cls-115{fill:url(#New_Gradient_Swatch_copy_36-2);}.cls-116{fill:url(#New_Gradient_Swatch_copy_36-3);}.cls-117{fill:url(#New_Gradient_Swatch_copy_36-4);}.cls-118{fill:url(#New_Gradient_Swatch_copy_36-5);}.cls-119,.cls-121,.cls-123{fill:#9f19ab;}.cls-122,.cls-123{opacity:0.5;}.cls-124{fill:url(#linear-gradient-70);}.cls-125{fill:url(#linear-gradient-71);}.cls-126{fill:url(#linear-gradient-72);}.cls-127{fill:url(#linear-gradient-73);}.cls-129{fill:url(#linear-gradient-74);}.cls-130{fill:url(#linear-gradient-75);}.cls-131{fill:url(#linear-gradient-76);}.cls-132{fill:url(#linear-gradient-77);}</style><linearGradient id="linear-gradient" x1="53.72" y1="258.13" x2="331.06" y2="258.13" gradientUnits="userSpaceOnUse"><stop offset="0.06" stop-color="#9f79b8"/><stop offset="0.26" stop-color="#a17bba"/><stop offset="0.36" stop-color="#a783bf"/><stop offset="0.43" stop-color="#b290c9"/><stop offset="0.49" stop-color="#c1a1d5"/><stop offset="0.51" stop-color="#c4a5d7"/><stop offset="0.52" stop-color="#cdb3dd"/><stop offset="0.53" stop-color="#dbc8e7"/><stop offset="0.55" stop-color="#efe7f4"/><stop offset="0.56" stop-color="#fff"/><stop offset="0.57" stop-color="#ece0f3"/><stop offset="0.58" stop-color="#ddc8ea"/><stop offset="0.59" stop-color="#d4b9e5"/><stop offset="0.6" stop-color="#d1b4e3"/><stop offset="0.66" stop-color="#b395d6"/><stop offset="0.72" stop-color="#9c7dcb"/><stop offset="0.77" stop-color="#8e6ec5"/><stop offset="0.81" stop-color="#8969c3"/><stop offset="1" stop-color="#b086cc"/></linearGradient><linearGradient id="linear-gradient-2" x1="47.82" y1="250.86" x2="314.63" y2="250.86" gradientUnits="userSpaceOnUse"><stop offset="0" stop-color="#2f054a"/><stop offset="1" stop-color="#5824b0"/></linearGradient><linearGradient id="linear-gradient-3" x1="50.8" y1="250.86" x2="311.65" y2="250.86" gradientUnits="userSpaceOnUse"><stop offset="0" stop-color="#3d065f"/><stop offset="1" stop-color="#5f27bd"/></linearGradient><linearGradient id="linear-gradient-4" x1="252.23" y1="73.55" x2="-1982.91" y2="1266.82" gradientTransform="matrix(0.87, 0.5, 0, 1.15, 7.63, -56.18)" gradientUnits="userSpaceOnUse"><stop offset="0.06" stop-color="#9f79b8"/><stop offset="0.26" stop-color="#a17bba"/><stop offset="0.37" stop-color="#a783bf"/><stop offset="0.45" stop-color="#b290c9"/><stop offset="0.51" stop-color="#c2a2d6"/><stop offset="0.56" stop-color="#d1b4e3"/><stop offset="0.66" stop-color="#b395d6"/><stop offset="0.75" stop-color="#9c7dcb"/><stop offset="0.84" stop-color="#8e6ec5"/><stop offset="0.92" stop-color="#8969c3"/></linearGradient><linearGradient id="linear-gradient-5" x1="249.85" y1="74.58" x2="-1985.28" y2="1267.84" gradientTransform="matrix(0.87, 0.5, 0, 1.15, 7.63, -56.18)" xlink:href="#linear-gradient-3"/><linearGradient id="linear-gradient-6" x1="353" y1="121.94" x2="141.44" y2="184.17" gradientUnits="userSpaceOnUse"><stop offset="0" stop-color="#4916a1"/><stop offset="0.52" stop-color="#5f27bd"/><stop offset="1" stop-color="#b4299a"/></linearGradient><linearGradient id="linear-gradient-7" x1="323.37" y1="95.75" x2="172.01" y2="218.29" gradientUnits="userSpaceOnUse"><stop offset="0" stop-color="#4421a4"/><stop offset="0.04" stop-color="#4622a5"/><stop offset="0.33" stop-color="#512cb4"/><stop offset="0.52" stop-color="#5934c0"/><stop offset="1" stop-color="#a73ca3"/></linearGradient><linearGradient id="linear-gradient-8" x1="287.14" y1="92.37" x2="214.68" y2="226.35" gradientUnits="userSpaceOnUse"><stop offset="0" stop-color="#3f2ba6"/><stop offset="0.04" stop-color="#412ca8"/><stop offset="0.34" stop-color="#4c39b7"/><stop offset="0.52" stop-color="#5342c2"/><stop offset="1" stop-color="#9b4eac"/></linearGradient><linearGradient id="linear-gradient-9" x1="265.39" y1="54.79" x2="242.33" y2="281.58" gradientUnits="userSpaceOnUse"><stop offset="0" stop-color="#3a36a9"/><stop offset="0.04" stop-color="#3c37aa"/><stop offset="0.33" stop-color="#4645b9"/><stop offset="0.52" stop-color="#4d4fc5"/><stop offset="1" stop-color="#8e61b6"/></linearGradient><linearGradient id="linear-gradient-10" x1="223.37" y1="43.85" x2="301.94" y2="304.11" gradientUnits="userSpaceOnUse"><stop offset="0" stop-color="#3541ab"/><stop offset="0.04" stop-color="#3741ac"/><stop offset="0.33" stop-color="#4050bb"/><stop offset="0.52" stop-color="#475cc8"/><stop offset="1" stop-color="#8274bf"/></linearGradient><linearGradient id="linear-gradient-11" x1="185.55" y1="65.49" x2="361.37" y2="279.55" gradientUnits="userSpaceOnUse"><stop offset="0" stop-color="#304bae"/><stop offset="0.04" stop-color="#324caf"/><stop offset="0.32" stop-color="#3a5bbd"/><stop offset="0.52" stop-color="#4169ca"/><stop offset="1" stop-color="#7586c8"/></linearGradient><linearGradient id="linear-gradient-12" x1="172.9" y1="106.93" x2="386.9" y2="220.72" gradientUnits="userSpaceOnUse"><stop offset="0" stop-color="#2c56b0"/><stop offset="0.04" stop-color="#2c56b1"/><stop offset="0.29" stop-color="#3365be"/><stop offset="0.52" stop-color="#3b77cd"/><stop offset="1" stop-color="#6999d1"/></linearGradient><linearGradient id="linear-gradient-13" x1="172.49" y1="143.2" x2="394.4" y2="164.16" gradientUnits="userSpaceOnUse"><stop offset="0" stop-color="#2760b3"/><stop offset="0.04" stop-color="#2761b4"/><stop offset="0.28" stop-color="#2d70c0"/><stop offset="0.52" stop-color="#3584cf"/><stop offset="1" stop-color="#5cabda"/></linearGradient><linearGradient id="linear-gradient-14" x1="176.83" y1="175.63" x2="393.98" y2="108.39" gradientUnits="userSpaceOnUse"><stop offset="0" stop-color="#226bb5"/><stop offset="0.04" stop-color="#226bb6"/><stop offset="0.26" stop-color="#277ac1"/><stop offset="0.52" stop-color="#2f91d2"/><stop offset="1" stop-color="#50bee3"/></linearGradient><linearGradient id="linear-gradient-15" x1="201.85" y1="196.32" x2="355.26" y2="68.47" gradientUnits="userSpaceOnUse"><stop offset="0" stop-color="#1d76b8"/><stop offset="0.04" stop-color="#1d76b8"/><stop offset="0.25" stop-color="#2285c3"/><stop offset="0.52" stop-color="#299ed5"/><stop offset="1" stop-color="#43d1ed"/></linearGradient><linearGradient id="linear-gradient-16" x1="230.6" y1="199.96" x2="305.07" y2="57.46" gradientUnits="userSpaceOnUse"><stop offset="0" stop-color="#1880ba"/><stop offset="0.04" stop-color="#1880bb"/><stop offset="0.23" stop-color="#1c8fc5"/><stop offset="0.52" stop-color="#23acd7"/><stop offset="1" stop-color="#37e3f6"/></linearGradient><linearGradient id="New_Gradient_Swatch_copy_7" x1="249.28" y1="229.6" x2="269.94" y2="-7.07" gradientUnits="userSpaceOnUse"><stop offset="0.04" stop-color="#138bbd"/><stop offset="0.23" stop-color="#169ac7"/><stop offset="0.59" stop-color="#1fc3df"/><stop offset="1" stop-color="#2af6ff"/></linearGradient><radialGradient id="New_Gradient_Swatch_copy" cx="1362.16" cy="-1216.27" r="48.63" gradientTransform="matrix(1, 0, 0, 0.66, -1144.07, 1135.81)" gradientUnits="userSpaceOnUse"><stop offset="0" stop-color="#972a74"/><stop offset="0.04" stop-color="#8a266a"/><stop offset="0.19" stop-color="#601b4a"/><stop offset="0.35" stop-color="#3d112f"/><stop offset="0.51" stop-color="#230a1b"/><stop offset="0.67" stop-color="#0f040c"/><stop offset="0.83" stop-color="#040103"/><stop offset="1"/></radialGradient><linearGradient id="linear-gradient-17" x1="-591.74" y1="426.31" x2="-713.35" y2="334.38" gradientTransform="matrix(0.87, 0.5, -1.5, 0.29, 1332.14, 454.93)" gradientUnits="userSpaceOnUse"><stop offset="0" stop-color="#3d065f"/><stop offset="1" stop-color="#12054e"/><stop offset="1" stop-color="#10054d"/></linearGradient><linearGradient id="linear-gradient-18" x1="161.14" y1="189.55" x2="229.27" y2="296.47" gradientUnits="userSpaceOnUse"><stop offset="0.06" stop-color="#9f79b8"/><stop offset="0.25" stop-color="#a17bba"/><stop offset="0.35" stop-color="#a883c0"/><stop offset="0.42" stop-color="#b490cc"/><stop offset="0.48" stop-color="#c5a3dc"/><stop offset="0.54" stop-color="#dbbbf0"/><stop offset="0.56" stop-color="#e6c6fa"/><stop offset="0.6" stop-color="#d6b6f1"/><stop offset="0.69" stop-color="#b595dd"/><stop offset="0.77" stop-color="#9d7dcf"/><stop offset="0.85" stop-color="#8e6ec6"/><stop offset="0.92" stop-color="#8969c3"/></linearGradient><linearGradient id="linear-gradient-19" x1="281.15" y1="83.91" x2="224.65" y2="222.91" gradientUnits="userSpaceOnUse"><stop offset="0" stop-color="#fff"/><stop offset="1" stop-color="#b4299a"/></linearGradient><linearGradient id="New_Gradient_Swatch_copy_25" x1="297.21" y1="136.19" x2="365.55" y2="122.86" gradientUnits="userSpaceOnUse"><stop offset="0" stop-color="#25054d"/><stop offset="1" stop-color="#45108a"/></linearGradient><linearGradient id="linear-gradient-20" x1="224.58" y1="93.94" x2="255.87" y2="7.78" gradientUnits="userSpaceOnUse"><stop offset="0.01" stop-color="#5b15a3"/><stop offset="0.28" stop-color="#4e51bb"/><stop offset="0.93" stop-color="#2ee5f8"/><stop offset="1" stop-color="#2af6ff"/></linearGradient><linearGradient id="linear-gradient-21" x1="4865.63" y1="183.92" x2="5182.06" y2="112.98" gradientTransform="matrix(-1, 0, 0, 1, 5247.08, 0)" xlink:href="#linear-gradient-3"/><linearGradient id="New_Gradient_Swatch_copy_25-2" x1="247.74" y1="253.43" x2="183.72" y2="-68.77" xlink:href="#New_Gradient_Swatch_copy_25"/><linearGradient id="linear-gradient-22" x1="308.23" y1="138.36" x2="149.56" y2="23.77" gradientUnits="userSpaceOnUse"><stop offset="0.03" stop-color="#7c1dc9"/><stop offset="0.28" stop-color="#6e41d2"/><stop offset="0.83" stop-color="#4c9ce9"/><stop offset="1" stop-color="#41b9f0"/></linearGradient><linearGradient id="linear-gradient-23" x1="284.42" y1="153.09" x2="286.19" y2="129.31" gradientUnits="userSpaceOnUse"><stop offset="0" stop-color="#7c1dc9"/><stop offset="0.04" stop-color="#8024ca"/><stop offset="0.37" stop-color="#a362d5"/><stop offset="0.65" stop-color="#bc8edd"/><stop offset="0.87" stop-color="#cbaae1"/><stop offset="1" stop-color="#d1b4e3"/></linearGradient><linearGradient id="linear-gradient-24" x1="274.83" y1="186.51" x2="287.09" y2="138.5" xlink:href="#linear-gradient-23"/><linearGradient id="linear-gradient-25" x1="257.23" y1="137.34" x2="259" y2="113.56" xlink:href="#linear-gradient-23"/><linearGradient id="linear-gradient-26" x1="247.64" y1="170.76" x2="259.9" y2="122.75" xlink:href="#linear-gradient-23"/><linearGradient id="linear-gradient-27" x1="230.05" y1="121.59" x2="231.81" y2="97.81" xlink:href="#linear-gradient-23"/><linearGradient id="linear-gradient-28" x1="220.45" y1="155.01" x2="232.72" y2="107" xlink:href="#linear-gradient-23"/><linearGradient id="linear-gradient-29" x1="202.86" y1="105.84" x2="204.63" y2="82.06" xlink:href="#linear-gradient-23"/><linearGradient id="linear-gradient-30" x1="193.27" y1="139.26" x2="205.53" y2="91.25" xlink:href="#linear-gradient-23"/><linearGradient id="linear-gradient-31" x1="175.67" y1="90.09" x2="177.44" y2="66.31" xlink:href="#linear-gradient-23"/><linearGradient id="linear-gradient-32" x1="166.08" y1="123.51" x2="178.34" y2="75.5" xlink:href="#linear-gradient-23"/><linearGradient id="linear-gradient-33" x1="284.42" y1="229.84" x2="286.19" y2="206.06" xlink:href="#linear-gradient-23"/><linearGradient id="linear-gradient-34" x1="274.83" y1="263.26" x2="287.09" y2="215.25" xlink:href="#linear-gradient-23"/><linearGradient id="linear-gradient-35" x1="257.23" y1="214.09" x2="259" y2="190.31" xlink:href="#linear-gradient-23"/><linearGradient id="linear-gradient-36" x1="247.64" y1="247.51" x2="259.9" y2="199.5" xlink:href="#linear-gradient-23"/><linearGradient id="linear-gradient-37" x1="230.05" y1="198.34" x2="231.81" y2="174.56" xlink:href="#linear-gradient-23"/><linearGradient id="linear-gradient-38" x1="220.45" y1="231.76" x2="232.72" y2="183.75" xlink:href="#linear-gradient-23"/><linearGradient id="linear-gradient-39" x1="202.86" y1="182.59" x2="204.63" y2="158.81" xlink:href="#linear-gradient-23"/><linearGradient id="linear-gradient-40" x1="193.27" y1="216.01" x2="205.53" y2="168" xlink:href="#linear-gradient-23"/><linearGradient id="linear-gradient-41" x1="175.67" y1="166.84" x2="177.44" y2="143.06" xlink:href="#linear-gradient-23"/><linearGradient id="linear-gradient-42" x1="166.08" y1="200.26" x2="178.34" y2="152.25" xlink:href="#linear-gradient-23"/><linearGradient id="linear-gradient-43" x1="284.42" y1="204.09" x2="286.19" y2="180.31" xlink:href="#linear-gradient-23"/><linearGradient id="linear-gradient-44" x1="274.83" y1="237.51" x2="287.09" y2="189.5" xlink:href="#linear-gradient-23"/><linearGradient id="linear-gradient-45" x1="257.23" y1="188.34" x2="259" y2="164.56" xlink:href="#linear-gradient-23"/><linearGradient id="linear-gradient-46" x1="247.64" y1="221.76" x2="259.9" y2="173.75" xlink:href="#linear-gradient-23"/><linearGradient id="linear-gradient-47" x1="230.05" y1="172.59" x2="231.81" y2="148.81" xlink:href="#linear-gradient-23"/><linearGradient id="linear-gradient-48" x1="220.45" y1="206.01" x2="232.72" y2="158" xlink:href="#linear-gradient-23"/><linearGradient id="linear-gradient-49" x1="202.86" y1="156.84" x2="204.63" y2="133.06" xlink:href="#linear-gradient-23"/><linearGradient id="linear-gradient-50" x1="193.27" y1="190.26" x2="205.53" y2="142.25" xlink:href="#linear-gradient-23"/><linearGradient id="linear-gradient-51" x1="175.67" y1="141.09" x2="177.44" y2="117.31" xlink:href="#linear-gradient-23"/><linearGradient id="linear-gradient-52" x1="166.08" y1="174.51" x2="178.34" y2="126.5" xlink:href="#linear-gradient-23"/><linearGradient id="linear-gradient-53" x1="284.42" y1="178.84" x2="286.19" y2="155.06" xlink:href="#linear-gradient-23"/><linearGradient id="linear-gradient-54" x1="274.83" y1="212.26" x2="287.09" y2="164.25" xlink:href="#linear-gradient-23"/><linearGradient id="linear-gradient-55" x1="257.23" y1="163.09" x2="259" y2="139.31" xlink:href="#linear-gradient-23"/><linearGradient id="linear-gradient-56" x1="247.64" y1="196.51" x2="259.9" y2="148.5" xlink:href="#linear-gradient-23"/><linearGradient id="linear-gradient-57" x1="230.05" y1="147.34" x2="231.81" y2="123.56" xlink:href="#linear-gradient-23"/><linearGradient id="linear-gradient-58" x1="220.45" y1="180.76" x2="232.72" y2="132.75" xlink:href="#linear-gradient-23"/><linearGradient id="linear-gradient-59" x1="202.86" y1="131.59" x2="204.63" y2="107.81" xlink:href="#linear-gradient-23"/><linearGradient id="linear-gradient-60" x1="193.27" y1="165.01" x2="205.53" y2="117" xlink:href="#linear-gradient-23"/><linearGradient id="linear-gradient-61" x1="175.67" y1="115.84" x2="177.44" y2="92.06" xlink:href="#linear-gradient-23"/><linearGradient id="linear-gradient-62" x1="166.08" y1="149.26" x2="178.34" y2="101.25" xlink:href="#linear-gradient-23"/><linearGradient id="linear-gradient-63" x1="264.27" y1="147.72" x2="296.38" y2="110.26" gradientUnits="userSpaceOnUse"><stop offset="0" stop-color="#43e8e1"/><stop offset="0.09" stop-color="#36bdb7"/><stop offset="0.22" stop-color="#288b87"/><stop offset="0.34" stop-color="#1c605d"/><stop offset="0.47" stop-color="#123e3c"/><stop offset="0.6" stop-color="#0a2321"/><stop offset="0.73" stop-color="#040f0f"/><stop offset="0.86" stop-color="#010404"/><stop offset="1"/></linearGradient><linearGradient id="New_Gradient_Swatch_copy_9" x1="321.54" y1="170.55" x2="352.65" y2="161.24" gradientUnits="userSpaceOnUse"><stop offset="0.04" stop-color="#9f19ab"/><stop offset="0.24" stop-color="#ae25b1"/><stop offset="0.65" stop-color="#d744bf"/><stop offset="1" stop-color="#ff63ce"/></linearGradient><linearGradient id="New_Gradient_Swatch_copy_9-2" x1="103.48" y1="174.6" x2="433.51" y2="100.61" xlink:href="#New_Gradient_Swatch_copy_9"/><linearGradient id="New_Gradient_Swatch_copy_9-3" x1="281.62" y1="98.01" x2="267.09" y2="125.71" xlink:href="#New_Gradient_Swatch_copy_9"/><linearGradient id="linear-gradient-64" x1="225.2" y1="113.85" x2="159.56" y2="207.56" gradientUnits="userSpaceOnUse"><stop offset="0" stop-color="#fff"/><stop offset="0.27" stop-color="#f4eef4"/><stop offset="0.79" stop-color="#d8c4d7"/><stop offset="1" stop-color="#ccb1cb"/></linearGradient><linearGradient id="New_Gradient_Swatch_copy_8" x1="165.21" y1="165.76" x2="174.94" y2="34.96" gradientUnits="userSpaceOnUse"><stop offset="0.04" stop-color="#ffa98c"/><stop offset="0.32" stop-color="#ffb892"/><stop offset="0.86" stop-color="#fee1a3"/><stop offset="1" stop-color="#feeca8"/></linearGradient><radialGradient id="Radial_Gradient_1" cx="140.11" cy="110.86" r="19.83" gradientUnits="userSpaceOnUse"><stop offset="0" stop-color="#fff"/><stop offset="1"/></radialGradient><radialGradient id="Radial_Gradient_1-2" cx="180.4" cy="154.04" r="35.74" xlink:href="#Radial_Gradient_1"/><linearGradient id="New_Gradient_Swatch_copy_8-2" x1="112.33" y1="357.29" x2="183.3" y2="79.47" xlink:href="#New_Gradient_Swatch_copy_8"/><radialGradient id="Radial_Gradient_1-3" cx="145.35" cy="174.1" r="57.56" xlink:href="#Radial_Gradient_1"/><linearGradient id="linear-gradient-65" x1="144.02" y1="136.41" x2="176.82" y2="194.15" gradientUnits="userSpaceOnUse"><stop offset="0.04" stop-color="#f7aa90"/><stop offset="0.18" stop-color="#f9b996"/><stop offset="0.47" stop-color="#ffe2a6"/><stop offset="0.48" stop-color="#ffe4a7"/><stop offset="0.74" stop-color="#f7aa90"/></linearGradient><linearGradient id="linear-gradient-66" x1="154.43" y1="149.54" x2="186.93" y2="189.58" gradientUnits="userSpaceOnUse"><stop offset="0.04" stop-color="#f7aa90"/><stop offset="0.28" stop-color="#f9b996"/><stop offset="0.76" stop-color="#ffe2a6"/><stop offset="0.78" stop-color="#ffe4a7"/><stop offset="0.87" stop-color="#f7aa90"/></linearGradient><radialGradient id="radial-gradient" cx="173.24" cy="164.5" r="36.73" gradientUnits="userSpaceOnUse"><stop offset="0.36" stop-color="#fff"/><stop offset="0.43" stop-color="#e1e1e1"/><stop offset="0.64" stop-color="#828282"/><stop offset="0.81" stop-color="#3c3c3c"/><stop offset="0.94" stop-color="#111"/><stop offset="1"/></radialGradient><linearGradient id="linear-gradient-67" x1="155.09" y1="139.98" x2="162.19" y2="278.93" gradientUnits="userSpaceOnUse"><stop offset="0" stop-color="#fff3a7"/><stop offset="0.11" stop-color="#fde8a0"/><stop offset="0.41" stop-color="#f8d092"/><stop offset="0.69" stop-color="#f5c18a"/><stop offset="0.92" stop-color="#f4bc87"/></linearGradient><radialGradient id="radial-gradient-2" cx="171.16" cy="204.81" r="30.09" gradientUnits="userSpaceOnUse"><stop offset="0" stop-color="#92402e"/><stop offset="1"/></radialGradient><radialGradient id="radial-gradient-3" cx="174.83" cy="204.91" r="15.3" gradientUnits="userSpaceOnUse"><stop offset="0" stop-color="#ff63ce"/><stop offset="1"/></radialGradient><linearGradient id="linear-gradient-68" x1="151.4" y1="117.93" x2="165.64" y2="245.12" xlink:href="#New_Gradient_Swatch_copy_8"/><radialGradient id="radial-gradient-4" cx="143.85" cy="-3083.98" r="21.03" gradientTransform="translate(0 5308.76) scale(1 1.66)" gradientUnits="userSpaceOnUse"><stop offset="0.14" stop-color="#25166d"/><stop offset="0.22" stop-color="#2c1d72"/><stop offset="0.34" stop-color="#3e317e"/><stop offset="0.48" stop-color="#5d5293"/><stop offset="0.64" stop-color="#887faf"/><stop offset="0.82" stop-color="#bebad4"/><stop offset="1" stop-color="#fff"/></radialGradient><linearGradient id="New_Gradient_Swatch_copy_10" x1="164.59" y1="178.31" x2="147.77" y2="166.94" gradientUnits="userSpaceOnUse"><stop offset="0.04" stop-color="#9d9eb3"/><stop offset="0.58" stop-color="#d4d1d8"/><stop offset="1" stop-color="#eeebf2"/></linearGradient><linearGradient id="linear-gradient-69" x1="128.64" y1="185.55" x2="126.62" y2="132.47" xlink:href="#linear-gradient-63"/><linearGradient id="New_Gradient_Swatch_copy_10-2" x1="60.49" y1="214.92" x2="173.86" y2="175.77" xlink:href="#New_Gradient_Swatch_copy_10"/><linearGradient id="New_Gradient_Swatch_copy_10-3" x1="106.12" y1="205.88" x2="251.05" y2="100.11" xlink:href="#New_Gradient_Swatch_copy_10"/><linearGradient id="New_Gradient_Swatch_copy_9-4" x1="119.48" y1="244.41" x2="64.68" y2="202.03" xlink:href="#New_Gradient_Swatch_copy_9"/><linearGradient id="New_Gradient_Swatch_copy_9-5" x1="72.38" y1="248.87" x2="104.92" y2="153.77" xlink:href="#New_Gradient_Swatch_copy_9"/><radialGradient id="Radial_Gradient_1-4" cx="91.01" cy="227.14" r="10.26" xlink:href="#Radial_Gradient_1"/><radialGradient id="Radial_Gradient_1-5" cx="79.22" cy="202.79" r="21.04" xlink:href="#Radial_Gradient_1"/><radialGradient id="radial-gradient-5" cx="71.25" cy="201.56" r="11.66" gradientUnits="userSpaceOnUse"><stop offset="0" stop-color="#a56ef4"/><stop offset="0.12" stop-color="#8055bd"/><stop offset="0.24" stop-color="#5e3f8b"/><stop offset="0.36" stop-color="#412b60"/><stop offset="0.48" stop-color="#2a1c3e"/><stop offset="0.61" stop-color="#171023"/><stop offset="0.74" stop-color="#0a070f"/><stop offset="0.86" stop-color="#030204"/><stop offset="1"/></radialGradient><linearGradient id="New_Gradient_Swatch_copy_36" x1="-280.39" y1="-759.01" x2="-233.99" y2="-791.47" gradientTransform="matrix(0.87, -0.5, 0, 1.15, 334.78, 960.43)" gradientUnits="userSpaceOnUse"><stop offset="0.1" stop-color="#45108a"/><stop offset="1" stop-color="#7c1dc9"/></linearGradient><linearGradient id="New_Gradient_Swatch_copy_36-2" x1="-277.68" y1="-755.14" x2="-231.28" y2="-787.6" xlink:href="#New_Gradient_Swatch_copy_36"/><linearGradient id="New_Gradient_Swatch_copy_36-3" x1="-274.97" y1="-751.27" x2="-228.57" y2="-783.73" xlink:href="#New_Gradient_Swatch_copy_36"/><linearGradient id="New_Gradient_Swatch_copy_36-4" x1="-272.26" y1="-747.4" x2="-225.86" y2="-779.86" xlink:href="#New_Gradient_Swatch_copy_36"/><linearGradient id="New_Gradient_Swatch_copy_36-5" x1="-269.56" y1="-743.53" x2="-223.15" y2="-775.99" xlink:href="#New_Gradient_Swatch_copy_36"/><linearGradient id="linear-gradient-70" x1="67.94" y1="47.03" x2="25.9" y2="25.1" gradientUnits="userSpaceOnUse"><stop offset="0" stop-color="#45108a"/><stop offset="0.16" stop-color="#300b60"/><stop offset="0.32" stop-color="#1f073d"/><stop offset="0.49" stop-color="#110423"/><stop offset="0.65" stop-color="#08020f"/><stop offset="0.82" stop-color="#020004"/><stop offset="1"/></linearGradient><linearGradient id="linear-gradient-71" x1="52.8" y1="99.64" x2="1.05" y2="71.64" xlink:href="#linear-gradient-70"/><linearGradient id="linear-gradient-72" x1="60.92" y1="167.84" x2="17.32" y2="145.1" xlink:href="#linear-gradient-70"/><linearGradient id="linear-gradient-73" x1="131.35" y1="63.5" x2="61.8" y2="31.8" xlink:href="#linear-gradient-70"/><linearGradient id="linear-gradient-74" x1="93.53" y1="148.83" x2="33.2" y2="114.5" gradientTransform="translate(-1)" xlink:href="#linear-gradient-70"/><linearGradient id="linear-gradient-75" x1="59.15" y1="74.02" x2="59.12" y2="74.01" xlink:href="#linear-gradient-70"/><linearGradient id="linear-gradient-76" x1="75.37" y1="78.32" x2="27.6" y2="53.41" xlink:href="#linear-gradient-70"/><linearGradient id="linear-gradient-77" x1="94.21" y1="113.96" x2="62.99" y2="97.67" xlink:href="#linear-gradient-70"/></defs><g class="cls-1"><g id="Layer_2" data-name="Layer 2"><g id="Layer_1-2" data-name="Layer 1"><g class="cls-2"><path class="cls-3" d="M211.19,343.51a28.36,28.36,0,0,1-14.11-3.4L47.69,253.86c-5.14-3-8.1-7.67-8.09-12.9,0-5.72,3.55-11.06,9.74-14.64l84.79-48.95A34.79,34.79,0,0,1,151.26,173a28.25,28.25,0,0,1,14.11,3.4l149.39,86.25c5.14,3,8.09,7.67,8.09,12.9,0,5.72-3.55,11.06-9.74,14.63l-84.79,48.95A34.68,34.68,0,0,1,211.19,343.51Z"/><path class="cls-4" d="M134.5,178a34,34,0,0,1,17.08-4.23,33.12,33.12,0,0,1,7,.85,27.71,27.71,0,0,1,7,2.76l148.83,85.92c5.12,3,7.79,7.64,7.48,12.73a15.13,15.13,0,0,1-.9,4.12c-1.3,3.63-5,7.51-9.17,9.92l-83.58,48.26a33.07,33.07,0,0,1-3.63,1.79,35.57,35.57,0,0,1-13.22,2.62,27.69,27.69,0,0,1-13.91-3.3L48.06,253.21c-5.13-3-7.78-7.66-7.45-12.76a15,15,0,0,1,.71-3.55c1.2-3.85,5-8,9.4-10.51Z"/><path class="cls-5" d="M134.87,178.67a33.27,33.27,0,0,1,17-4.11,28.83,28.83,0,0,1,13.84,3.81L314,264c5.1,2.94,7.49,7.6,6.87,12.56a16.51,16.51,0,0,1-1.11,3.93c-1.27,3.24-5.5,7.35-9.27,9.52l-82.38,47.56A33.1,33.1,0,0,1,211.55,342a27,27,0,0,1-13.72-3.19L48.44,252.56c-5.12-2.95-7.49-7.65-6.81-12.62a18.07,18.07,0,0,1,.9-3.39c1.19-3.43,5.62-7.81,9.57-10.09Z"/><path class="cls-6" d="M135.25,179.32a31.8,31.8,0,0,1,23.87-2.9,37.17,37.17,0,0,1,6.83,2.93l147.69,85.27c5.07,2.92,7.2,7.56,6.25,12.4a18.68,18.68,0,0,1-1.32,3.73c-1.21,2.84-6,7.19-9.38,9.12L228,336.74c-.85.49-2.57,1.38-3.51,1.78a34.5,34.5,0,0,1-12.78,2.73,26.45,26.45,0,0,1-13.52-3.08L48.81,251.91c-5.11-2.94-7.19-7.62-6.17-12.48a22.69,22.69,0,0,1,1.1-3.22c1.17-3,6.22-7.65,9.73-9.68Z"/><path class="cls-7" d="M135.62,180a31.75,31.75,0,0,1,16.93-3.86,31.27,31.27,0,0,1,6.83,1.21,44.66,44.66,0,0,1,6.76,3l147.13,84.94c5,2.92,6.91,7.53,5.63,12.24a22.47,22.47,0,0,1-1.52,3.54c-1.15,2.45-6.56,7-9.49,8.72l-80,46.17c-.74.43-2.63,1.43-3.44,1.78a34.08,34.08,0,0,1-12.57,2.78,25.67,25.67,0,0,1-13.33-3L49.18,251.27c-5.09-2.94-6.91-7.61-5.52-12.35a30.46,30.46,0,0,1,1.3-3.06c1.11-2.59,6.82-7.49,9.89-9.26Z"/><path class="cls-8" d="M136,180.61a29.68,29.68,0,0,1,23.65-2.41,54.65,54.65,0,0,1,6.69,3.1l146.55,84.61c5,2.9,6.65,7.48,5,12.07a28.92,28.92,0,0,1-1.73,3.35c-1.05,2.07-7.08,6.87-9.59,8.32l-78.77,45.48c-.64.37-2.69,1.46-3.38,1.77a33.37,33.37,0,0,1-12.34,2.84A25.19,25.19,0,0,1,199,336.87L49.56,250.62c-5.08-2.93-6.64-7.58-4.88-12.21.37-1,1-1.86,1.49-2.89,1-2.19,7.42-7.33,10.06-8.86Z"/><path class="cls-9" d="M136.37,181.26a30.31,30.31,0,0,1,16.83-3.62,30.81,30.81,0,0,1,6.72,1.45,70.86,70.86,0,0,1,6.61,3.18l146,84.29c5,2.88,6.38,7.44,4.41,11.91a13.32,13.32,0,0,1-1.95,3.16c-.59,1.83-7.61,6.71-9.7,7.91l-77.56,44.78c-.53.31-2.74,1.51-3.32,1.77a33,33,0,0,1-12.12,2.9,24.48,24.48,0,0,1-12.95-2.77L49.93,250c-5.07-2.92-6.38-7.56-4.24-12.07a13.81,13.81,0,0,1,1.7-2.73c.54-1.94,8-7.17,10.22-8.44Z"/><path class="cls-10" d="M136.74,181.91a29.78,29.78,0,0,1,16.79-3.51,30.64,30.64,0,0,1,6.66,1.58c.91.3,5.78,2.83,6.54,3.27L312.14,267.2c5,2.88,6.14,7.41,3.8,11.75a13.52,13.52,0,0,1-2.15,3c-.48,1.47-8.14,6.55-9.81,7.51l-76.36,44.09c-.42.24-2.8,1.55-3.26,1.76a32.32,32.32,0,0,1-11.9,3,24,24,0,0,1-12.76-2.65L50.31,249.32c-5.06-2.92-6.14-7.55-3.6-11.92a13.44,13.44,0,0,1,1.89-2.57c.43-1.56,8.63-7,10.38-8Z"/><path class="cls-11" d="M137.12,182.55a29.11,29.11,0,0,1,16.73-3.38,30.19,30.19,0,0,1,6.6,1.7c.69.23,5.9,3,6.47,3.35l144.85,83.63c5,2.86,5.9,7.38,3.18,11.58a13.58,13.58,0,0,1-2.36,2.78c-.36,1.1-8.66,6.39-9.92,7.11l-75.15,43.39c-.32.19-2.85,1.6-3.19,1.76a32.14,32.14,0,0,1-11.69,3,23.36,23.36,0,0,1-12.57-2.55L50.68,248.68c-5-2.92-5.9-7.55-3-11.79a14.28,14.28,0,0,1,2.08-2.41c.33-1.16,9.23-6.85,10.55-7.61Z"/><path class="cls-12" d="M137.49,183.2a28.52,28.52,0,0,1,16.69-3.26,29.61,29.61,0,0,1,6.54,1.82c.45.16,6,3.22,6.4,3.44L311.4,268.5c4.92,2.84,5.66,7.37,2.56,11.42a13.91,13.91,0,0,1-2.57,2.58c-.24.73-9.18,6.23-10,6.71l-74,42.7c-.21.12-2.9,1.64-3.13,1.75a31.39,31.39,0,0,1-11.47,3.06c-4.62.26-9.1-.55-12.37-2.44L51.05,248c-5-2.91-5.67-7.56-2.31-11.65A13.94,13.94,0,0,1,51,234.14c.21-.78,9.83-6.7,10.71-7.2Z"/><path class="cls-13" d="M137.86,183.85a27.85,27.85,0,0,1,16.64-3.14,29,29,0,0,1,6.49,1.94c.22.09,6.13,3.42,6.32,3.52l143.71,83c4.9,2.83,5.44,7.36,2,11.25a14.21,14.21,0,0,1-2.78,2.39c-.12.37-9.71,6.07-10.13,6.31l-72.74,42c-.11.06-3,1.69-3.07,1.74A31,31,0,0,1,213,336c-4.53.28-9-.48-12.18-2.34L51.43,247.38c-5-2.9-5.45-7.57-1.67-11.51a15,15,0,0,1,2.48-2.08c.11-.39,10.44-6.53,10.87-6.78Z"/><path d="M201.2,333,51.8,246.73c-5.9-3.4-5.16-9.35,1.65-13.28l84.79-48.95c6.81-3.94,17.11-4.36,23-1l149.4,86.25c5.9,3.41,5.16,9.36-1.65,13.29L224.21,332C217.4,336,207.1,336.39,201.2,333Z"/></g><path class="cls-14" d="M201.2,332.85,51.8,246.6c-2.63-1.52-3.94-3.54-4-5.67v-7.4c0-2.58,2,1.9,5.63-.22l84.79-48.95c6.81-3.93,17.11-4.36,23-1l149.4,86.26c2,1.13,3.4-3.69,3.91-2.16.17.51.06,7.28.07,7.81.06,2.65-1.85,5.45-5.63,7.64L224.21,331.9C217.4,335.83,207.1,336.26,201.2,332.85Z"/><path class="cls-15" d="M201.2,325.59,51.8,239.33c-5.9-3.4-5.16-9.35,1.65-13.28l84.79-49c6.81-3.93,17.11-4.36,23-1l149.4,86.25c5.9,3.41,5.16,9.36-1.65,13.29l-84.79,48.95C217.4,328.57,207.1,329,201.2,325.59Z"/><path class="cls-16" d="M211.19,324.9a17.36,17.36,0,0,1-8.5-1.9L53.29,236.75c-.93-.54-2.49-1.67-2.49-3.19s1.55-3.43,4.15-4.93l84.78-48.95a23.75,23.75,0,0,1,11.53-2.86,17.47,17.47,0,0,1,8.5,1.9L309.16,265c.93.53,2.49,1.66,2.49,3.18s-1.55,3.44-4.15,4.94l-84.78,48.95A23.75,23.75,0,0,1,211.19,324.9Z"/><path class="cls-17" d="M309,274.45,224.21,323.4c-6.81,3.93-17.11,4.36-23,1L51.8,238.1c-2.45-1.41-3.73-3.27-3.94-5.23-.3,2.41,1,4.76,3.94,6.46l149.4,86.26c5.9,3.4,16.2,3,23-1L309,275.68c4-2.3,5.87-5.29,5.59-8.06C314.28,270,312.4,272.49,309,274.45Z"/><path class="cls-18" d="M308.81,259.07,161.87,174.24a12.29,12.29,0,0,1-5.67-14.06l32-110.73a12.3,12.3,0,0,1,18-7.25L353.12,127a12.32,12.32,0,0,1,5.67,14.06l-32,110.73A12.3,12.3,0,0,1,308.81,259.07Z"/><path class="cls-19" d="M306.75,259.07,159.81,174.24a12.32,12.32,0,0,1-5.67-14.06l32-110.73a12.3,12.3,0,0,1,18-7.25L351.06,127a12.29,12.29,0,0,1,5.67,14.06l-32,110.73A12.3,12.3,0,0,1,306.75,259.07Z"/><path class="cls-20" d="M312.88,256.62a8.06,8.06,0,0,1-4.07-1.11L161.87,170.68a8.18,8.18,0,0,1-3.78-9.36l32-110.73A8.24,8.24,0,0,1,198,44.66a8.09,8.09,0,0,1,4.08,1.1L349,130.59a8.18,8.18,0,0,1,3.78,9.36l-32,110.73A8.24,8.24,0,0,1,312.88,256.62Z"/><path class="cls-21" d="M312.73,256.33a8,8,0,0,1-4.06-1.1L162.26,170.7a8.13,8.13,0,0,1-3.76-9.32L190.41,51a8.21,8.21,0,0,1,7.86-5.91,8,8,0,0,1,4.06,1.1l146.41,84.52A8.16,8.16,0,0,1,352.5,140l-31.91,110.4A8.22,8.22,0,0,1,312.73,256.33Z"/><path class="cls-22" d="M312.57,256a8,8,0,0,1-4.05-1.09L162.65,170.72a8.1,8.1,0,0,1-3.75-9.29L190.71,51.37a8.19,8.19,0,0,1,7.84-5.89,8,8,0,0,1,4,1.09L348.47,130.8a8.1,8.1,0,0,1,3.75,9.29L320.41,250.15A8.19,8.19,0,0,1,312.57,256Z"/><path class="cls-23" d="M312.42,255.76a8.06,8.06,0,0,1-4-1.09L163,170.75a8.09,8.09,0,0,1-3.73-9.26L191,51.76a8.15,8.15,0,0,1,7.81-5.87,8,8,0,0,1,4,1.09L348.21,130.9a8.07,8.07,0,0,1,3.73,9.26L320.22,249.89A8.14,8.14,0,0,1,312.42,255.76Z"/><path class="cls-24" d="M312.26,255.47a7.89,7.89,0,0,1-4-1.09L163.42,170.77a8.05,8.05,0,0,1-3.72-9.22l31.63-109.4a8.12,8.12,0,0,1,7.77-5.85,8,8,0,0,1,4,1.09L347.94,131a8.05,8.05,0,0,1,3.72,9.22L320,249.63A8.12,8.12,0,0,1,312.26,255.47Z"/><path class="cls-25" d="M312.11,255.19a8,8,0,0,1-4-1.09L163.81,170.79a8,8,0,0,1-3.71-9.19L191.63,52.54a8.11,8.11,0,0,1,7.75-5.83,7.89,7.89,0,0,1,4,1.09l144.3,83.3a8,8,0,0,1,3.71,9.19L319.86,249.36A8.11,8.11,0,0,1,312.11,255.19Z"/><path class="cls-26" d="M312,254.9a7.87,7.87,0,0,1-4-1.08l-143.76-83a8,8,0,0,1-3.69-9.16L191.94,52.93a8.07,8.07,0,0,1,7.72-5.81,8,8,0,0,1,4,1.08l143.76,83a8,8,0,0,1,3.7,9.16L319.67,249.1A8.07,8.07,0,0,1,312,254.9Z"/><path class="cls-27" d="M311.8,254.61a7.92,7.92,0,0,1-4-1.07l-143.23-82.7a8,8,0,0,1-3.68-9.12l31.34-108.4a8,8,0,0,1,7.69-5.79,7.9,7.9,0,0,1,4,1.08l143.24,82.7a8,8,0,0,1,3.68,9.12l-31.34,108.4A8,8,0,0,1,311.8,254.61Z"/><path class="cls-28" d="M311.64,254.33a7.85,7.85,0,0,1-4-1.07L165,170.87a7.94,7.94,0,0,1-3.67-9.09L192.55,53.71a8,8,0,0,1,7.66-5.77,7.83,7.83,0,0,1,4,1.08l142.71,82.39a8,8,0,0,1,3.67,9.09L319.3,248.57A8,8,0,0,1,311.64,254.33Z"/><path class="cls-29" d="M311.49,254a7.81,7.81,0,0,1-3.95-1.07L165.37,170.89a7.91,7.91,0,0,1-3.66-9.06L192.86,54.1a7.93,7.93,0,0,1,11.58-4.68l142.17,82.09a7.9,7.9,0,0,1,3.66,9.06L319.12,248.3A8,8,0,0,1,311.49,254Z"/><path class="cls-30" d="M311.33,253.76a7.77,7.77,0,0,1-3.93-1.07L165.75,170.91a7.89,7.89,0,0,1-3.64-9l31-107.41a8,8,0,0,1,7.61-5.71,7.7,7.7,0,0,1,3.93,1.06l141.65,81.78a7.89,7.89,0,0,1,3.64,9L318.94,248A8,8,0,0,1,311.33,253.76Z"/><path class="cls-31" d="M311.18,253.47a7.8,7.8,0,0,1-3.92-1.06L166.14,170.94a7.86,7.86,0,0,1-3.62-9L193.47,54.87a7.92,7.92,0,0,1,7.58-5.69A7.63,7.63,0,0,1,205,50.24l141.12,81.47a7.86,7.86,0,0,1,3.63,9l-31,107.07A7.91,7.91,0,0,1,311.18,253.47Z"/><path class="cls-17" d="M351.06,127,204.12,42.2a12.22,12.22,0,0,0-8.42-1.43,12.13,12.13,0,0,1,7.46,1.57L350.1,127.17a12.29,12.29,0,0,1,5.67,14.06L323.76,252a12.27,12.27,0,0,1-9.54,8.68,12.29,12.29,0,0,0,10.5-8.82l32-110.73A12.29,12.29,0,0,0,351.06,127Z"/><ellipse class="cls-32" cx="218.06" cy="328.43" rx="48.63" ry="32.28" transform="translate(-108.47 107.54) rotate(-22.34)"/><path class="cls-33" d="M227.74,293.81l-121.31-70c-2.43-1.4-2.13-3.85.68-5.47L152.66,192c2.8-1.61,7-1.79,9.47-.39l121.32,70c2.43,1.41,2.12,3.86-.68,5.48l-45.55,26.29C234.42,295,230.17,295.22,227.74,293.81Z"/><path class="cls-34" d="M155.31,197.12l7.78,4.49a4,4,0,0,0,3.57,0c1-.57,1-1.49,0-2.06l-7.77-4.49a3.94,3.94,0,0,0-3.57,0A1.09,1.09,0,0,0,155.31,197.12Zm13.31,7.69,3.69,2.12a3.92,3.92,0,0,0,3.56,0c1-.57,1-1.49,0-2.06l-3.68-2.13a3.94,3.94,0,0,0-3.57,0A1.09,1.09,0,0,0,168.62,204.81Zm9.22,5.32,3.68,2.13a3.94,3.94,0,0,0,3.57,0c1-.57,1-1.49,0-2.06l-3.68-2.12a3.91,3.91,0,0,0-3.57,0A1.09,1.09,0,0,0,177.84,210.13Zm9.22,5.32,3.68,2.13a3.94,3.94,0,0,0,3.57,0,1.09,1.09,0,0,0,0-2.06l-3.68-2.12a3.94,3.94,0,0,0-3.57,0A1.09,1.09,0,0,0,187.06,215.45Zm9.22,5.32L200,222.9a4,4,0,0,0,3.57,0,1.09,1.09,0,0,0,0-2.06l-3.68-2.13a4,4,0,0,0-3.57,0A1.09,1.09,0,0,0,196.28,220.77Zm9.22,5.33,3.68,2.12a3.94,3.94,0,0,0,3.57,0,1.09,1.09,0,0,0,0-2.06L209.06,224a3.94,3.94,0,0,0-3.57,0C204.5,224.6,204.51,225.53,205.5,226.1Zm9.22,5.32,3.68,2.13a3.94,3.94,0,0,0,3.57,0,1.09,1.09,0,0,0,0-2.06l-3.69-2.12a3.89,3.89,0,0,0-3.56,0C213.72,229.93,213.73,230.85,214.72,231.42Zm9.22,5.32,3.68,2.13a3.94,3.94,0,0,0,3.57,0c1-.56,1-1.48,0-2.06l-3.69-2.12a3.94,3.94,0,0,0-3.57,0C222.94,235.25,223,236.17,223.94,236.74Zm9.21,5.32,3.69,2.13a4,4,0,0,0,3.57,0,1.09,1.09,0,0,0,0-2.06L236.71,240a4,4,0,0,0-3.57,0A1.09,1.09,0,0,0,233.15,242.06Zm9.22,5.33,3.69,2.12a3.94,3.94,0,0,0,3.57,0c1-.57,1-1.49,0-2.06l-3.68-2.13a3.94,3.94,0,0,0-3.57,0A1.09,1.09,0,0,0,242.37,247.39Zm9.22,5.32,3.69,2.13a3.92,3.92,0,0,0,3.56,0c1-.57,1-1.49,0-2.06l-3.68-2.12a3.91,3.91,0,0,0-3.57,0A1.09,1.09,0,0,0,251.59,252.71Zm9.22,5.32,3.68,2.13a3.94,3.94,0,0,0,3.57,0c1-.56,1-1.49,0-2.06L264.37,256a3.94,3.94,0,0,0-3.57,0A1.09,1.09,0,0,0,260.81,258Zm9.41,5.44,3.68,2.12a3.94,3.94,0,0,0,3.57,0c1-.57,1-1.49,0-2.06l-3.68-2.13a4,4,0,0,0-3.57,0A1.09,1.09,0,0,0,270.22,263.47ZM147,202.19l3.19,1.85a4.47,4.47,0,0,0,4.06,0l3.17-1.83c1.12-.64,1.11-1.69,0-2.34L154.24,198a4.5,4.5,0,0,0-4.06,0L147,199.85A1.23,1.23,0,0,0,147,202.19Zm16.47,7.18,3.17-1.83a1.24,1.24,0,0,0,0-2.35l-3.19-1.84a4.5,4.5,0,0,0-4.06,0l-3.17,1.83a1.24,1.24,0,0,0,0,2.35l3.19,1.84A4.5,4.5,0,0,0,163.49,209.37Zm2,3.47,3.19,1.84a4.5,4.5,0,0,0,4.06,0l3.17-1.83a1.24,1.24,0,0,0,0-2.35l-3.18-1.84a4.49,4.49,0,0,0-4.07,0l-3.16,1.82A1.24,1.24,0,0,0,165.46,212.84Zm9.22,5.32,3.19,1.84a4.47,4.47,0,0,0,4.06,0l3.17-1.83c1.11-.64,1.11-1.69,0-2.34L181.89,214a4.47,4.47,0,0,0-4.06,0l-3.17,1.83C173.55,216.46,173.55,217.51,174.68,218.16Zm19.62,3-3.19-1.84a4.5,4.5,0,0,0-4.06,0l-3.17,1.83a1.23,1.23,0,0,0,0,2.34l3.18,1.85a4.49,4.49,0,0,0,4.07,0l3.16-1.83C195.43,222.86,195.43,221.81,194.3,221.16Zm9.22,5.32-3.19-1.84a4.5,4.5,0,0,0-4.06,0l-3.17,1.83c-1.12.65-1.11,1.7,0,2.35l3.18,1.84a4.52,4.52,0,0,0,4.07,0l3.16-1.83A1.24,1.24,0,0,0,203.52,226.48Zm9.22,5.32L209.55,230a4.47,4.47,0,0,0-4.06,0l-3.17,1.82a1.24,1.24,0,0,0,0,2.35l3.19,1.84a4.5,4.5,0,0,0,4.06,0l3.17-1.83A1.24,1.24,0,0,0,212.74,231.8Zm9.22,5.33-3.19-1.84a4.47,4.47,0,0,0-4.06,0l-3.17,1.83c-1.12.64-1.11,1.69,0,2.34l3.19,1.84a4.47,4.47,0,0,0,4.06,0l3.17-1.83C223.09,238.83,223.08,237.78,222,237.13Zm9.22,5.32L228,240.61a4.5,4.5,0,0,0-4.06,0l-3.17,1.83a1.23,1.23,0,0,0,0,2.34l3.19,1.85a4.47,4.47,0,0,0,4.06,0l3.17-1.83C232.31,244.15,232.3,243.1,231.18,242.45Zm9.22,5.32-3.19-1.84a4.5,4.5,0,0,0-4.06,0L230,247.75a1.24,1.24,0,0,0,0,2.35l3.19,1.84a4.5,4.5,0,0,0,4.06,0l3.17-1.83A1.24,1.24,0,0,0,240.4,247.77Zm-1.19,7.65,3.19,1.84a4.5,4.5,0,0,0,4.06,0l3.17-1.83c1.12-.65,1.11-1.7,0-2.35l-3.18-1.84a4.49,4.49,0,0,0-4.07,0l-3.16,1.82A1.24,1.24,0,0,0,239.21,255.42Zm19.62,3-3.18-1.84a4.49,4.49,0,0,0-4.07,0l-3.16,1.83c-1.12.64-1.12,1.69,0,2.34l3.19,1.84a4.47,4.47,0,0,0,4.06,0l3.17-1.83C260,260.12,260,259.07,258.83,258.42Zm13.51,7.79-7.28-4.2a4.52,4.52,0,0,0-4.07,0l-3.16,1.83a1.24,1.24,0,0,0,0,2.35l7.28,4.2a4.5,4.5,0,0,0,4.06,0l3.17-1.83A1.24,1.24,0,0,0,272.34,266.21ZM138.48,207.12l7.28,4.21a4.47,4.47,0,0,0,4.06,0l3.17-1.82a1.24,1.24,0,0,0,0-2.35L145.7,203a4.5,4.5,0,0,0-4.06,0l-3.17,1.83A1.23,1.23,0,0,0,138.48,207.12Zm13.31,7.69,3.19,1.84a4.5,4.5,0,0,0,4.06,0l3.17-1.83a1.24,1.24,0,0,0,0-2.35L159,210.64a4.47,4.47,0,0,0-4.06,0l-3.17,1.82A1.24,1.24,0,0,0,151.79,214.81ZM164.2,222a4.47,4.47,0,0,0,4.06,0l3.17-1.83c1.12-.64,1.11-1.69,0-2.34L168.23,216a4.47,4.47,0,0,0-4.06,0L161,217.79c-1.12.64-1.11,1.69,0,2.34Zm9.22,5.33a4.5,4.5,0,0,0,4.06,0l3.17-1.83c1.12-.64,1.11-1.69,0-2.34l-3.19-1.84a4.47,4.47,0,0,0-4.06,0l-3.17,1.83c-1.12.64-1.11,1.69,0,2.34Zm9.18-.7-3.16,1.83a1.24,1.24,0,0,0,0,2.35l3.19,1.84a4.47,4.47,0,0,0,4.06,0l3.17-1.82c1.12-.65,1.11-1.7,0-2.35l-3.18-1.84A4.52,4.52,0,0,0,182.6,226.6Zm9.42,5.21-3.56,2.06c-1,.58-1,1.53,0,2.12l3.58,2.06a4.06,4.06,0,0,0,3.67,0l3.56-2.05a1.12,1.12,0,0,0,0-2.12l-3.58-2.07A4.06,4.06,0,0,0,192,231.81Zm9.22,5.33-3.56,2.05a1.12,1.12,0,0,0,0,2.12l3.58,2.07a4.06,4.06,0,0,0,3.67,0l3.56-2a1.12,1.12,0,0,0,0-2.12l-3.58-2.07A4,4,0,0,0,201.24,237.14Zm9.22,5.32-3.56,2a1.12,1.12,0,0,0,0,2.12l3.58,2.07a4,4,0,0,0,3.67,0l3.56-2c1-.58,1-1.53,0-2.12l-3.58-2.07A4.06,4.06,0,0,0,210.46,242.46Zm9.21,5.32-3.55,2.05a1.12,1.12,0,0,0,0,2.12l3.58,2.07a4.06,4.06,0,0,0,3.67,0l3.56-2.06c1-.58,1-1.53,0-2.12l-3.58-2.06A4.08,4.08,0,0,0,219.67,247.78Zm9.22,5.32-3.55,2.06a1.12,1.12,0,0,0,0,2.12l3.58,2.06a4.06,4.06,0,0,0,3.67,0l3.56-2.05a1.12,1.12,0,0,0,0-2.12l-3.58-2.07A4.06,4.06,0,0,0,228.89,253.1Zm12.93,11.57,3.56-2.05c1-.59,1-1.53,0-2.12l-3.58-2.07a4,4,0,0,0-3.67,0l-3.56,2.05c-1,.58-1,1.53,0,2.12l3.58,2.07A4.06,4.06,0,0,0,241.82,264.67ZM251,270l3.55-2.06a1.12,1.12,0,0,0,0-2.12L251,263.75a4.06,4.06,0,0,0-3.67,0l-3.56,2.05c-1,.59-1,1.53,0,2.12l3.58,2.07A4.06,4.06,0,0,0,251,270Zm13,1.25-3.58-2.06a4.06,4.06,0,0,0-3.67,0l-3.56,2.06c-1,.58-1,1.53,0,2.11l3.58,2.07a4.06,4.06,0,0,0,3.67,0l3.55-2.06C265,272.79,265,271.84,264,271.25ZM129.75,211.94l11.56,6.67a4.06,4.06,0,0,0,3.67,0l3.55-2.05a1.12,1.12,0,0,0,0-2.12L137,207.77a4.06,4.06,0,0,0-3.67,0l-3.55,2A1.12,1.12,0,0,0,129.75,211.94Zm17.19,9.93,3.59,2.07a4.06,4.06,0,0,0,3.67,0l3.55-2.05a1.12,1.12,0,0,0,0-2.12l-3.58-2.07a4.06,4.06,0,0,0-3.67,0l-3.56,2.05C145.92,220.33,145.93,221.28,146.94,221.87Zm9.22,5.32,3.58,2.07a4.06,4.06,0,0,0,3.67,0l3.56-2.06a1.12,1.12,0,0,0,0-2.12L163.38,223a4.06,4.06,0,0,0-3.67,0l-3.56,2A1.12,1.12,0,0,0,156.16,227.19Zm9.22,5.33,3.58,2.06a4.06,4.06,0,0,0,3.67,0l3.56-2.06a1.11,1.11,0,0,0,0-2.11l-3.58-2.07a4.06,4.06,0,0,0-3.67,0l-3.56,2.06C164.36,231,164.37,231.93,165.38,232.52Zm16.47,7.39,3.56-2a1.12,1.12,0,0,0,0-2.12l-3.58-2.07a4.06,4.06,0,0,0-3.67,0l-3.56,2.06a1.12,1.12,0,0,0,0,2.12l3.58,2.06A4.06,4.06,0,0,0,181.85,239.91Zm9.22,5.32,3.56-2c1-.58,1-1.53,0-2.12L191,239a4.06,4.06,0,0,0-3.67,0l-3.56,2a1.12,1.12,0,0,0,0,2.12l3.58,2.07A4.06,4.06,0,0,0,191.07,245.23Zm9.22,5.33,3.56-2.06c1-.58,1-1.53,0-2.12l-3.58-2.06a4.06,4.06,0,0,0-3.67,0L193,246.36a1.12,1.12,0,0,0,0,2.12l3.58,2.07A4.06,4.06,0,0,0,200.29,250.56Zm9.22,5.32,3.56-2.06a1.11,1.11,0,0,0,0-2.11l-3.58-2.07a4.08,4.08,0,0,0-3.68,0l-3.55,2.06a1.12,1.12,0,0,0,0,2.12l3.58,2.06A4.06,4.06,0,0,0,209.51,255.88Zm9.22,5.32,3.56-2.05c1-.59,1-1.53,0-2.12L218.69,255a4.06,4.06,0,0,0-3.67,0L211.47,257c-1,.58-1,1.53,0,2.12l3.58,2.06A4.06,4.06,0,0,0,218.73,261.2Zm9.22,5.32,3.55-2c1-.58,1-1.53,0-2.12l-3.58-2.07a4.06,4.06,0,0,0-3.67,0l-3.56,2.05c-1,.58-1,1.53,0,2.12l3.58,2.07A4.06,4.06,0,0,0,228,266.52Zm2,3.25,3.58,2.07a4.08,4.08,0,0,0,3.68,0l3.55-2.06a1.12,1.12,0,0,0,0-2.12l-3.58-2.06a4.06,4.06,0,0,0-3.67,0l-3.56,2A1.12,1.12,0,0,0,229.91,269.77Zm25.54,6.41-9.1-5.25a4.06,4.06,0,0,0-3.67,0L239.12,273c-1,.58-1,1.53,0,2.12l9.11,5.25a4.06,4.06,0,0,0,3.67,0l3.56-2.06C256.48,277.72,256.47,276.77,255.45,276.18ZM121.24,217.13l16.4,9.47a4.6,4.6,0,0,0,4.15,0l3.08-1.78c1.15-.66,1.14-1.73,0-2.39L128.46,213a4.6,4.6,0,0,0-4.15,0l-3.08,1.78A1.27,1.27,0,0,0,121.24,217.13Zm22.52,13,3.1,1.79a4.63,4.63,0,0,0,4.15,0l3.08-1.78a1.27,1.27,0,0,0,0-2.4L151,226a4.6,4.6,0,0,0-4.15,0l-3.08,1.78A1.27,1.27,0,0,0,143.76,230.13Zm9.22,5.32,3.1,1.79a4.6,4.6,0,0,0,4.15,0l3.08-1.78a1.27,1.27,0,0,0,0-2.4l-3.1-1.79a4.63,4.63,0,0,0-4.15,0L153,233.05A1.27,1.27,0,0,0,153,235.45Zm9.22,5.32,3.1,1.79a4.57,4.57,0,0,0,4.15,0l3.08-1.78a1.26,1.26,0,0,0,0-2.39l-3.1-1.8a4.6,4.6,0,0,0-4.15,0l-3.08,1.78C161,239,161.05,240.11,162.2,240.77Zm9.22,5.32,3.1,1.8a4.6,4.6,0,0,0,4.15,0l3.08-1.78a1.26,1.26,0,0,0,0-2.39l-3.11-1.79a4.55,4.55,0,0,0-4.14,0l-3.09,1.78C170.26,244.36,170.27,245.43,171.42,246.09Zm9.22,5.33,3.1,1.79a4.63,4.63,0,0,0,4.15,0l3.08-1.79a1.26,1.26,0,0,0,0-2.39l-3.11-1.79a4.58,4.58,0,0,0-4.14,0L180.62,249C179.48,249.68,179.49,250.75,180.64,251.42Zm9.21,5.32,3.11,1.79a4.58,4.58,0,0,0,4.14,0l3.09-1.78a1.27,1.27,0,0,0,0-2.4l-3.11-1.79a4.61,4.61,0,0,0-4.14,0l-3.09,1.78A1.27,1.27,0,0,0,189.85,256.74Zm9.22,5.32,3.11,1.79a4.55,4.55,0,0,0,4.14,0l3.09-1.78c1.14-.66,1.13-1.73,0-2.39l-3.1-1.8a4.6,4.6,0,0,0-4.15,0l-3.08,1.78A1.26,1.26,0,0,0,199.07,262.06Zm9.22,5.32,3.11,1.8a4.58,4.58,0,0,0,4.14,0l3.09-1.78c1.14-.66,1.13-1.73,0-2.39l-3.1-1.79a4.57,4.57,0,0,0-4.15,0L208.28,265A1.26,1.26,0,0,0,208.29,267.38Zm9.22,5.33,3.1,1.79a4.63,4.63,0,0,0,4.15,0l3.08-1.78a1.27,1.27,0,0,0,0-2.4l-3.1-1.79a4.6,4.6,0,0,0-4.15,0l-3.08,1.78A1.27,1.27,0,0,0,217.51,272.71Zm9.22,5.32,3.1,1.79a4.6,4.6,0,0,0,4.15,0l3.08-1.78a1.27,1.27,0,0,0,0-2.4l-3.1-1.79a4.63,4.63,0,0,0-4.15,0l-3.08,1.78A1.27,1.27,0,0,0,226.73,278Zm19.74,3.06-3.1-1.79a4.6,4.6,0,0,0-4.15,0l-3.08,1.78a1.26,1.26,0,0,0,0,2.39l3.11,1.79a4.58,4.58,0,0,0,4.14,0l3.09-1.78C247.63,282.83,247.62,281.76,246.47,281.09ZM127.12,222l-7.2-4.15a4.58,4.58,0,0,0-4.14,0l-3.09,1.78c-1.14.66-1.13,1.73,0,2.4l7.19,4.15a4.6,4.6,0,0,0,4.15,0l3.08-1.78A1.27,1.27,0,0,0,127.12,222Zm9.22,5.33-3.11-1.8a4.58,4.58,0,0,0-4.14,0L126,227.35c-1.14.66-1.13,1.73,0,2.39l3.1,1.79a4.57,4.57,0,0,0,4.15,0l3.08-1.78A1.26,1.26,0,0,0,136.34,227.37Zm9.21,5.32-3.1-1.79a4.55,4.55,0,0,0-4.14,0l-3.09,1.78a1.26,1.26,0,0,0,0,2.39l3.11,1.79a4.55,4.55,0,0,0,4.14,0l3.09-1.78C146.71,234.42,146.7,233.35,145.55,232.69ZM210.09,270l-58.42-33.73a4.6,4.6,0,0,0-4.15,0L144.44,238a1.27,1.27,0,0,0,0,2.4l58.42,33.72a4.57,4.57,0,0,0,4.15,0l3.08-1.78A1.26,1.26,0,0,0,210.09,270Zm9.22,5.32-3.11-1.79a4.55,4.55,0,0,0-4.14,0L209,275.25c-1.14.66-1.13,1.73,0,2.39l3.1,1.79a4.57,4.57,0,0,0,4.15,0l3.08-1.78A1.26,1.26,0,0,0,219.31,275.27Zm9.21,5.32-3.1-1.79a4.6,4.6,0,0,0-4.15,0l-3.08,1.78a1.27,1.27,0,0,0,0,2.4l3.11,1.79a4.58,4.58,0,0,0,4.14,0l3.09-1.78C229.68,282.33,229.67,281.25,228.52,280.59Zm9.42,5.43-3.11-1.79a4.58,4.58,0,0,0-4.14,0L227.6,286c-1.14.65-1.13,1.73,0,2.39l3.1,1.79a4.58,4.58,0,0,0,4.14,0l3.09-1.78A1.27,1.27,0,0,0,237.94,286Z"/><polygon class="cls-35" points="333.58 122.35 313.08 264.1 308.83 271.6 153.17 176.78 193.08 41.85 333.58 122.35"/><polygon class="cls-36" points="309.07 118.94 309.07 271.36 150.27 179.8 150.27 27.38 309.07 118.94"/><polygon class="cls-37" points="309.07 116.75 309.07 136.29 308.34 136.65 150.27 44.73 149.55 25.55 150.27 25.18 309.07 116.75"/><polygon class="cls-38" points="308.34 119.3 308.34 271.73 149.55 180.16 149.55 27.74 308.34 119.3"/><polygon class="cls-39" points="153.94 177.11 153.94 54.07 303.94 140.56 303.94 263.61 153.94 177.11"/><polygon class="cls-40" points="308.34 117.11 308.34 136.65 149.55 45.09 149.55 25.55 308.34 117.11"/><path class="cls-17" d="M157.19,36.83l10.55,6.09c.4.23.72,0,.72-.42a1.59,1.59,0,0,0-.72-1.25l-10.55-6.09c-.4-.23-.73,0-.73.41A1.6,1.6,0,0,0,157.19,36.83ZM167.74,45l-10.55-6.08c-.4-.24-.73-.05-.73.41a1.6,1.6,0,0,0,.73,1.25l10.55,6.09c.4.24.72,0,.72-.41A1.62,1.62,0,0,0,167.74,45Zm0,3.76-10.55-6.09c-.4-.23-.73-.05-.73.42a1.6,1.6,0,0,0,.73,1.25l10.55,6.09c.4.23.72,0,.72-.42A1.59,1.59,0,0,0,167.74,48.76Z"/><path class="cls-17" d="M302,123.11c0,1.43-1,2-2.26,1.28a5,5,0,0,1-2.26-3.89c0-1.43,1-2,2.26-1.29A5,5,0,0,1,302,123.11Z"/><path class="cls-17" d="M295.13,119.15c0,1.43-1,2-2.26,1.28a5,5,0,0,1-2.26-3.89c0-1.43,1-2,2.26-1.29A5,5,0,0,1,295.13,119.15Z"/><path class="cls-17" d="M288.32,115.19c0,1.43-1,2-2.26,1.28a5,5,0,0,1-2.26-3.89c0-1.43,1-2,2.26-1.29A5,5,0,0,1,288.32,115.19Z"/><polygon class="cls-41" points="285.61 143.46 285.61 145.56 276.2 140.13 276.2 153.91 294.96 164.74 294.96 148.86 285.61 143.46"/><polygon class="cls-42" points="284.46 143.84 284.46 145.94 275.06 140.51 275.06 154.29 292.31 166.05 293.82 165.12 293.82 149.24 284.46 143.84"/><polygon class="cls-17" points="274.21 154.6 292.96 165.43 292.96 152.5 274.21 141.67 274.21 154.6"/><polygon class="cls-43" points="273.54 155.18 292.3 166.01 292.3 154.5 273.54 143.67 273.54 155.18"/><polygon class="cls-41" points="258.42 127.71 258.42 129.81 249.02 124.38 249.02 138.16 267.77 148.99 267.77 133.11 258.42 127.71"/><polygon class="cls-44" points="257.28 128.09 257.28 130.19 247.88 124.76 247.88 138.54 265.13 150.3 266.63 149.37 266.63 133.49 257.28 128.09"/><polygon class="cls-17" points="247.02 138.85 265.77 149.68 265.77 136.75 247.02 125.92 247.02 138.85"/><polygon class="cls-45" points="246.35 139.43 265.11 150.26 265.11 138.75 246.35 127.92 246.35 139.43"/><polygon class="cls-41" points="231.23 111.96 231.23 114.06 221.83 108.63 221.83 122.41 240.58 133.24 240.58 117.36 231.23 111.96"/><polygon class="cls-46" points="230.09 112.34 230.09 114.44 220.69 109.01 220.69 122.8 237.94 134.55 239.44 133.62 239.44 117.74 230.09 112.34"/><polygon class="cls-17" points="219.83 123.1 238.59 133.93 238.59 121 219.83 110.17 219.83 123.1"/><polygon class="cls-47" points="219.17 123.68 237.92 134.51 237.92 123 219.17 112.17 219.17 123.68"/><polygon class="cls-41" points="204.04 96.21 204.04 98.31 194.64 92.88 194.64 106.66 213.4 117.49 213.4 101.61 204.04 96.21"/><polygon class="cls-48" points="202.9 96.59 202.9 98.69 193.5 93.26 193.5 107.05 210.75 118.8 212.25 117.87 212.25 101.99 202.9 96.59"/><polygon class="cls-17" points="192.65 107.35 211.4 118.18 211.4 105.25 192.65 94.42 192.65 107.35"/><polygon class="cls-49" points="191.98 107.93 210.73 118.76 210.73 107.25 191.98 96.42 191.98 107.93"/><polygon class="cls-41" points="176.86 80.46 176.86 82.56 167.46 77.13 167.46 90.91 186.21 101.74 186.21 85.86 176.86 80.46"/><polygon class="cls-50" points="175.72 80.84 175.72 82.94 166.31 77.51 166.31 91.3 183.56 103.05 185.07 102.12 185.07 86.24 175.72 80.84"/><polygon class="cls-17" points="165.46 91.6 184.21 102.43 184.21 89.5 165.46 78.67 165.46 91.6"/><polygon class="cls-51" points="164.79 92.18 183.54 103.01 183.54 91.5 164.79 80.67 164.79 92.18"/><polygon class="cls-41" points="285.61 220.21 285.61 222.31 276.2 216.88 276.2 230.66 294.96 241.49 294.96 225.61 285.61 220.21"/><polygon class="cls-52" points="284.46 220.59 284.46 222.69 275.06 217.26 275.06 231.04 292.31 242.8 293.82 241.87 293.82 225.99 284.46 220.59"/><polygon class="cls-17" points="274.21 231.35 292.96 242.18 292.96 229.25 274.21 218.42 274.21 231.35"/><polygon class="cls-53" points="273.54 231.93 292.3 242.76 292.3 231.25 273.54 220.42 273.54 231.93"/><polygon class="cls-41" points="258.42 204.46 258.42 206.56 249.02 201.13 249.02 214.91 267.77 225.74 267.77 209.86 258.42 204.46"/><polygon class="cls-54" points="257.28 204.84 257.28 206.94 247.88 201.51 247.88 215.29 265.13 227.05 266.63 226.12 266.63 210.24 257.28 204.84"/><polygon class="cls-17" points="247.02 215.6 265.77 226.43 265.77 213.5 247.02 202.67 247.02 215.6"/><polygon class="cls-55" points="246.35 216.18 265.11 227.01 265.11 215.5 246.35 204.67 246.35 216.18"/><polygon class="cls-41" points="231.23 188.71 231.23 190.81 221.83 185.38 221.83 199.16 240.58 209.99 240.58 194.11 231.23 188.71"/><polygon class="cls-56" points="230.09 189.09 230.09 191.19 220.69 185.76 220.69 199.54 237.94 211.3 239.44 210.37 239.44 194.49 230.09 189.09"/><polygon class="cls-17" points="219.83 199.85 238.59 210.68 238.59 197.75 219.83 186.92 219.83 199.85"/><polygon class="cls-57" points="219.17 200.43 237.92 211.26 237.92 199.75 219.17 188.92 219.17 200.43"/><polygon class="cls-41" points="204.04 172.96 204.04 175.06 194.64 169.63 194.64 183.41 213.4 194.24 213.4 178.36 204.04 172.96"/><polygon class="cls-58" points="202.9 173.34 202.9 175.44 193.5 170.01 193.5 183.79 210.75 195.55 212.25 194.62 212.25 178.74 202.9 173.34"/><polygon class="cls-17" points="192.65 184.1 211.4 194.93 211.4 182 192.65 171.17 192.65 184.1"/><polygon class="cls-59" points="191.98 184.68 210.73 195.51 210.73 184 191.98 173.17 191.98 184.68"/><polygon class="cls-41" points="176.86 157.21 176.86 159.31 167.46 153.88 167.46 167.66 186.21 178.49 186.21 162.61 176.86 157.21"/><polygon class="cls-60" points="175.72 157.59 175.72 159.69 166.31 154.26 166.31 168.04 183.56 179.8 185.07 178.87 185.07 162.99 175.72 157.59"/><polygon class="cls-17" points="165.46 168.35 184.21 179.18 184.21 166.25 165.46 155.42 165.46 168.35"/><polygon class="cls-61" points="164.79 168.93 183.54 179.76 183.54 168.25 164.79 157.42 164.79 168.93"/><polygon class="cls-41" points="285.61 194.46 285.61 196.56 276.2 191.13 276.2 204.91 294.96 215.74 294.96 199.86 285.61 194.46"/><polygon class="cls-62" points="284.46 194.84 284.46 196.94 275.06 191.51 275.06 205.29 292.31 217.05 293.82 216.12 293.82 200.24 284.46 194.84"/><polygon class="cls-17" points="274.21 205.6 292.96 216.43 292.96 203.5 274.21 192.67 274.21 205.6"/><polygon class="cls-63" points="273.54 206.18 292.3 217.01 292.3 205.5 273.54 194.67 273.54 206.18"/><polygon class="cls-41" points="258.42 178.71 258.42 180.81 249.02 175.38 249.02 189.16 267.77 199.99 267.77 184.11 258.42 178.71"/><polygon class="cls-64" points="257.28 179.09 257.28 181.19 247.88 175.76 247.88 189.54 265.13 201.3 266.63 200.37 266.63 184.49 257.28 179.09"/><polygon class="cls-17" points="247.02 189.85 265.77 200.68 265.77 187.75 247.02 176.92 247.02 189.85"/><polygon class="cls-65" points="246.35 190.43 265.11 201.26 265.11 189.75 246.35 178.92 246.35 190.43"/><polygon class="cls-41" points="231.23 162.96 231.23 165.06 221.83 159.63 221.83 173.41 240.58 184.24 240.58 168.36 231.23 162.96"/><polygon class="cls-66" points="230.09 163.34 230.09 165.44 220.69 160.01 220.69 173.79 237.94 185.55 239.44 184.62 239.44 168.74 230.09 163.34"/><polygon class="cls-17" points="219.83 174.1 238.59 184.93 238.59 172 219.83 161.17 219.83 174.1"/><polygon class="cls-67" points="219.17 174.68 237.92 185.51 237.92 174 219.17 163.17 219.17 174.68"/><polygon class="cls-41" points="204.04 147.21 204.04 149.31 194.64 143.88 194.64 157.66 213.4 168.49 213.4 152.61 204.04 147.21"/><polygon class="cls-68" points="202.9 147.59 202.9 149.69 193.5 144.26 193.5 158.04 210.75 169.8 212.25 168.87 212.25 152.99 202.9 147.59"/><polygon class="cls-17" points="192.65 158.35 211.4 169.18 211.4 156.25 192.65 145.42 192.65 158.35"/><polygon class="cls-69" points="191.98 158.93 210.73 169.76 210.73 158.25 191.98 147.42 191.98 158.93"/><polygon class="cls-41" points="176.86 131.46 176.86 133.56 167.46 128.13 167.46 141.91 186.21 152.74 186.21 136.86 176.86 131.46"/><polygon class="cls-70" points="175.72 131.84 175.72 133.94 166.31 128.51 166.31 142.29 183.56 154.05 185.07 153.12 185.07 137.24 175.72 131.84"/><polygon class="cls-17" points="165.46 142.6 184.21 153.43 184.21 140.5 165.46 129.67 165.46 142.6"/><polygon class="cls-71" points="164.79 143.18 183.54 154.01 183.54 142.5 164.79 131.67 164.79 143.18"/><polygon class="cls-41" points="285.61 169.21 285.61 171.31 276.2 165.88 276.2 179.66 294.96 190.49 294.96 174.61 285.61 169.21"/><polygon class="cls-72" points="284.46 169.59 284.46 171.69 275.06 166.26 275.06 180.04 292.31 191.8 293.82 190.87 293.82 174.99 284.46 169.59"/><polygon class="cls-17" points="274.21 180.35 292.96 191.18 292.96 178.25 274.21 167.42 274.21 180.35"/><polygon class="cls-73" points="273.54 180.93 292.3 191.76 292.3 180.25 273.54 169.42 273.54 180.93"/><polygon class="cls-41" points="258.42 153.46 258.42 155.56 249.02 150.13 249.02 163.91 267.77 174.74 267.77 158.86 258.42 153.46"/><polygon class="cls-74" points="257.28 153.84 257.28 155.94 247.88 150.51 247.88 164.29 265.13 176.05 266.63 175.12 266.63 159.24 257.28 153.84"/><polygon class="cls-17" points="247.02 164.6 265.77 175.43 265.77 162.5 247.02 151.67 247.02 164.6"/><polygon class="cls-75" points="246.35 165.18 265.11 176.01 265.11 164.5 246.35 153.67 246.35 165.18"/><polygon class="cls-41" points="231.23 137.71 231.23 139.81 221.83 134.38 221.83 148.16 240.58 158.99 240.58 143.11 231.23 137.71"/><polygon class="cls-76" points="230.09 138.09 230.09 140.19 220.69 134.76 220.69 148.54 237.94 160.3 239.44 159.37 239.44 143.49 230.09 138.09"/><polygon class="cls-17" points="219.83 148.85 238.59 159.68 238.59 146.75 219.83 135.92 219.83 148.85"/><polygon class="cls-77" points="219.17 149.43 237.92 160.26 237.92 148.75 219.17 137.92 219.17 149.43"/><polygon class="cls-41" points="204.04 121.96 204.04 124.06 194.64 118.63 194.64 132.41 213.4 143.24 213.4 127.36 204.04 121.96"/><polygon class="cls-78" points="202.9 122.34 202.9 124.44 193.5 119.01 193.5 132.79 210.75 144.55 212.25 143.62 212.25 127.74 202.9 122.34"/><polygon class="cls-17" points="192.65 133.1 211.4 143.93 211.4 131 192.65 120.17 192.65 133.1"/><polygon class="cls-79" points="191.98 133.68 210.73 144.51 210.73 133 191.98 122.17 191.98 133.68"/><polygon class="cls-41" points="176.86 106.21 176.86 108.31 167.46 102.88 167.46 116.66 186.21 127.49 186.21 111.61 176.86 106.21"/><polygon class="cls-80" points="175.72 106.59 175.72 108.69 166.31 103.26 166.31 117.05 183.56 128.8 185.07 127.87 185.07 111.99 175.72 106.59"/><polygon class="cls-17" points="165.46 117.35 184.21 128.18 184.21 115.25 165.46 104.42 165.46 117.35"/><polygon class="cls-81" points="164.79 117.93 183.54 128.76 183.54 117.25 164.79 106.42 164.79 117.93"/><polygon class="cls-82" points="351.79 140.15 237.27 73.9 207.68 91.47 207.68 119.19 322.15 185.32 322.15 185.34 322.16 185.33 322.17 185.34 322.17 185.32 351.79 167.87 351.79 140.15"/><g class="cls-83"><polygon class="cls-84" points="322.15 157.78 322.15 185.34 330.13 180.73 330.13 153.01 322.15 157.78"/><polygon class="cls-85" points="322.17 157.78 322.17 185.34 207.68 119.19 207.68 91.47 322.17 157.78"/><polygon class="cls-86" points="207.68 91.47 322.17 157.78 330.13 153.01 215.61 86.76 207.68 91.47"/></g><path class="cls-17" d="M316.63,174.11l-3.5-6a1.67,1.67,0,0,0-1.35-1l-1-1.77c1.54-1.44,1.39-4.86-.46-8-2-3.49-5.3-5.38-7.33-4.23s-2,4.92,0,8.41c1.85,3.19,4.76,5,6.79,4.45l1,1.77a1.66,1.66,0,0,0,.17,1.65l3.5,6c.44.75,1.15,1.16,1.59.91l.6-.34C317.07,175.68,317.07,174.86,316.63,174.11ZM309,163.52c-1.33.76-3.49-.49-4.83-2.79s-1.33-4.77,0-5.53,3.5.48,4.83,2.78S310.37,162.76,309,163.52Z"/><polygon class="cls-17" points="297.39 163.88 215.32 116.32 215.32 103.09 297.39 150.66 297.39 163.88"/><polygon class="cls-87" points="174.22 112.15 164.29 118.06 150.09 109.21 150.09 189.56 209.44 236.39 224.01 227.43 224.01 140.9 174.22 112.15"/><path class="cls-88" d="M165.43,117.08V124L119.06,97.22a2.46,2.46,0,0,0-3.69,2.12v85.32l88.48,51.43a6.49,6.49,0,0,0,6.68-.09l1.89-1.18a5.91,5.91,0,0,0,2.8-5V145.43a6.67,6.67,0,0,0-3.34-5.79L169.12,115A2.46,2.46,0,0,0,165.43,117.08Z"/><g class="cls-89"><path class="cls-90" d="M118,98.06l46.38,26.77V123.4L119.06,97.22a2.45,2.45,0,0,0-3.26.75A2.41,2.41,0,0,1,118,98.06Z"/><path class="cls-91" d="M211.88,139.64,169.12,115a2.46,2.46,0,0,0-3.26.75,2.41,2.41,0,0,1,2.24.1l42.76,24.68a6.71,6.71,0,0,1,3.35,5.8v84.36a6,6,0,0,1-1.62,4.07,5.92,5.92,0,0,0,2.63-4.92V145.43A6.67,6.67,0,0,0,211.88,139.64Z"/></g><polygon class="cls-17" points="110.81 177.06 210.66 234.71 210.66 158.93 110.81 101.28 110.81 177.06"/><polygon class="cls-92" points="110.81 179.59 208.9 236.22 208.9 165.35 110.81 108.72 110.81 179.59"/><path class="cls-93" d="M111.59,182.67,204,236a6.43,6.43,0,0,0,6.26.09l.6-.33-.63.25a2.3,2.3,0,0,1-3.12-2.16V170.43a6.68,6.68,0,0,0-3.35-5.79L111,111.05a2.46,2.46,0,0,0-3.69,2.12v62A8.67,8.67,0,0,0,111.59,182.67Z"/><path class="cls-94" d="M210.24,236a2.31,2.31,0,0,1-3.13-2.16V170.43a6.67,6.67,0,0,0-3.34-5.79L111,111.05a2.45,2.45,0,0,0-3.07.51,2.41,2.41,0,0,1,2.18.12l92.82,53.59a6.68,6.68,0,0,1,3.35,5.79v63.46a2.3,2.3,0,0,0,2,2.28,6.4,6.4,0,0,0,2.06-.68l.6-.33Z"/><path class="cls-95" d="M182.61,166.33c-8-4.54-15.82-11.83-22.37-20.88l-.09,0c-6.56,1.48-14.38-.25-22.37-5l-.31-.18-4.23,2.41,4.85,3.19c1.52,20.24,9.42,36.86,22.14,56.53l.31.18c2.28-.9-1.18,1.17.78.06l5.66-3c8.82-5.06,14.27-12.82,15.5-27.85l.43-5.26Z"/><path class="cls-96" d="M182.61,166.33c-8-4.54-15.82-11.83-22.37-20.88l-.09,0-.13,0-16.09,9.3,32.95,15.11,6-3.34Z"/><path class="cls-97" d="M178.9,168.4c-8-4.53-15.82-11.83-22.37-20.87l-.09-.05c-6.56,1.47-14.37-.26-22.37-5l-.31-.18.43,5.76c1.52,20.24,9.42,36.86,22.14,56.53l.31.18c12.71-5,20.61-12.48,22.13-31l.43-5.26Z"/><path class="cls-98" d="M178.31,168.64c-8-4.54-15.82-11.84-22.37-20.88l-.09,0c-6.55,1.47-14.37-.26-22.37-5l-.31-.18.43,5.76c1.52,20.24,9.42,36.85,22.14,56.53l.31.18c12.71-5,20.61-12.49,22.13-31l.43-5.26Z"/><path class="cls-99" d="M178.31,168.64c-8-4.54-15.82-11.84-22.37-20.88l-.09,0c-6.55,1.47-14.37-.26-22.37-5l-.31-.18.43,5.76c1.52,20.24,9.42,36.85,22.14,56.53l.31.18c12.71-5,20.61-12.49,22.13-31l.43-5.26Z"/><path class="cls-100" d="M178.31,168.64l-.4-.24-.43,5.21c-1.51,18.41-9.35,25.92-22,30.91l.22.35.31.18c12.71-5,20.61-12.49,22.13-31l.43-5.26Z"/><path class="cls-101" d="M156.86,202c-11.43-17.89-19.3-34-20.79-53.89l-.09-1.26a35.44,35.44,0,0,0,15.12,3.81,24,24,0,0,0,3.72-.28A75.81,75.81,0,0,0,176,170.17l-.31,3.7C174.32,190.86,167.49,197.51,156.86,202Z"/><path class="cls-102" d="M137.68,147.85l0-.19c-.56-.24-1.12-.5-1.68-.77l.09,1.26c1.49,19.85,9.36,36,20.79,53.89.48-.2.94-.41,1.4-.62C146.94,183.66,139.16,167.59,137.68,147.85Z"/><polygon class="cls-103" points="158.58 183.91 154.27 181.43 154.27 161.67 158.58 164.15 158.58 183.91"/><polygon class="cls-104" points="155.58 180.58 155.58 162.42 154.27 161.67 154.27 181.43 158.58 183.91 158.58 182.31 155.58 180.58"/><polygon class="cls-105" points="158.09 163.97 158.03 163.93 155.69 162.42 99.58 194.82 99.58 217.19 101.92 215.84 101.92 218.5 130.33 198.1 158.03 182.82 158.03 164.06 158.09 163.97"/><polygon class="cls-106" points="147.32 167.24 91.21 199.63 91.21 222 129.53 199.88 130.63 195.96 149.72 168.78 147.32 167.24"/><polygon class="cls-107" points="149.66 168.56 93.55 200.95 93.55 223.32 131.87 201.19 132.97 197.27 149.66 187.64 149.66 168.56"/><polygon class="cls-17" points="143.08 188.43 99.05 213.87 99.05 202.84 143.08 177.4 143.08 188.43"/><polygon class="cls-108" points="142.31 177.84 142.31 188.12 99.05 213.12 99.05 213.87 143.08 188.43 143.08 177.4 142.31 177.84"/><path class="cls-109" d="M95.08,189.31l-3.7-1.92a3.34,3.34,0,0,0-3.55.27l-16,9.27a10.67,10.67,0,0,0-4.84,8.35V238c0,1.73.69,2.88,1.77,3.28l3.77,2,.06-1.88.23-.13,16-9.26a10.68,10.68,0,0,0,4.85-8.36V190.93c0-.17,0-.33,0-.5Zm-12,32.08a9.64,9.64,0,0,1-4.38,7.55l-.92.54c-2.42,1.4-4.39.28-4.39-2.5v-4.37l3.11-18.24a7.26,7.26,0,0,1,1.28-1l.92-.53c2.42-1.4,4.38-.28,4.38,2.5Z"/><path class="cls-110" d="M91.6,189.63l-16,9.27a10.65,10.65,0,0,0-4.85,8.35v32.69c0,3.07,2.17,4.31,4.85,2.76l16-9.26a10.67,10.67,0,0,0,4.84-8.36V192.39C96.44,189.32,94.28,188.09,91.6,189.63Zm-5.71,33.22a9.67,9.67,0,0,1-4.38,7.56l-.93.53c-2.42,1.4-4.38.28-4.38-2.5v-16a9.66,9.66,0,0,1,4.38-7.56l.93-.53c2.42-1.4,4.38-.28,4.38,2.5Z"/><g class="cls-89"><path class="cls-111" d="M81.09,230.94l.93-.53a9.67,9.67,0,0,0,4.38-7.56v-16c0-1.82-.84-2.92-2.1-3.08a3,3,0,0,1,1.37,2.86v16a9.66,9.66,0,0,1-4.38,7.56l-.93.53a3.73,3.73,0,0,1-2.28.58A3.16,3.16,0,0,0,81.09,230.94Z"/><path class="cls-112" d="M71.22,239.94V207.25a10.64,10.64,0,0,1,4.84-8.35l16-9.27a4.11,4.11,0,0,1,2.56-.63,3.52,3.52,0,0,0-3.29.41l-16,9.27A10.65,10.65,0,0,0,70.48,207v32.69c0,2,.92,3.21,2.29,3.4A3.29,3.29,0,0,1,71.22,239.94Z"/></g><circle class="cls-113" cx="71.25" cy="201.56" r="11.66"/><g class="cls-2"><path class="cls-3" d="M78.71,257.41a13.41,13.41,0,0,0,6.73-1.63L119.62,234l34.18-21.79a7.11,7.11,0,0,0,3.86-6.15c0-2.73.38-21.55-2.57-23.26l-3.72-1.52c-2.32-1.34-7.29,14.2-10.24,14.2a13.49,13.49,0,0,0-6.73,1.63L98.78,217.67,63.16,238.24a7.11,7.11,0,0,0-3.86,6.14c0,2.73,1.7,5.28,4.65,7C64,251.36,75.76,257.41,78.71,257.41Z"/><path class="cls-4" d="M154.08,184.68c-.08,0-3.53-1.35-3.6-1.33-2.54-1.12-7.36,13.23-10.2,13.27a14.14,14.14,0,0,0-6.44,1.66L99.52,218.1,65.19,237.92A7.54,7.54,0,0,0,61.4,243c0,.24-.06.48-.07.72-.13,2.59,1.43,5.07,4.31,6.73,0,0,1.37.73,3.09,1.56,3.56,1.73,9.14,4.17,11.1,4.1.52,0,1-.05,1.51-.1a13.06,13.06,0,0,0,4.92-1.56l32.82-21,2.81-1.8,30-19.17a7.19,7.19,0,0,0,3.84-5.81c0-.64.18-2.37.22-4.43.06-4,.37-9.84-.41-13.65C155.17,186.71,154.76,185.08,154.08,184.68Z"/><path class="cls-5" d="M153.06,186.57c-.15,0-3.34-1.19-3.47-1.16-2.75-.89-7.43,12.26-10.16,12.35a14.71,14.71,0,0,0-6.16,1.7l-33,19.06-33,19.08a7.81,7.81,0,0,0-3.76,4.77c0,.22-.08.45-.11.67-.25,2.45,1.17,4.86,4,6.47,0,0,1.4.77,3,1.52,3.41,1.66,8.71,3.9,10.68,3.77.49,0,1-.07,1.44-.13a13.69,13.69,0,0,0,4.68-1.58l31.47-20.15,2.69-1.73L150,212.78c2-1.16,3.82-3.43,3.82-5.46,0-.58.34-2.29.42-4.14.15-3.74.94-9.23.1-12.83C154,188.66,153.67,186.92,153.06,186.57Z"/><path class="cls-6" d="M152.05,188.45c-.23,0-3.15-1-3.36-1-3-.66-7.49,11.28-10.1,11.41a16,16,0,0,0-5.88,1.75L101,219,69.25,237.28c-1.6.92-3.42,2.9-3.74,4.47,0,.21-.1.41-.13.62-.39,2.31.91,4.65,3.63,6.22,0,0,1.44.81,2.81,1.48,3.26,1.59,8.29,3.62,10.26,3.42.47,0,.92-.09,1.37-.15a14.52,14.52,0,0,0,4.44-1.59L118,232.41l2.58-1.66,27.54-17.68c1.78-1,3.79-3.32,3.79-5.13,0-.51.51-2.2.63-3.84.25-3.47,1.51-8.62.62-12C152.77,190.6,152.59,188.77,152.05,188.45Z"/><path class="cls-7" d="M151,190.33c-.3.06-2.95-.85-3.23-.78-3.17-.44-7.55,10.3-10.06,10.48a16.92,16.92,0,0,0-5.59,1.79l-30.42,17.56L71.28,237c-1.4.8-3.38,2.8-3.71,4.16,0,.2-.12.39-.17.58-.52,2.17.65,4.44,3.3,6,0,0,1.47.85,2.67,1.44,3.1,1.53,7.86,3.34,9.83,3.08.45,0,.88-.12,1.3-.18a15.22,15.22,0,0,0,4.21-1.61l28.76-18.52,2.47-1.59,26.3-16.93c1.56-.91,3.77-3.21,3.77-4.79,0-.45.67-2.12.82-3.55.35-3.21,2.09-8,1.14-11.18C151.58,192.54,151.51,190.61,151,190.33Z"/><path class="cls-8" d="M150,192.22c-.38.06-2.76-.69-3.11-.61-3.39-.21-7.61,9.33-10,9.55a19.13,19.13,0,0,0-5.31,1.84l-29.11,16.81L73.31,236.64c-1.2.69-3.36,2.71-3.68,3.86-.06.18-.15.35-.21.54-.65,2,.4,4.22,3,5.7,0,0,1.5.9,2.53,1.41,3,1.46,7.43,3.06,9.41,2.74.42,0,.83-.15,1.23-.21a17.2,17.2,0,0,0,4-1.62l27.41-17.71,2.34-1.52,25.07-16.19c1.33-.77,3.74-3.09,3.74-4.44,0-.39.86-2,1-3.26.44-3,2.66-7.37,1.65-10.35C150.4,194.49,150.43,192.45,150,192.22Z"/><path class="cls-9" d="M149,194.1c-.45.08-2.58-.52-3-.42-3.61,0-7.66,8.35-10,8.62a21.73,21.73,0,0,0-5,1.87L103.2,220.23,75.34,236.32c-1,.58-3.54,2.57-3.66,3.56a4.37,4.37,0,0,0-.23.49c-.79,1.89.13,4,2.62,5.45,0,0,1.54.94,2.39,1.36,2.8,1.4,7,2.79,9,2.4.4-.05.78-.17,1.16-.23a19.5,19.5,0,0,0,3.74-1.64l26.05-16.89,2.23-1.45,23.82-15.44c1.12-.65,3.73-3,3.73-4.11,0-.32,1.24-1.93,1.23-3,1.07-2.58,3.74-7,2.17-9.53C149.4,196.38,149.35,194.3,149,194.1Z"/><path class="cls-10" d="M148,196c-.52.09-2.38-.35-2.86-.24-3.82.24-7.71,7.38-9.93,7.69a27.29,27.29,0,0,0-4.74,1.92l-26.52,15.31L77.37,236c-.8.46-3.54,2.46-3.63,3.25q-.15.23-.27.45c-.93,1.75-.13,3.8,2.29,5.19,0,0,1.57,1,2.25,1.33,2.64,1.33,6.57,2.51,8.56,2.06.38-.07.74-.19,1.09-.27a23.1,23.1,0,0,0,3.51-1.64l24.69-16.08,2.12-1.38,22.58-14.7c.89-.51,3.71-2.85,3.71-3.76,0-.26,1.44-1.85,1.43-2.67,1.25-2.29,4.4-6.4,2.68-8.71C148.24,198.31,148.26,196.14,148,196Z"/><path class="cls-11" d="M147,197.87c-.6.1-2.19-.2-2.74-.06-4,.47-7.76,6.4-9.89,6.76a34.12,34.12,0,0,0-4.46,2l-25.22,14.56L79.4,235.68c-.6.35-3.54,2.36-3.61,2.95a3.69,3.69,0,0,0-.29.4c-1.08,1.61-.39,3.59,2,4.94,0,0,1.6,1,2.11,1.29,2.48,1.26,6.14,2.23,8.13,1.71.36-.07.69-.21,1-.29A27.82,27.82,0,0,0,92,245l23.34-15.26,2-1.31,21.34-13.95c.67-.39,3.68-2.74,3.68-3.42,0-.19,1.65-1.76,1.64-2.38,1.43-2,5-5.82,3.2-7.88A23.52,23.52,0,0,0,147,197.87Z"/><path class="cls-12" d="M146,199.75c-.67.11-2,0-2.62.13-4.25.69-7.91,5-9.83,5.83a29.76,29.76,0,0,0-4.18,2l-23.92,13.8-24,13.85c-.4.23-3.54,2.25-3.58,2.65a3.61,3.61,0,0,0-.33.35c-1.23,1.47-.65,3.38,1.61,4.68,0,0,1.64,1.08,2,1.26,2.34,1.2,5.72,1.95,7.72,1.37.33-.09.64-.24,1-.32s2.77-1.52,3-1.67l22-14.45,1.89-1.24,20.1-13.2c.45-.26,3.66-2.63,3.66-3.09,0-.12,1.85-1.67,1.84-2.08,1.61-1.71,5.7-5.25,3.71-7.06C145.92,202.18,146.1,199.83,146,199.75Z"/><path class="cls-13" d="M145,201.63c-.75.13-1.81.14-2.5.31-4.46.92-8,4-9.79,4.9-.23,0-3.73,1.95-3.9,2l-22.61,13.06L83.46,235a38.46,38.46,0,0,0-3.56,2.34,3.65,3.65,0,0,0-.36.31c-1.38,1.32-.91,3.17,1.28,4.43,0,0,1.66,1.13,1.83,1.21,2.18,1.14,5.29,1.68,7.29,1a6.33,6.33,0,0,0,.89-.35c.17,0,2.66-1.61,2.79-1.69l20.63-13.63,1.77-1.17,18.87-12.46a32.5,32.5,0,0,0,3.63-2.74,20.66,20.66,0,0,0,2-1.79c1.79-1.43,6.36-4.67,4.22-6.23C144.76,204.12,145,201.67,145,201.63Z"/><path d="M91.88,242.69l23.49-15.62,23.49-15.61c2-1.14,7-4.1,4.74-5.41l.33-2.54A36.29,36.29,0,0,0,131.81,208l-24.93,14.39L82,236.76c-2,1.14-1.73,3.12.55,4.44l1.69,1.17C86.47,243.68,89.91,243.83,91.88,242.69Z"/></g><path class="cls-114" d="M107.52,203.25a6,6,0,0,1-2.74,4.72c-1.51.88-2.74.18-2.74-1.56a6,6,0,0,1,2.74-4.72C106.29,200.82,107.52,201.51,107.52,203.25Z"/><path class="cls-115" d="M114.58,199.24a6,6,0,0,1-2.74,4.73c-1.51.87-2.73.17-2.73-1.57a6,6,0,0,1,2.73-4.72C113.36,196.81,114.58,197.51,114.58,199.24Z"/><path class="cls-116" d="M121.64,195.24a6,6,0,0,1-2.73,4.72c-1.52.87-2.74.17-2.74-1.56a6,6,0,0,1,2.74-4.73C120.42,192.8,121.64,193.5,121.64,195.24Z"/><path class="cls-117" d="M128.71,191.23A6,6,0,0,1,126,196c-1.51.87-2.74.18-2.74-1.56a6,6,0,0,1,2.74-4.72C127.48,188.79,128.71,189.49,128.71,191.23Z"/><path class="cls-118" d="M135.77,187.22a6,6,0,0,1-2.74,4.72c-1.51.88-2.74.18-2.74-1.56a6,6,0,0,1,2.74-4.72C134.54,184.79,135.77,185.49,135.77,187.22Z"/><path class="cls-119" d="M112.72,48.37l6,3.46V49.91l-6-3.47Zm.34,9.06,8.5,4.91V60.41l-8.5-4.9Zm.78-4L121,57.56V55.64l-7.12-4.12Zm-2.49-7.79-7.21-4.16v1.92l7.21,4.16Zm13.3,3.25-5.84-3.37v1.92l5.84,3.37Zm-17.42,5.16,4.46,2.58V54.72l-4.46-2.58Zm5.32,5.58-2.06-1.19v1.92l2.06,1.19Zm-2.23-17.09,7.12,4.11V44.74l-7.12-4.12Zm-7.56-1.85L98.3,38.12V40l4.46,2.58Zm2.75,23.74-9.27-5.35V61l9.27,5.36ZM108.34,37l8.5,4.91V40l-8.5-4.91Zm-8.5,17.26,9.27,5.35V57.66l-9.27-5.35ZM109,48.75l-9.27-5.36v1.92L109,50.67Zm-2.15-8.19,2.06,1.19V39.83l-2.06-1.19Zm-4.38-7L107,36.18V34.26l-4.47-2.58ZM97.78,57.47l3.35,1.94V57.48l-3.35-1.93Zm8.07-6.12-3.35-1.94v1.92l3.35,1.94Zm20.69,13.86,1.56.9V64.19l-1.56-.9ZM97.78,29v1.92l3.35,1.93V30.89Zm14.68,21.77-2.06-1.19v1.92l2.06,1.19Zm9.87,7.62,5.77,3.33V59.76l-5.77-3.33Zm-3.52,15.7,5.84,3.37V75.5l-5.84-3.37Zm-5,8.94L121,87.11V85.19l-7.12-4.12ZM96.24,34.42l9.27,5.35V37.85L96.24,32.5Zm26.69,26.79v1.92l2.24,1.29V62.5Zm-16-.36-4.47-2.57V60.2L107,62.78Zm2,5.58-2.06-1.19v1.92l2.06,1.19Zm7.9.12-8.5-4.9v1.92l8.5,4.9Zm3.26-13.92,1.66,1V51.71l-1.66-1Zm2.32,14.63,5.68,3.28V68.62l-5.68-3.28Zm.72-12.84,5,2.82V55.32l-5-2.82ZM126,51.61l2.08,1.2V50.89L126,49.69ZM98.38,72.15l-5.2-3v1.92l5.2,3Zm4.38-2.94V67.29L98.3,64.71v1.92ZM96.92,37.33l-3.74-2.17v1.92l3.74,2.17Zm0,26.59-3.74-2.16v1.92l3.74,2.16ZM93.18,75.5l7.95,4.59V78.17l-7.95-4.59Zm3.23-20.74-3.23-1.87v1.92l3.23,1.87Zm2.06-3.24-5.29-3.06v1.92l5.29,3.06Zm-.09-8.92-5.2-3v1.92l5.2,3Zm2.75,6L93.18,44V46l7.95,4.59ZM94.86,58.3l-1.68-1v1.92l1.68,1Zm27.47,29.6,5.77,3.33V89.31L122.33,86ZM110.4,81l2.06,1.19V80.28l-2.06-1.19Zm8.33-4.5-6-3.47V75l6,3.47ZM102.5,80.88l3.35,1.94V80.9L102.5,79Zm15.71-11.61L122.93,72V70.07l-4.72-2.72Zm6.1,3.52L128.1,75V73.05l-3.79-2.18Zm-3.26-8.24-7.13-4.11v1.92l7.13,4.11Zm5,13.66,2.08,1.2V77.49L126,76.29Zm-8.58-6.88-7.12-4.11v1.92l7.12,4.11ZM99.76,74.86,109,80.22V78.3l-9.27-5.36Zm11.59-2.61-7.21-4.17V70l7.21,4.16ZM96.41,28.16,93.18,26.3v1.92l3.23,1.86Zm2.06-4.72-5.29-3.05v1.92l5.29,3.05ZM94.86,31.7l-1.68-1v1.92l1.68,1Zm14.25-2.11-9.27-5.35v1.92l9.27,5.35Zm15.2,14.68v1.92l3.79,2.19V46.46Zm-11.76-12.7-2.06-1.19V32.3l2.06,1.19Zm5.66,11.1,4.72,2.73V43.48l-4.72-2.73Zm2.84-6.19-7.13-4.12v1.92l7.13,4.12Z"/><path class="cls-119" d="M73.55,138.66l8.5,4.91v-1.92l-8.5-4.91Zm.77-4,7.13,4.12v-1.92l-7.13-4.12Zm-6.61.62,4.46,2.58V136l-4.46-2.58ZM73,140.87,71,139.68v1.93L73,142.8Zm-7,4.81-9.27-5.36v1.92L66,147.6Zm-5.66-10.22,9.27,5.35v-1.92l-9.27-5.35ZM69.51,130l-9.27-5.36v1.93l9.27,5.35ZM58.27,138.7l3.35,1.94v-1.92l-3.35-1.94Zm8.07-6.12L63,130.64v1.92l3.35,1.94ZM87,146.44l1.56.9v-1.92l-1.56-.9ZM73,132l-2.06-1.19v1.92L73,133.88Zm9.87,7.62,5.76,3.33V141l-5.76-3.33Zm-3.52,15.7,5.84,3.37v-1.92l-5.84-3.37Zm4.12-12.84v1.92l2.23,1.29v-1.92Zm-16-.35L63,139.51v1.92L67.45,144Zm2,5.57-2.06-1.19v1.92l2.06,1.19Zm7.89.12-8.49-4.9v1.92l8.49,4.91Zm5.58.71,5.68,3.28v-1.92l-5.68-3.28Zm-19.65,1.95v-1.92l-4.47-2.58v1.93Zm-5.84-5.29L53.67,143v1.92l3.74,2.16Zm-3.74-34.21,7.95,4.59v-1.92L53.67,109ZM56.89,136l-3.22-1.87v1.93l3.22,1.86ZM59,132.75l-5.29-3.06v1.92L59,134.67Zm-.09-8.92-5.2-3v1.92l5.2,3Zm2.75,6-7.95-4.59v1.92l7.95,4.59Zm-6.27,9.68-1.68-1v1.92l1.68,1Zm23.86,18.21-6-3.47v1.92l6,3.47ZM63,116.33l3.35,1.93v-1.92L63,114.41ZM78.7,150.5l4.72,2.72V151.3l-4.72-2.72ZM84.79,154l3.79,2.19v-1.93l-3.79-2.18Zm-3.26-8.24-7.12-4.11v1.92l7.12,4.11Zm5,13.66,2.07,1.2v-1.92l-2.07-1.2Zm-8.58-6.88-7.13-4.11v1.92l7.13,4.11Zm-6.1.92-7.21-4.17v1.93l7.21,4.16ZM59,116,53.67,113v1.92L59,117.93Zm10.64,6.15-9.27-5.35v1.92l9.27,5.35Zm3.43,2L71,123v1.92L73,126.06Zm8.5,4.91-7.12-4.12v1.92L81.53,131Z"/><g class="cls-120"><path class="cls-121" d="M92.72,118.52a.63.63,0,0,1-.2-.2.6.6,0,0,1-.08-.28v-1.26a.35.35,0,0,1,.08-.26.56.56,0,0,1,.27-.11l3.39-.65-3.39-4.56a4.54,4.54,0,0,1-.27-.42,1,1,0,0,1-.08-.38v-1.24a.23.23,0,0,1,.08-.21.25.25,0,0,1,.2,0,1,1,0,0,1,.28.31l4.75,6.46a2.72,2.72,0,0,1,.32.52,1.12,1.12,0,0,1,.09.44v.38a.5.5,0,0,1-.1.33.6.6,0,0,1-.31.15l-4.75,1A.31.31,0,0,1,92.72,118.52Z"/><path class="cls-121" d="M90.56,119.51l-.91-.53a.84.84,0,0,1-.29-.27.93.93,0,0,1-.14-.31l-4.8-15.91a.62.62,0,0,1,0-.19.17.17,0,0,1,.29-.17l.91.52a.9.9,0,0,1,.28.27,1.3,1.3,0,0,1,.17.33l4.76,15.89a.68.68,0,0,1,0,.19.23.23,0,0,1-.08.2A.21.21,0,0,1,90.56,119.51Z"/><path class="cls-121" d="M82.53,112.64a1.11,1.11,0,0,1-.28-.29l-4.75-6.48a2.63,2.63,0,0,1-.31-.5,1.13,1.13,0,0,1-.1-.44v-.38a.48.48,0,0,1,.1-.34.53.53,0,0,1,.31-.15l4.75-1a.31.31,0,0,1,.28,0,.57.57,0,0,1,.28.5v1.24a.39.39,0,0,1-.08.28.56.56,0,0,1-.27.11l-3.39.65,3.39,4.56a4.54,4.54,0,0,1,.27.42.9.9,0,0,1,.08.36v1.26c0,.09,0,.16-.08.18A.21.21,0,0,1,82.53,112.64Z"/></g><g class="cls-122"><path class="cls-121" d="M58.52,160.59,45.38,153a1.48,1.48,0,0,0-.73-.22c-.65,0-1.11.6-1.11,1.61v7.18a4.36,4.36,0,0,0,1.84,3.5l13.14,7.59a1.48,1.48,0,0,0,.73.22c.65,0,1.11-.6,1.11-1.61V164.1A4.4,4.4,0,0,0,58.52,160.59Zm1.13,9.6-15.4-8.9v-5.82l15.4,8.9Zm-4.21-5.73-7-4v1l7,4Z"/></g><path class="cls-123" d="M38.55,92.31a17.14,17.14,0,0,0-3.88-4.53V82.46a5.54,5.54,0,0,1,1.42,3l3,1.28a10.53,10.53,0,0,0-4.42-7.29V78.1l-1.72-1v1.35c-1.36-.63-2.45-.68-3.27-.14a3.37,3.37,0,0,0-1.23,3,9.65,9.65,0,0,0,1.09,4.38A14.84,14.84,0,0,0,33,90v5.71a7.6,7.6,0,0,1-1.16-1.82,8.36,8.36,0,0,1-.72-2.29L28,90.21a13.21,13.21,0,0,0,1.64,5.09A11.63,11.63,0,0,0,33,99v2.48l1.72,1V99.91c1.54.63,2.74.64,3.61,0s1.3-1.76,1.3-3.4A9.19,9.19,0,0,0,38.55,92.31ZM33,86.13a6,6,0,0,1-1.15-1.66,3.71,3.71,0,0,1-.38-1.56,1.63,1.63,0,0,1,.41-1.2A1.2,1.2,0,0,1,33,81.42Zm3.17,10.66a1.46,1.46,0,0,1-1.45.11V91.59a6.78,6.78,0,0,1,1.53,1.9,4,4,0,0,1,.47,1.84A1.75,1.75,0,0,1,36.12,96.79Z"/><path class="cls-124" d="M51.74,44.56A3.32,3.32,0,0,1,50.23,42V32.78a1,1,0,0,1,.55-1L25.46,18.44V30.83L59.8,49.21Z"/><path class="cls-125" d="M31.45,100.63V98.15a11.63,11.63,0,0,1-3.33-3.68,13.21,13.21,0,0,1-1.64-5.1l5,2.23V89.18A14.74,14.74,0,0,1,28,84.9,9.58,9.58,0,0,1,27,80.53a3.37,3.37,0,0,1,1.23-3c.82-.54,1.91-.5,3.27.13V76.4L0,58.24V82.73l32.26,18.62v-.25Z"/><path class="cls-126" d="M44.12,165.28a3.46,3.46,0,0,1-1.56-2.7v-9.52a1,1,0,0,1,.57-1L16.86,138.19V151L52.47,170.1Z"/><path class="cls-127" d="M57,21.13l35.5,20.24V39.45L57,19.21Zm0-4.43,35.5,20.24V35L57,14.78Zm0-4.44,35.5,20.25V30.59L57,10.34ZM57,0V1.92l35.5,20.25V20.24Zm0,25.56,35.5,20.25V43.88L57,23.64ZM57,7.83l35.5,20.25V26.15L57,5.91ZM57,30l35.5,20.25V48.32L57,28.07Zm0,25.12,35.5,20.25V73.43L57,53.19Zm0-11.82,35.5,20.25V61.61L57,41.37Zm0,7.39,35.5,20.24V69L57,48.76Zm0-11.82L92.45,59.1V57.18L57,36.94Zm0-4.43,35.5,20.24V52.75L57,32.51Z"/><g class="cls-128"><path class="cls-129" d="M31.41,109.68l20.83,12.14V119.9L31.41,107.76Zm0,4.44,20.83,12.14v-1.92L31.41,112.2Zm0-12.31L52.24,114V112L31.41,99.89Zm0-5.85v1.92L52.24,110V108.1Zm0,27,20.83,12.14V133.2L31.41,121.06Zm0,8.87L52.24,144v-1.92L31.41,129.93Zm0-13.3,20.83,12.14v-1.92L31.41,116.63Zm0,8.86,20.83,12.14v-1.92L31.41,125.49Z"/></g><path class="cls-130" d="M59.14,74c0,.07,0,.15,0,0Z"/><polygon class="cls-131" points="57.99 72.49 59.72 71.03 59.72 70.99 56.94 69.79 56.87 67.82 59.63 69.83 59.63 69.78 57.99 66.5 58.95 66.42 33.2 52.39 32.53 59.4 58.72 73.58 58.76 73.49 57.99 72.49"/><path class="cls-132" d="M76,105.19a3.45,3.45,0,0,1-.31-.5,1.22,1.22,0,0,1-.1-.45v-.38a.49.49,0,0,1,.1-.34.53.53,0,0,1,.31-.15l4.75-1a.25.25,0,0,1,.12,0L62.13,92.51v9.17l18.61,10Z"/><g class="cls-120"><path class="cls-121" d="M63.05,69.31,61.27,71v0l2.84,1.21v1.46l-2.84-2v0l1.8,3.63-1.18.09-1.13-3.67,0,0L59.5,74.07l-1.07-1.39,1.79-1.6v0l-2.78-1.2V68.37l2.76,2v0l-1.77-3.66,1.15-.09,1.16,3.67,0,0,1.15-2.35Z"/><path class="cls-121" d="M70.85,73.81l-1.78,1.67v0l2.83,1.21v1.46l-2.83-2v0l1.8,3.63-1.18.09-1.13-3.67,0,0L67.3,78.58l-1.07-1.4L68,75.58v0l-2.78-1.2V72.88l2.77,2v0l-1.77-3.65,1.15-.1,1.16,3.67,0,0,1.14-2.36Z"/><path class="cls-121" d="M78.65,78.32,76.87,80v0l2.83,1.21V82.7l-2.83-2v0l1.8,3.63-1.18.1-1.13-3.67,0,0L75.1,83.08,74,81.68l1.78-1.6v0L73,78.85V77.38l2.76,2v0L74,75.69l1.14-.09,1.17,3.67,0,0,1.14-2.36Z"/><path class="cls-121" d="M86.45,82.82l-1.79,1.66v0l2.84,1.2V87.2l-2.84-2v0l1.81,3.62-1.19.1-1.12-3.67,0,0L82.9,87.58l-1.07-1.39,1.78-1.6v0l-2.78-1.19V81.88l2.76,2v0l-1.76-3.65L83,80.1l1.17,3.67,0,0,1.14-2.36Z"/><path class="cls-121" d="M94.25,87.32,92.46,89v0l2.84,1.21V91.7l-2.84-2v0l1.81,3.63-1.19.09L92,89.77l0,0L90.7,92.08l-1.08-1.39,1.79-1.6v0l-2.78-1.2V86.38l2.76,2v0l-1.77-3.65,1.15-.09,1.17,3.67,0,0,1.15-2.35Z"/></g><g class="cls-122"><path class="cls-121" d="M52,32l7.68,12,7.69-3.14h0a2.82,2.82,0,0,0-.91-.88L52.91,32.15A1.18,1.18,0,0,0,52,32Z"/><path class="cls-121" d="M67.4,40.89l-7.71,4.39-2.18-3.76L52,43.76l0,0,5.12-2.92L52,32c-.35.11-.57.47-.57,1v9.18a3.33,3.33,0,0,0,1.5,2.6l13.56,7.83c.83.48,1.51.09,1.51-.86V42.57A3.15,3.15,0,0,0,67.4,40.89Zm0,11.75L61.87,44l.41-.23,5.12,8.82Z"/></g></g></g></g></svg>