<svg xmlns="http://www.w3.org/2000/svg" xmlns:xlink="http://www.w3.org/1999/xlink" viewBox="0 0 331.29 323.12"><defs><style>.cls-1{isolation:isolate;}.cls-101,.cls-2,.cls-20{opacity:0.2;}.cls-3{opacity:0;}.cls-4{opacity:0.09;}.cls-5{opacity:0.18;}.cls-6{opacity:0.27;}.cls-7{opacity:0.36;}.cls-8{opacity:0.45;}.cls-9{opacity:0.55;}.cls-10{opacity:0.64;}.cls-11{opacity:0.73;}.cls-12{opacity:0.82;}.cls-13{opacity:0.91;}.cls-14{fill:url(#linear-gradient);}.cls-15{fill:url(#linear-gradient-2);}.cls-16{fill:url(#linear-gradient-3);}.cls-17{fill:#fff;}.cls-18,.cls-82{opacity:0.8;}.cls-18{fill:url(#linear-gradient-4);}.cls-19{fill:url(#linear-gradient-5);}.cls-20{fill:url(#linear-gradient-6);}.cls-21{opacity:0.27;fill:url(#linear-gradient-7);}.cls-22{opacity:0.35;fill:url(#linear-gradient-8);}.cls-23{opacity:0.42;fill:url(#linear-gradient-9);}.cls-24{opacity:0.49;fill:url(#linear-gradient-10);}.cls-25{opacity:0.56;fill:url(#linear-gradient-11);}.cls-26{opacity:0.64;fill:url(#linear-gradient-12);}.cls-27{opacity:0.71;fill:url(#linear-gradient-13);}.cls-28{opacity:0.78;fill:url(#linear-gradient-14);}.cls-29{opacity:0.85;fill:url(#linear-gradient-15);}.cls-30{opacity:0.93;fill:url(#linear-gradient-16);}.cls-31{fill:url(#New_Gradient_Swatch_copy_7);}.cls-32{fill:url(#linear-gradient-17);}.cls-33{opacity:0.3;fill:url(#linear-gradient-18);}.cls-104,.cls-33,.cls-81,.cls-96{mix-blend-mode:screen;}.cls-101,.cls-103,.cls-34,.cls-40,.cls-86,.cls-91{mix-blend-mode:multiply;}.cls-34{fill:url(#linear-gradient-19);}.cls-35{fill:url(#New_Gradient_Swatch_copy_25);}.cls-36{fill:url(#linear-gradient-20);}.cls-37{fill:url(#linear-gradient-21);}.cls-38{fill:url(#New_Gradient_Swatch_copy_25-2);}.cls-39{fill:url(#linear-gradient-22);}.cls-40{fill:#f1f2f2;}.cls-41{fill:url(#linear-gradient-23);}.cls-42{fill:url(#linear-gradient-24);}.cls-43{fill:url(#linear-gradient-25);}.cls-44{fill:url(#linear-gradient-26);}.cls-45{fill:url(#linear-gradient-27);}.cls-46{fill:url(#linear-gradient-28);}.cls-47{fill:url(#linear-gradient-29);}.cls-48{fill:url(#linear-gradient-30);}.cls-49{fill:url(#linear-gradient-31);}.cls-50{fill:url(#linear-gradient-32);}.cls-51{fill:url(#linear-gradient-33);}.cls-52{fill:url(#linear-gradient-34);}.cls-53{fill:url(#linear-gradient-35);}.cls-54{fill:url(#linear-gradient-36);}.cls-55{fill:url(#linear-gradient-37);}.cls-56{fill:url(#linear-gradient-38);}.cls-57{fill:url(#linear-gradient-39);}.cls-58{fill:url(#linear-gradient-40);}.cls-59{fill:url(#linear-gradient-41);}.cls-60{fill:url(#linear-gradient-42);}.cls-61{fill:url(#linear-gradient-43);}.cls-62{fill:url(#linear-gradient-44);}.cls-63{fill:url(#linear-gradient-45);}.cls-64{fill:url(#linear-gradient-46);}.cls-65{fill:url(#linear-gradient-47);}.cls-66{fill:url(#linear-gradient-48);}.cls-67{fill:url(#linear-gradient-49);}.cls-68{fill:url(#linear-gradient-50);}.cls-69{fill:url(#linear-gradient-51);}.cls-70{fill:url(#linear-gradient-52);}.cls-71{fill:url(#linear-gradient-53);}.cls-72{fill:url(#linear-gradient-54);}.cls-73{fill:url(#linear-gradient-55);}.cls-74{fill:url(#linear-gradient-56);}.cls-75{fill:url(#linear-gradient-57);}.cls-76{fill:url(#linear-gradient-58);}.cls-77{fill:url(#linear-gradient-59);}.cls-78{fill:url(#linear-gradient-60);}.cls-79{fill:url(#linear-gradient-61);}.cls-80{fill:url(#linear-gradient-62);}.cls-81{fill:url(#linear-gradient-63);}.cls-83{fill:url(#New_Gradient_Swatch_copy_9);}.cls-84{fill:url(#New_Gradient_Swatch_copy_9-2);}.cls-85{fill:url(#New_Gradient_Swatch_copy_9-3);}.cls-86{fill:url(#linear-gradient-64);}.cls-87{fill:url(#New_Gradient_Swatch_copy_8);}.cls-117,.cls-118,.cls-120,.cls-121,.cls-88,.cls-93,.cls-98,.cls-99{mix-blend-mode:color-dodge;}.cls-89{fill:url(#Radial_Gradient_1);}.cls-90{fill:url(#Radial_Gradient_1-2);}.cls-91{fill:#e6cfc8;}.cls-92{fill:url(#New_Gradient_Swatch_copy_8-2);}.cls-93{fill:url(#Radial_Gradient_1-3);}.cls-94{fill:url(#linear-gradient-65);}.cls-95{fill:url(#linear-gradient-66);}.cls-96{fill:url(#radial-gradient);}.cls-97{fill:url(#linear-gradient-67);}.cls-98{fill:url(#radial-gradient-2);}.cls-99{fill:url(#radial-gradient-3);}.cls-100{fill:url(#linear-gradient-68);}.cls-101{fill:url(#radial-gradient-4);}.cls-102{fill:url(#New_Gradient_Swatch_copy_10);}.cls-103{fill:#eca30a;}.cls-103,.cls-117,.cls-118{opacity:0.7;}.cls-104{fill:url(#linear-gradient-69);}.cls-105{fill:url(#New_Gradient_Swatch_copy_10-2);}.cls-106{fill:url(#New_Gradient_Swatch_copy_10-3);}.cls-107{fill:#8b8c9e;}.cls-108{fill:url(#New_Gradient_Swatch_copy_9-4);}.cls-109{fill:url(#New_Gradient_Swatch_copy_9-5);}.cls-110{fill:url(#Radial_Gradient_1-4);}.cls-111{fill:url(#Radial_Gradient_1-5);}.cls-112{fill:url(#New_Gradient_Swatch_copy_36);}.cls-113{fill:url(#New_Gradient_Swatch_copy_36-2);}.cls-114{fill:url(#New_Gradient_Swatch_copy_36-3);}.cls-115{fill:url(#New_Gradient_Swatch_copy_36-4);}.cls-116{fill:url(#New_Gradient_Swatch_copy_36-5);}.cls-117,.cls-119,.cls-121{fill:#9f19ab;}.cls-120,.cls-121{opacity:0.5;}</style><linearGradient id="linear-gradient" x1="53.72" y1="237.74" x2="331.06" y2="237.74" gradientTransform="matrix(-1, 0, 0, 1, 359.27, 0)" gradientUnits="userSpaceOnUse"><stop offset="0.06" stop-color="#9f79b8"/><stop offset="0.26" stop-color="#a17bba"/><stop offset="0.36" stop-color="#a783bf"/><stop offset="0.43" stop-color="#b290c9"/><stop offset="0.49" stop-color="#c1a1d5"/><stop offset="0.51" stop-color="#c4a5d7"/><stop offset="0.52" stop-color="#cdb3dd"/><stop offset="0.53" stop-color="#dbc8e7"/><stop offset="0.55" stop-color="#efe7f4"/><stop offset="0.56" stop-color="#fff"/><stop offset="0.57" stop-color="#ece0f3"/><stop offset="0.58" stop-color="#ddc8ea"/><stop offset="0.59" stop-color="#d4b9e5"/><stop offset="0.6" stop-color="#d1b4e3"/><stop offset="0.66" stop-color="#b395d6"/><stop offset="0.72" stop-color="#9c7dcb"/><stop offset="0.77" stop-color="#8e6ec5"/><stop offset="0.81" stop-color="#8969c3"/><stop offset="1" stop-color="#b086cc"/></linearGradient><linearGradient id="linear-gradient-2" x1="47.82" y1="230.47" x2="314.63" y2="230.47" gradientTransform="matrix(-1, 0, 0, 1, 359.27, 0)" gradientUnits="userSpaceOnUse"><stop offset="0" stop-color="#2f054a"/><stop offset="1" stop-color="#5824b0"/></linearGradient><linearGradient id="linear-gradient-3" x1="50.8" y1="230.48" x2="311.65" y2="230.48" gradientTransform="matrix(-1, 0, 0, 1, 359.27, 0)" gradientUnits="userSpaceOnUse"><stop offset="0" stop-color="#3d065f"/><stop offset="1" stop-color="#5f27bd"/></linearGradient><linearGradient id="linear-gradient-4" x1="252.23" y1="53.16" x2="-1982.91" y2="1246.43" gradientTransform="matrix(-0.87, 0.5, 0, 1.15, 351.63, -53.03)" gradientUnits="userSpaceOnUse"><stop offset="0.06" stop-color="#9f79b8"/><stop offset="0.26" stop-color="#a17bba"/><stop offset="0.37" stop-color="#a783bf"/><stop offset="0.45" stop-color="#b290c9"/><stop offset="0.51" stop-color="#c2a2d6"/><stop offset="0.56" stop-color="#d1b4e3"/><stop offset="0.66" stop-color="#b395d6"/><stop offset="0.75" stop-color="#9c7dcb"/><stop offset="0.84" stop-color="#8e6ec5"/><stop offset="0.92" stop-color="#8969c3"/></linearGradient><linearGradient id="linear-gradient-5" x1="249.85" y1="54.19" x2="-1985.28" y2="1247.45" gradientTransform="matrix(-0.87, 0.5, 0, 1.15, 351.63, -53.03)" xlink:href="#linear-gradient-3"/><linearGradient id="linear-gradient-6" x1="353" y1="101.55" x2="141.44" y2="163.78" gradientTransform="matrix(-1, 0, 0, 1, 359.27, 0)" gradientUnits="userSpaceOnUse"><stop offset="0" stop-color="#4916a1"/><stop offset="0.52" stop-color="#5f27bd"/><stop offset="1" stop-color="#b4299a"/></linearGradient><linearGradient id="linear-gradient-7" x1="323.37" y1="75.37" x2="172.01" y2="197.9" gradientTransform="matrix(-1, 0, 0, 1, 359.27, 0)" gradientUnits="userSpaceOnUse"><stop offset="0" stop-color="#4421a4"/><stop offset="0.04" stop-color="#4622a5"/><stop offset="0.33" stop-color="#512cb4"/><stop offset="0.52" stop-color="#5934c0"/><stop offset="1" stop-color="#a73ca3"/></linearGradient><linearGradient id="linear-gradient-8" x1="287.14" y1="71.98" x2="214.68" y2="205.96" gradientTransform="matrix(-1, 0, 0, 1, 359.27, 0)" gradientUnits="userSpaceOnUse"><stop offset="0" stop-color="#3f2ba6"/><stop offset="0.04" stop-color="#412ca8"/><stop offset="0.34" stop-color="#4c39b7"/><stop offset="0.52" stop-color="#5342c2"/><stop offset="1" stop-color="#9b4eac"/></linearGradient><linearGradient id="linear-gradient-9" x1="265.39" y1="34.4" x2="242.33" y2="261.19" gradientTransform="matrix(-1, 0, 0, 1, 359.27, 0)" gradientUnits="userSpaceOnUse"><stop offset="0" stop-color="#3a36a9"/><stop offset="0.04" stop-color="#3c37aa"/><stop offset="0.33" stop-color="#4645b9"/><stop offset="0.52" stop-color="#4d4fc5"/><stop offset="1" stop-color="#8e61b6"/></linearGradient><linearGradient id="linear-gradient-10" x1="223.37" y1="23.46" x2="301.94" y2="283.73" gradientTransform="matrix(-1, 0, 0, 1, 359.27, 0)" gradientUnits="userSpaceOnUse"><stop offset="0" stop-color="#3541ab"/><stop offset="0.04" stop-color="#3741ac"/><stop offset="0.33" stop-color="#4050bb"/><stop offset="0.52" stop-color="#475cc8"/><stop offset="1" stop-color="#8274bf"/></linearGradient><linearGradient id="linear-gradient-11" x1="185.55" y1="45.1" x2="361.37" y2="259.16" gradientTransform="matrix(-1, 0, 0, 1, 359.27, 0)" gradientUnits="userSpaceOnUse"><stop offset="0" stop-color="#304bae"/><stop offset="0.04" stop-color="#324caf"/><stop offset="0.32" stop-color="#3a5bbd"/><stop offset="0.52" stop-color="#4169ca"/><stop offset="1" stop-color="#7586c8"/></linearGradient><linearGradient id="linear-gradient-12" x1="172.9" y1="86.54" x2="386.9" y2="200.33" gradientTransform="matrix(-1, 0, 0, 1, 359.27, 0)" gradientUnits="userSpaceOnUse"><stop offset="0" stop-color="#2c56b0"/><stop offset="0.04" stop-color="#2c56b1"/><stop offset="0.29" stop-color="#3365be"/><stop offset="0.52" stop-color="#3b77cd"/><stop offset="1" stop-color="#6999d1"/></linearGradient><linearGradient id="linear-gradient-13" x1="172.49" y1="122.81" x2="394.4" y2="143.78" gradientTransform="matrix(-1, 0, 0, 1, 359.27, 0)" gradientUnits="userSpaceOnUse"><stop offset="0" stop-color="#2760b3"/><stop offset="0.04" stop-color="#2761b4"/><stop offset="0.28" stop-color="#2d70c0"/><stop offset="0.52" stop-color="#3584cf"/><stop offset="1" stop-color="#5cabda"/></linearGradient><linearGradient id="linear-gradient-14" x1="176.83" y1="155.24" x2="393.98" y2="88" gradientTransform="matrix(-1, 0, 0, 1, 359.27, 0)" gradientUnits="userSpaceOnUse"><stop offset="0" stop-color="#226bb5"/><stop offset="0.04" stop-color="#226bb6"/><stop offset="0.26" stop-color="#277ac1"/><stop offset="0.52" stop-color="#2f91d2"/><stop offset="1" stop-color="#50bee3"/></linearGradient><linearGradient id="linear-gradient-15" x1="201.85" y1="175.93" x2="355.26" y2="48.08" gradientTransform="matrix(-1, 0, 0, 1, 359.27, 0)" gradientUnits="userSpaceOnUse"><stop offset="0" stop-color="#1d76b8"/><stop offset="0.04" stop-color="#1d76b8"/><stop offset="0.25" stop-color="#2285c3"/><stop offset="0.52" stop-color="#299ed5"/><stop offset="1" stop-color="#43d1ed"/></linearGradient><linearGradient id="linear-gradient-16" x1="230.6" y1="179.57" x2="305.07" y2="37.08" gradientTransform="matrix(-1, 0, 0, 1, 359.27, 0)" gradientUnits="userSpaceOnUse"><stop offset="0" stop-color="#1880ba"/><stop offset="0.04" stop-color="#1880bb"/><stop offset="0.23" stop-color="#1c8fc5"/><stop offset="0.52" stop-color="#23acd7"/><stop offset="1" stop-color="#37e3f6"/></linearGradient><linearGradient id="New_Gradient_Swatch_copy_7" x1="249.28" y1="209.21" x2="269.94" y2="-27.46" gradientTransform="matrix(-1, 0, 0, 1, 359.27, 0)" gradientUnits="userSpaceOnUse"><stop offset="0.04" stop-color="#138bbd"/><stop offset="0.23" stop-color="#169ac7"/><stop offset="0.59" stop-color="#1fc3df"/><stop offset="1" stop-color="#2af6ff"/></linearGradient><linearGradient id="linear-gradient-17" x1="-591.74" y1="405.92" x2="-713.35" y2="313.99" gradientTransform="matrix(-0.87, 0.5, 1.5, 0.29, -942.29, 440.43)" gradientUnits="userSpaceOnUse"><stop offset="0" stop-color="#3d065f"/><stop offset="1" stop-color="#12054e"/><stop offset="1" stop-color="#10054d"/></linearGradient><linearGradient id="linear-gradient-18" x1="161.14" y1="169.17" x2="229.27" y2="276.08" gradientTransform="matrix(-1, 0, 0, 1, 359.27, 0)" gradientUnits="userSpaceOnUse"><stop offset="0.06" stop-color="#9f79b8"/><stop offset="0.25" stop-color="#a17bba"/><stop offset="0.35" stop-color="#a883c0"/><stop offset="0.42" stop-color="#b490cc"/><stop offset="0.48" stop-color="#c5a3dc"/><stop offset="0.54" stop-color="#dbbbf0"/><stop offset="0.56" stop-color="#e6c6fa"/><stop offset="0.6" stop-color="#d6b6f1"/><stop offset="0.69" stop-color="#b595dd"/><stop offset="0.77" stop-color="#9d7dcf"/><stop offset="0.85" stop-color="#8e6ec6"/><stop offset="0.92" stop-color="#8969c3"/></linearGradient><linearGradient id="linear-gradient-19" x1="281.15" y1="63.52" x2="224.65" y2="202.52" gradientTransform="matrix(-1, 0, 0, 1, 359.27, 0)" gradientUnits="userSpaceOnUse"><stop offset="0" stop-color="#fff"/><stop offset="1" stop-color="#b4299a"/></linearGradient><linearGradient id="New_Gradient_Swatch_copy_25" x1="297.21" y1="115.8" x2="365.55" y2="102.47" gradientTransform="matrix(-1, 0, 0, 1, 359.27, 0)" gradientUnits="userSpaceOnUse"><stop offset="0" stop-color="#25054d"/><stop offset="1" stop-color="#45108a"/></linearGradient><linearGradient id="linear-gradient-20" x1="224.58" y1="73.55" x2="255.87" y2="-12.61" gradientTransform="matrix(-1, 0, 0, 1, 359.27, 0)" gradientUnits="userSpaceOnUse"><stop offset="0.01" stop-color="#5b15a3"/><stop offset="0.28" stop-color="#4e51bb"/><stop offset="0.93" stop-color="#2ee5f8"/><stop offset="1" stop-color="#2af6ff"/></linearGradient><linearGradient id="linear-gradient-21" x1="4865.63" y1="163.53" x2="5182.06" y2="92.6" gradientTransform="translate(-4887.81)" xlink:href="#linear-gradient-3"/><linearGradient id="New_Gradient_Swatch_copy_25-2" x1="247.74" y1="233.04" x2="183.72" y2="-89.16" xlink:href="#New_Gradient_Swatch_copy_25"/><linearGradient id="linear-gradient-22" x1="308.23" y1="117.97" x2="149.56" y2="3.38" gradientTransform="matrix(-1, 0, 0, 1, 359.27, 0)" gradientUnits="userSpaceOnUse"><stop offset="0.03" stop-color="#7c1dc9"/><stop offset="0.28" stop-color="#6e41d2"/><stop offset="0.83" stop-color="#4c9ce9"/><stop offset="1" stop-color="#41b9f0"/></linearGradient><linearGradient id="linear-gradient-23" x1="284.42" y1="132.7" x2="286.19" y2="108.92" gradientTransform="matrix(-1, 0, 0, 1, 359.27, 0)" gradientUnits="userSpaceOnUse"><stop offset="0" stop-color="#7c1dc9"/><stop offset="0.04" stop-color="#8024ca"/><stop offset="0.37" stop-color="#a362d5"/><stop offset="0.65" stop-color="#bc8edd"/><stop offset="0.87" stop-color="#cbaae1"/><stop offset="1" stop-color="#d1b4e3"/></linearGradient><linearGradient id="linear-gradient-24" x1="274.83" y1="166.12" x2="287.09" y2="118.11" xlink:href="#linear-gradient-23"/><linearGradient id="linear-gradient-25" x1="257.23" y1="116.95" x2="259" y2="93.17" xlink:href="#linear-gradient-23"/><linearGradient id="linear-gradient-26" x1="247.64" y1="150.37" x2="259.9" y2="102.36" xlink:href="#linear-gradient-23"/><linearGradient id="linear-gradient-27" x1="230.05" y1="101.2" x2="231.81" y2="77.42" xlink:href="#linear-gradient-23"/><linearGradient id="linear-gradient-28" x1="220.45" y1="134.62" x2="232.72" y2="86.61" xlink:href="#linear-gradient-23"/><linearGradient id="linear-gradient-29" x1="202.86" y1="85.45" x2="204.63" y2="61.67" xlink:href="#linear-gradient-23"/><linearGradient id="linear-gradient-30" x1="193.27" y1="118.87" x2="205.53" y2="70.86" xlink:href="#linear-gradient-23"/><linearGradient id="linear-gradient-31" x1="175.67" y1="69.7" x2="177.44" y2="45.92" xlink:href="#linear-gradient-23"/><linearGradient id="linear-gradient-32" x1="166.08" y1="103.12" x2="178.34" y2="55.11" xlink:href="#linear-gradient-23"/><linearGradient id="linear-gradient-33" x1="284.42" y1="209.45" x2="286.19" y2="185.67" xlink:href="#linear-gradient-23"/><linearGradient id="linear-gradient-34" x1="274.83" y1="242.87" x2="287.09" y2="194.86" xlink:href="#linear-gradient-23"/><linearGradient id="linear-gradient-35" x1="257.23" y1="193.7" x2="259" y2="169.92" xlink:href="#linear-gradient-23"/><linearGradient id="linear-gradient-36" x1="247.64" y1="227.12" x2="259.9" y2="179.11" xlink:href="#linear-gradient-23"/><linearGradient id="linear-gradient-37" x1="230.05" y1="177.95" x2="231.81" y2="154.17" xlink:href="#linear-gradient-23"/><linearGradient id="linear-gradient-38" x1="220.45" y1="211.37" x2="232.72" y2="163.36" xlink:href="#linear-gradient-23"/><linearGradient id="linear-gradient-39" x1="202.86" y1="162.2" x2="204.63" y2="138.42" xlink:href="#linear-gradient-23"/><linearGradient id="linear-gradient-40" x1="193.27" y1="195.62" x2="205.53" y2="147.61" xlink:href="#linear-gradient-23"/><linearGradient id="linear-gradient-41" x1="175.67" y1="146.45" x2="177.44" y2="122.67" xlink:href="#linear-gradient-23"/><linearGradient id="linear-gradient-42" x1="166.08" y1="179.87" x2="178.34" y2="131.86" xlink:href="#linear-gradient-23"/><linearGradient id="linear-gradient-43" x1="284.42" y1="183.7" x2="286.19" y2="159.92" xlink:href="#linear-gradient-23"/><linearGradient id="linear-gradient-44" x1="274.83" y1="217.12" x2="287.09" y2="169.11" xlink:href="#linear-gradient-23"/><linearGradient id="linear-gradient-45" x1="257.23" y1="167.95" x2="259" y2="144.17" xlink:href="#linear-gradient-23"/><linearGradient id="linear-gradient-46" x1="247.64" y1="201.37" x2="259.9" y2="153.36" xlink:href="#linear-gradient-23"/><linearGradient id="linear-gradient-47" x1="230.05" y1="152.2" x2="231.81" y2="128.42" xlink:href="#linear-gradient-23"/><linearGradient id="linear-gradient-48" x1="220.45" y1="185.62" x2="232.72" y2="137.61" xlink:href="#linear-gradient-23"/><linearGradient id="linear-gradient-49" x1="202.86" y1="136.45" x2="204.63" y2="112.67" xlink:href="#linear-gradient-23"/><linearGradient id="linear-gradient-50" x1="193.27" y1="169.87" x2="205.53" y2="121.86" xlink:href="#linear-gradient-23"/><linearGradient id="linear-gradient-51" x1="175.67" y1="120.7" x2="177.44" y2="96.92" xlink:href="#linear-gradient-23"/><linearGradient id="linear-gradient-52" x1="166.08" y1="154.12" x2="178.34" y2="106.11" xlink:href="#linear-gradient-23"/><linearGradient id="linear-gradient-53" x1="284.42" y1="158.45" x2="286.19" y2="134.67" xlink:href="#linear-gradient-23"/><linearGradient id="linear-gradient-54" x1="274.83" y1="191.87" x2="287.09" y2="143.86" xlink:href="#linear-gradient-23"/><linearGradient id="linear-gradient-55" x1="257.23" y1="142.7" x2="259" y2="118.92" xlink:href="#linear-gradient-23"/><linearGradient id="linear-gradient-56" x1="247.64" y1="176.12" x2="259.9" y2="128.11" xlink:href="#linear-gradient-23"/><linearGradient id="linear-gradient-57" x1="230.05" y1="126.95" x2="231.81" y2="103.17" xlink:href="#linear-gradient-23"/><linearGradient id="linear-gradient-58" x1="220.45" y1="160.37" x2="232.72" y2="112.36" xlink:href="#linear-gradient-23"/><linearGradient id="linear-gradient-59" x1="202.86" y1="111.2" x2="204.63" y2="87.42" xlink:href="#linear-gradient-23"/><linearGradient id="linear-gradient-60" x1="193.27" y1="144.62" x2="205.53" y2="96.61" xlink:href="#linear-gradient-23"/><linearGradient id="linear-gradient-61" x1="175.67" y1="95.45" x2="177.44" y2="71.67" xlink:href="#linear-gradient-23"/><linearGradient id="linear-gradient-62" x1="166.08" y1="128.87" x2="178.34" y2="80.86" xlink:href="#linear-gradient-23"/><linearGradient id="linear-gradient-63" x1="264.27" y1="127.33" x2="296.38" y2="89.87" gradientTransform="matrix(-1, 0, 0, 1, 359.27, 0)" gradientUnits="userSpaceOnUse"><stop offset="0" stop-color="#43e8e1"/><stop offset="0.09" stop-color="#36bdb7"/><stop offset="0.22" stop-color="#288b87"/><stop offset="0.34" stop-color="#1c605d"/><stop offset="0.47" stop-color="#123e3c"/><stop offset="0.6" stop-color="#0a2321"/><stop offset="0.73" stop-color="#040f0f"/><stop offset="0.86" stop-color="#010404"/><stop offset="1"/></linearGradient><linearGradient id="New_Gradient_Swatch_copy_9" x1="321.54" y1="150.16" x2="352.65" y2="140.85" gradientTransform="matrix(-1, 0, 0, 1, 359.27, 0)" gradientUnits="userSpaceOnUse"><stop offset="0.04" stop-color="#9f19ab"/><stop offset="0.24" stop-color="#ae25b1"/><stop offset="0.65" stop-color="#d744bf"/><stop offset="1" stop-color="#ff63ce"/></linearGradient><linearGradient id="New_Gradient_Swatch_copy_9-2" x1="103.48" y1="154.21" x2="433.51" y2="80.22" xlink:href="#New_Gradient_Swatch_copy_9"/><linearGradient id="New_Gradient_Swatch_copy_9-3" x1="281.62" y1="77.62" x2="267.09" y2="105.32" xlink:href="#New_Gradient_Swatch_copy_9"/><linearGradient id="linear-gradient-64" x1="225.2" y1="93.46" x2="159.56" y2="187.17" gradientTransform="matrix(-1, 0, 0, 1, 359.27, 0)" gradientUnits="userSpaceOnUse"><stop offset="0" stop-color="#fff"/><stop offset="0.27" stop-color="#f4eef4"/><stop offset="0.79" stop-color="#d8c4d7"/><stop offset="1" stop-color="#ccb1cb"/></linearGradient><linearGradient id="New_Gradient_Swatch_copy_8" x1="165.21" y1="145.37" x2="174.94" y2="14.57" gradientTransform="matrix(-1, 0, 0, 1, 359.27, 0)" gradientUnits="userSpaceOnUse"><stop offset="0.04" stop-color="#ffa98c"/><stop offset="0.32" stop-color="#ffb892"/><stop offset="0.86" stop-color="#fee1a3"/><stop offset="1" stop-color="#feeca8"/></linearGradient><radialGradient id="Radial_Gradient_1" cx="140.11" cy="90.47" r="19.83" gradientTransform="matrix(-1, 0, 0, 1, 359.27, 0)" gradientUnits="userSpaceOnUse"><stop offset="0" stop-color="#fff"/><stop offset="1"/></radialGradient><radialGradient id="Radial_Gradient_1-2" cx="180.4" cy="133.65" r="35.74" xlink:href="#Radial_Gradient_1"/><linearGradient id="New_Gradient_Swatch_copy_8-2" x1="112.33" y1="336.9" x2="183.3" y2="59.08" xlink:href="#New_Gradient_Swatch_copy_8"/><radialGradient id="Radial_Gradient_1-3" cx="145.35" cy="153.71" r="57.56" xlink:href="#Radial_Gradient_1"/><linearGradient id="linear-gradient-65" x1="144.02" y1="116.02" x2="176.82" y2="173.76" gradientTransform="matrix(-1, 0, 0, 1, 359.27, 0)" gradientUnits="userSpaceOnUse"><stop offset="0.04" stop-color="#f7aa90"/><stop offset="0.18" stop-color="#f9b996"/><stop offset="0.47" stop-color="#ffe2a6"/><stop offset="0.48" stop-color="#ffe4a7"/><stop offset="0.74" stop-color="#f7aa90"/></linearGradient><linearGradient id="linear-gradient-66" x1="154.43" y1="129.16" x2="186.93" y2="169.19" gradientTransform="matrix(-1, 0, 0, 1, 359.27, 0)" gradientUnits="userSpaceOnUse"><stop offset="0.04" stop-color="#f7aa90"/><stop offset="0.28" stop-color="#f9b996"/><stop offset="0.76" stop-color="#ffe2a6"/><stop offset="0.78" stop-color="#ffe4a7"/><stop offset="0.87" stop-color="#f7aa90"/></linearGradient><radialGradient id="radial-gradient" cx="173.24" cy="144.11" r="36.73" gradientTransform="matrix(-1, 0, 0, 1, 359.27, 0)" gradientUnits="userSpaceOnUse"><stop offset="0.36" stop-color="#fff"/><stop offset="0.43" stop-color="#e1e1e1"/><stop offset="0.64" stop-color="#828282"/><stop offset="0.81" stop-color="#3c3c3c"/><stop offset="0.94" stop-color="#111"/><stop offset="1"/></radialGradient><linearGradient id="linear-gradient-67" x1="155.09" y1="119.59" x2="162.19" y2="258.54" gradientTransform="matrix(-1, 0, 0, 1, 359.27, 0)" gradientUnits="userSpaceOnUse"><stop offset="0" stop-color="#fff3a7"/><stop offset="0.11" stop-color="#fde8a0"/><stop offset="0.41" stop-color="#f8d092"/><stop offset="0.69" stop-color="#f5c18a"/><stop offset="0.92" stop-color="#f4bc87"/></linearGradient><radialGradient id="radial-gradient-2" cx="171.16" cy="184.42" r="30.09" gradientTransform="matrix(-1, 0, 0, 1, 359.27, 0)" gradientUnits="userSpaceOnUse"><stop offset="0" stop-color="#92402e"/><stop offset="1"/></radialGradient><radialGradient id="radial-gradient-3" cx="174.83" cy="184.52" r="15.3" gradientTransform="matrix(-1, 0, 0, 1, 359.27, 0)" gradientUnits="userSpaceOnUse"><stop offset="0" stop-color="#ff63ce"/><stop offset="1"/></radialGradient><linearGradient id="linear-gradient-68" x1="151.4" y1="97.54" x2="165.64" y2="224.74" xlink:href="#New_Gradient_Swatch_copy_8"/><radialGradient id="radial-gradient-4" cx="143.85" cy="-3104.37" r="21.03" gradientTransform="matrix(-1, 0, 0, 1.66, 359.27, 5322.26)" gradientUnits="userSpaceOnUse"><stop offset="0.14" stop-color="#25166d"/><stop offset="0.22" stop-color="#2c1d72"/><stop offset="0.34" stop-color="#3e317e"/><stop offset="0.48" stop-color="#5d5293"/><stop offset="0.64" stop-color="#887faf"/><stop offset="0.82" stop-color="#bebad4"/><stop offset="1" stop-color="#fff"/></radialGradient><linearGradient id="New_Gradient_Swatch_copy_10" x1="164.59" y1="157.92" x2="147.77" y2="146.55" gradientTransform="matrix(-1, 0, 0, 1, 359.27, 0)" gradientUnits="userSpaceOnUse"><stop offset="0.04" stop-color="#9d9eb3"/><stop offset="0.58" stop-color="#d4d1d8"/><stop offset="1" stop-color="#eeebf2"/></linearGradient><linearGradient id="linear-gradient-69" x1="128.64" y1="165.16" x2="126.62" y2="112.08" xlink:href="#linear-gradient-63"/><linearGradient id="New_Gradient_Swatch_copy_10-2" x1="60.49" y1="194.53" x2="173.86" y2="155.38" xlink:href="#New_Gradient_Swatch_copy_10"/><linearGradient id="New_Gradient_Swatch_copy_10-3" x1="106.12" y1="185.49" x2="251.05" y2="79.72" xlink:href="#New_Gradient_Swatch_copy_10"/><linearGradient id="New_Gradient_Swatch_copy_9-4" x1="119.48" y1="224.02" x2="64.68" y2="181.64" xlink:href="#New_Gradient_Swatch_copy_9"/><linearGradient id="New_Gradient_Swatch_copy_9-5" x1="72.38" y1="228.49" x2="104.92" y2="133.38" xlink:href="#New_Gradient_Swatch_copy_9"/><radialGradient id="Radial_Gradient_1-4" cx="91.01" cy="206.75" r="10.26" xlink:href="#Radial_Gradient_1"/><radialGradient id="Radial_Gradient_1-5" cx="79.22" cy="182.4" r="21.04" xlink:href="#Radial_Gradient_1"/><linearGradient id="New_Gradient_Swatch_copy_36" x1="-280.39" y1="-779.4" x2="-233.99" y2="-811.86" gradientTransform="matrix(-0.87, -0.5, 0, 1.15, 24.49, 963.58)" gradientUnits="userSpaceOnUse"><stop offset="0.1" stop-color="#45108a"/><stop offset="1" stop-color="#7c1dc9"/></linearGradient><linearGradient id="New_Gradient_Swatch_copy_36-2" x1="-277.68" y1="-775.53" x2="-231.28" y2="-807.99" xlink:href="#New_Gradient_Swatch_copy_36"/><linearGradient id="New_Gradient_Swatch_copy_36-3" x1="-274.97" y1="-771.66" x2="-228.57" y2="-804.12" xlink:href="#New_Gradient_Swatch_copy_36"/><linearGradient id="New_Gradient_Swatch_copy_36-4" x1="-272.26" y1="-767.79" x2="-225.86" y2="-800.25" xlink:href="#New_Gradient_Swatch_copy_36"/><linearGradient id="New_Gradient_Swatch_copy_36-5" x1="-269.56" y1="-763.92" x2="-223.15" y2="-796.37" xlink:href="#New_Gradient_Swatch_copy_36"/></defs><g class="cls-1"><g id="Layer_2" data-name="Layer 2"><g id="Layer_1-2" data-name="Layer 1"><g class="cls-2"><path class="cls-3" d="M148.08,323.12a28.19,28.19,0,0,0,14.1-3.4l149.4-86.25c5.14-3,8.09-7.67,8.09-12.9,0-5.72-3.55-11.06-9.74-14.63L225.14,157A34.71,34.71,0,0,0,208,152.63,28.36,28.36,0,0,0,193.9,156L44.51,242.28c-5.15,3-8.1,7.67-8.1,12.9,0,5.72,3.56,11.06,9.75,14.64L131,318.77A34.79,34.79,0,0,0,148.08,323.12Z"/><path class="cls-4" d="M224.77,157.63a34,34,0,0,0-17.08-4.23,32.47,32.47,0,0,0-7,.86,27.32,27.32,0,0,0-7,2.75L44.88,242.93c-5.12,3-7.79,7.64-7.48,12.73a15.13,15.13,0,0,0,.9,4.12c1.3,3.64,5,7.51,9.17,9.93L131.05,318a33.07,33.07,0,0,0,3.63,1.79,35.57,35.57,0,0,0,13.22,2.62,27.59,27.59,0,0,0,13.91-3.3l149.4-86.25c5.13-3,7.78-7.66,7.45-12.76a15.52,15.52,0,0,0-.71-3.55c-1.2-3.85-5-8-9.4-10.51Z"/><path class="cls-5" d="M224.39,158.28a33.21,33.21,0,0,0-17-4.11,32.27,32.27,0,0,0-6.94,1,32.83,32.83,0,0,0-6.91,2.84L45.26,243.58c-5.1,2.94-7.5,7.6-6.87,12.56a16.37,16.37,0,0,0,1.11,3.93c1.26,3.24,5.5,7.35,9.27,9.52l82.38,47.57a36,36,0,0,0,3.57,1.78,34.81,34.81,0,0,0,13,2.67,27,27,0,0,0,13.72-3.18l149.39-86.26c5.12-2.95,7.49-7.64,6.81-12.62a17.78,17.78,0,0,0-.9-3.38c-1.2-3.43-5.62-7.82-9.57-10.1Z"/><path class="cls-6" d="M224,158.93a31.8,31.8,0,0,0-23.87-2.9,36.88,36.88,0,0,0-6.83,2.93L45.63,244.23c-5.07,2.92-7.2,7.56-6.25,12.4a18.64,18.64,0,0,0,1.31,3.73c1.22,2.84,6,7.19,9.38,9.12l81.18,46.87c.85.49,2.57,1.39,3.51,1.78a34.49,34.49,0,0,0,12.77,2.73,26.47,26.47,0,0,0,13.53-3.08l149.4-86.26c5.1-2.94,7.19-7.62,6.16-12.48a21.5,21.5,0,0,0-1.1-3.22c-1.16-3-6.21-7.65-9.73-9.68Z"/><path class="cls-7" d="M223.65,159.57a30.72,30.72,0,0,0-23.76-2.65,45.23,45.23,0,0,0-6.77,3L46,244.87c-5,2.92-6.91,7.53-5.63,12.24a22.47,22.47,0,0,0,1.52,3.54c1.15,2.45,6.56,7,9.49,8.72l80,46.18c.74.42,2.63,1.42,3.44,1.77a34,34,0,0,0,12.56,2.79,25.8,25.8,0,0,0,13.34-3l149.39-86.25c5.1-2.94,6.92-7.61,5.53-12.35a31.47,31.47,0,0,0-1.3-3.06c-1.11-2.59-6.82-7.49-9.89-9.26Z"/><path class="cls-8" d="M223.27,160.22a29.68,29.68,0,0,0-23.65-2.41,54,54,0,0,0-6.69,3.1L46.38,245.52c-5,2.9-6.65,7.48-5,12.07A30,30,0,0,0,43.09,261c1,2.06,7.08,6.86,9.59,8.31l78.77,45.48c.63.37,2.68,1.46,3.38,1.77a33.37,33.37,0,0,0,12.34,2.84,25.19,25.19,0,0,0,13.15-2.87l149.39-86.25c5.08-2.93,6.64-7.58,4.88-12.2-.37-1-1-1.87-1.49-2.9-1-2.19-7.43-7.33-10.06-8.85Z"/><path class="cls-9" d="M222.9,160.87a30.31,30.31,0,0,0-16.83-3.62,30.81,30.81,0,0,0-6.72,1.45,70.86,70.86,0,0,0-6.61,3.18l-146,84.29c-5,2.88-6.38,7.44-4.41,11.91a13.13,13.13,0,0,0,1.95,3.16c.59,1.83,7.6,6.71,9.7,7.91l77.56,44.79c.53.3,2.74,1.5,3.32,1.76A33,33,0,0,0,147,318.6a24.58,24.58,0,0,0,12.95-2.76l149.4-86.26c5.06-2.92,6.38-7.56,4.23-12.06a13.1,13.1,0,0,0-1.69-2.74c-.54-1.94-8-7.17-10.22-8.44Z"/><path class="cls-10" d="M222.53,161.52a29.69,29.69,0,0,0-16.79-3.5,30.08,30.08,0,0,0-6.66,1.57c-.92.3-5.78,2.83-6.54,3.27l-145.42,84c-5,2.87-6.13,7.4-3.79,11.74a13.52,13.52,0,0,0,2.15,3c.48,1.47,8.14,6.55,9.81,7.51l76.36,44.09c.42.24,2.79,1.55,3.26,1.76a32.32,32.32,0,0,0,11.9,2.95,24,24,0,0,0,12.76-2.65L309,228.94c5.06-2.92,6.14-7.55,3.6-11.93a13.44,13.44,0,0,0-1.89-2.57c-.43-1.56-8.63-7-10.38-8Z"/><path class="cls-11" d="M222.15,162.16a29.11,29.11,0,0,0-16.73-3.38,30.19,30.19,0,0,0-6.6,1.7c-.69.24-5.91,3-6.47,3.36L47.5,247.46c-5,2.86-5.9,7.39-3.18,11.58a13.58,13.58,0,0,0,2.36,2.78c.36,1.1,8.66,6.39,9.92,7.11l75.15,43.39c.32.19,2.85,1.6,3.19,1.76a32.14,32.14,0,0,0,11.69,3,23.3,23.3,0,0,0,12.56-2.55l149.4-86.25c5-2.91,5.9-7.55,3-11.79a14.28,14.28,0,0,0-2.08-2.41c-.33-1.16-9.23-6.85-10.55-7.61Z"/><path class="cls-12" d="M221.78,162.81a28.59,28.59,0,0,0-16.69-3.26,29.46,29.46,0,0,0-6.54,1.82c-.46.16-6,3.22-6.4,3.44L47.87,248.11c-4.92,2.84-5.66,7.37-2.56,11.42a13.91,13.91,0,0,0,2.57,2.58c.24.74,9.18,6.23,10,6.71l73.95,42.7c.21.12,2.9,1.64,3.13,1.75a31.6,31.6,0,0,0,11.47,3.07c4.62.25,9.1-.56,12.37-2.45l149.4-86.25c5-2.9,5.67-7.55,2.31-11.65a14.36,14.36,0,0,0-2.29-2.24c-.21-.78-9.83-6.7-10.71-7.2Z"/><path class="cls-13" d="M221.4,163.46a27.88,27.88,0,0,0-16.63-3.14,29.38,29.38,0,0,0-6.49,1.94c-.22.09-6.13,3.42-6.32,3.53l-143.71,83c-4.91,2.83-5.44,7.36-2,11.25a14.82,14.82,0,0,0,2.78,2.39c.12.37,9.72,6.07,10.13,6.31l72.75,42,3.07,1.75a31.1,31.1,0,0,0,11.25,3.12c4.53.29,9-.48,12.18-2.33L307.84,227c5-2.89,5.45-7.57,1.67-11.51A15,15,0,0,0,307,213.4c-.11-.39-10.44-6.53-10.88-6.78Z"/><path d="M158.07,312.6l149.4-86.25c5.9-3.41,5.16-9.36-1.65-13.29L221,164.11c-6.81-3.94-17.12-4.36-23-1L48.62,249.41c-5.9,3.4-5.16,9.35,1.65,13.28l84.79,48.95C141.87,315.58,152.17,316,158.07,312.6Z"/></g><path class="cls-14" d="M158.07,312.46l149.4-86.25c2.63-1.52,3.94-3.54,4-5.67v-7.4c-.05-2.58-2,1.9-5.63-.22L221,164c-6.81-3.93-17.12-4.36-23-.95L48.62,249.27c-2,1.14-3.4-3.69-3.91-2.16-.17.52-.06,7.29-.07,7.82-.06,2.64,1.85,5.44,5.63,7.63l84.79,48.95C141.87,315.44,152.17,315.87,158.07,312.46Z"/><path class="cls-15" d="M158.07,305.2l149.4-86.26c5.9-3.4,5.16-9.35-1.65-13.28L221,156.71c-6.81-3.94-17.12-4.36-23-1L48.62,242c-5.9,3.41-5.16,9.36,1.65,13.29l84.79,49C141.87,308.18,152.17,308.6,158.07,305.2Z"/><path class="cls-16" d="M148.08,304.51a17.36,17.36,0,0,0,8.5-1.9L306,216.36c.93-.54,2.49-1.66,2.49-3.19s-1.55-3.43-4.15-4.93l-84.78-49A23.75,23.75,0,0,0,208,156.44a17.36,17.36,0,0,0-8.5,1.9L50.11,244.59c-.93.54-2.49,1.66-2.49,3.19s1.55,3.43,4.14,4.93l84.79,49A23.75,23.75,0,0,0,148.08,304.51Z"/><path class="cls-17" d="M50.27,254.06,135.06,303c6.81,3.93,17.11,4.36,23,.95l149.4-86.25c2.45-1.41,3.73-3.26,3.94-5.23.3,2.41-1,4.76-3.94,6.46L158.07,305.2c-5.9,3.4-16.2,3-23-1l-84.79-49c-4-2.3-5.87-5.29-5.59-8.06C45,249.63,46.87,252.1,50.27,254.06Z"/><path class="cls-18" d="M50.46,238.68,197.4,153.85a12.31,12.31,0,0,0,5.67-14.06l-32-110.73a12.3,12.3,0,0,0-18-7.25L6.15,106.64A12.32,12.32,0,0,0,.48,120.7l32,110.73A12.29,12.29,0,0,0,50.46,238.68Z"/><path class="cls-19" d="M52.52,238.68l146.94-84.83a12.32,12.32,0,0,0,5.67-14.06l-32-110.73a12.31,12.31,0,0,0-18-7.25L8.21,106.64A12.29,12.29,0,0,0,2.54,120.7l32,110.73A12.29,12.29,0,0,0,52.52,238.68Z"/><path class="cls-20" d="M46.39,236.23a8,8,0,0,0,4.07-1.11L197.4,150.29a8.18,8.18,0,0,0,3.78-9.36l-32-110.73a8.25,8.25,0,0,0-7.89-5.93,8.09,8.09,0,0,0-4.08,1.1L10.26,110.2a8.18,8.18,0,0,0-3.77,9.36l32,110.74A8.24,8.24,0,0,0,46.39,236.23Z"/><path class="cls-21" d="M46.54,235.94a8,8,0,0,0,4.06-1.1L197,150.31a8.13,8.13,0,0,0,3.76-9.32L168.86,30.59A8.21,8.21,0,0,0,161,24.68a8,8,0,0,0-4.06,1.1L10.53,110.31a8.13,8.13,0,0,0-3.76,9.32L38.68,230A8.21,8.21,0,0,0,46.54,235.94Z"/><path class="cls-22" d="M46.7,235.66a8,8,0,0,0,4-1.1l145.88-84.22a8.12,8.12,0,0,0,3.75-9.3L168.55,31a8.13,8.13,0,0,0-11.88-4.8L10.8,110.41a8.1,8.1,0,0,0-3.75,9.29L38.86,229.77A8.2,8.2,0,0,0,46.7,235.66Z"/><path class="cls-23" d="M46.85,235.37a8,8,0,0,0,4-1.09l145.35-83.92A8.08,8.08,0,0,0,200,141.1L168.25,31.37a8.16,8.16,0,0,0-7.81-5.87,8,8,0,0,0-4,1.09L11.06,110.51a8.08,8.08,0,0,0-3.73,9.26L39.05,229.5A8.14,8.14,0,0,0,46.85,235.37Z"/><path class="cls-24" d="M47,235.08A7.94,7.94,0,0,0,51,234l144.83-83.62a8.05,8.05,0,0,0,3.72-9.22L167.94,31.76a8.13,8.13,0,0,0-7.77-5.85,8,8,0,0,0-4,1.09L11.33,110.61a8.08,8.08,0,0,0-3.73,9.23l31.63,109.4A8.12,8.12,0,0,0,47,235.08Z"/><path class="cls-25" d="M47.16,234.8a8,8,0,0,0,4-1.09l144.29-83.3a8,8,0,0,0,3.7-9.19L167.64,32.15a8.11,8.11,0,0,0-7.75-5.83,8,8,0,0,0-4,1.09L11.59,110.71a8,8,0,0,0-3.71,9.19L39.41,229A8.11,8.11,0,0,0,47.16,234.8Z"/><path class="cls-26" d="M47.32,234.51a7.89,7.89,0,0,0,4-1.08l143.76-83a8,8,0,0,0,3.69-9.16L167.33,32.54a8.07,8.07,0,0,0-7.72-5.81,7.94,7.94,0,0,0-4,1.08l-143.76,83A8,8,0,0,0,8.16,120L39.6,228.71A8,8,0,0,0,47.32,234.51Z"/><path class="cls-27" d="M47.47,234.23a7.93,7.93,0,0,0,4-1.08l143.23-82.7a8,8,0,0,0,3.68-9.12L167,32.93a8,8,0,0,0-7.69-5.79,7.87,7.87,0,0,0-4,1.08L12.12,110.92A8,8,0,0,0,8.44,120l31.34,108.4A8,8,0,0,0,47.47,234.23Z"/><path class="cls-28" d="M47.63,233.94a7.88,7.88,0,0,0,4-1.07l142.7-82.39a8,8,0,0,0,3.67-9.09L166.72,33.32a8,8,0,0,0-7.67-5.76,7.88,7.88,0,0,0-4,1.07L12.39,111a8,8,0,0,0-3.67,9.09L40,228.18A8,8,0,0,0,47.63,233.94Z"/><path class="cls-29" d="M47.78,233.65a7.9,7.9,0,0,0,3.95-1.06L193.9,150.5a7.92,7.92,0,0,0,3.66-9.06L166.41,33.71A7.93,7.93,0,0,0,154.83,29L12.65,111.12A7.92,7.92,0,0,0,9,120.18L40.15,227.91A8,8,0,0,0,47.78,233.65Z"/><path class="cls-30" d="M47.94,233.37a7.77,7.77,0,0,0,3.93-1.07l141.64-81.78a7.87,7.87,0,0,0,3.64-9L166.1,34.1a7.94,7.94,0,0,0-7.6-5.72,7.8,7.8,0,0,0-3.93,1.06L12.92,111.22a7.88,7.88,0,0,0-3.64,9L40.33,227.65A8,8,0,0,0,47.94,233.37Z"/><path class="cls-31" d="M48.09,233.08A7.7,7.7,0,0,0,52,232l141.12-81.47a7.85,7.85,0,0,0,3.62-9L165.8,34.49a7.92,7.92,0,0,0-7.58-5.7,7.8,7.8,0,0,0-3.92,1.06L13.19,111.32a7.86,7.86,0,0,0-3.63,9L40.51,227.39A7.93,7.93,0,0,0,48.09,233.08Z"/><path class="cls-17" d="M8.21,106.64,155.14,21.81a12.25,12.25,0,0,1,8.43-1.43A12.18,12.18,0,0,0,156.1,22L9.17,106.78A12.29,12.29,0,0,0,3.5,120.84l32,110.73a12.26,12.26,0,0,0,9.54,8.68,12.28,12.28,0,0,1-10.5-8.82L2.54,120.7A12.29,12.29,0,0,1,8.21,106.64Z"/><path class="cls-32" d="M131.52,273.43l121.32-70.05c2.43-1.4,2.12-3.85-.68-5.47l-45.55-26.29c-2.8-1.62-7.05-1.8-9.47-.4l-121.32,70c-2.43,1.41-2.13,3.86.68,5.48L122.05,273C124.85,274.65,129.1,274.83,131.52,273.43Z"/><path class="cls-33" d="M204,174.67a4,4,0,0,0-3.57,0l-7.78,4.49a1.09,1.09,0,0,0,0,2.06,3.94,3.94,0,0,0,3.57,0l7.78-4.49A1.09,1.09,0,0,0,204,174.67Zm-13.31,7.69a3.94,3.94,0,0,0-3.57,0l-3.68,2.13c-1,.57-1,1.49,0,2.06a3.91,3.91,0,0,0,3.57,0l3.69-2.12A1.09,1.09,0,0,0,190.66,182.36Zm-9.22,5.32a3.94,3.94,0,0,0-3.57,0l-3.68,2.12c-1,.57-1,1.5,0,2.06a3.92,3.92,0,0,0,3.56,0l3.69-2.13A1.09,1.09,0,0,0,181.44,187.68ZM172.22,193a4,4,0,0,0-3.57,0L165,195.14c-1,.57-1,1.49,0,2.06a4,4,0,0,0,3.57,0l3.68-2.13A1.09,1.09,0,0,0,172.22,193ZM163,198.33a3.94,3.94,0,0,0-3.57,0l-3.68,2.13a1.09,1.09,0,0,0,0,2.06,3.94,3.94,0,0,0,3.57,0l3.68-2.12C164,199.81,164,198.89,163,198.33Zm-9.22,5.32a3.94,3.94,0,0,0-3.57,0l-3.68,2.13a1.09,1.09,0,0,0,0,2.06,3.91,3.91,0,0,0,3.57,0l3.68-2.12A1.09,1.09,0,0,0,153.78,203.65ZM144.56,209a3.94,3.94,0,0,0-3.57,0l-3.68,2.12a1.09,1.09,0,0,0,0,2.06,3.94,3.94,0,0,0,3.57,0l3.68-2.13C145.54,210.46,145.55,209.54,144.56,209Zm-9.22,5.32a4,4,0,0,0-3.57,0l-3.68,2.13a1.09,1.09,0,0,0,0,2.06,4,4,0,0,0,3.57,0l3.68-2.13C136.32,215.78,136.33,214.86,135.34,214.29Zm-9.22,5.33a3.92,3.92,0,0,0-3.56,0l-3.69,2.13a1.09,1.09,0,0,0,0,2.06,3.94,3.94,0,0,0,3.57,0l3.68-2.12C127.1,221.11,127.11,220.18,126.12,219.62Zm-9.21,5.32a3.94,3.94,0,0,0-3.57,0l-3.69,2.13a1.09,1.09,0,0,0,0,2.06,3.91,3.91,0,0,0,3.57,0l3.68-2.12C117.88,226.43,117.89,225.5,116.91,224.94Zm-9.22,5.32a3.94,3.94,0,0,0-3.57,0l-3.68,2.12c-1,.57-1,1.5,0,2.06a3.94,3.94,0,0,0,3.57,0l3.69-2.13A1.09,1.09,0,0,0,107.69,230.26Zm-9.22,5.32a4,4,0,0,0-3.57,0l-3.68,2.13c-1,.57-1,1.49,0,2.06a4,4,0,0,0,3.56,0l3.69-2.13A1.09,1.09,0,0,0,98.47,235.58ZM89.06,241a3.94,3.94,0,0,0-3.57,0l-3.68,2.13c-1,.57-1,1.49,0,2.06a3.92,3.92,0,0,0,3.56,0l3.69-2.12A1.09,1.09,0,0,0,89.06,241Zm123.2-61.56-3.17-1.83a4.5,4.5,0,0,0-4.06,0l-3.19,1.84c-1.12.65-1.13,1.7,0,2.34l3.17,1.83a4.47,4.47,0,0,0,4.06,0l3.19-1.84A1.24,1.24,0,0,0,212.26,179.46ZM199.84,189l3.19-1.84a1.24,1.24,0,0,0,0-2.35L199.87,183a4.5,4.5,0,0,0-4.06,0l-3.19,1.84a1.24,1.24,0,0,0,0,2.35l3.17,1.83A4.5,4.5,0,0,0,199.84,189Zm-6,1.14-3.17-1.83a4.47,4.47,0,0,0-4.06,0l-3.19,1.84a1.24,1.24,0,0,0,0,2.35l3.17,1.83a4.5,4.5,0,0,0,4.06,0l3.19-1.84C194.94,191.8,194.94,190.75,193.82,190.11Zm-9.22,5.32-3.16-1.83a4.49,4.49,0,0,0-4.07,0l-3.18,1.84c-1.13.65-1.13,1.7,0,2.34l3.17,1.83a4.47,4.47,0,0,0,4.06,0l3.19-1.84C185.72,197.12,185.72,196.07,184.6,195.43ZM165,203.11l3.17,1.83a4.47,4.47,0,0,0,4.06,0l3.19-1.84a1.24,1.24,0,0,0,0-2.35l-3.17-1.83a4.5,4.5,0,0,0-4.06,0L165,200.77C163.84,201.42,163.84,202.47,165,203.11Zm-9.21,5.33,3.16,1.83a4.52,4.52,0,0,0,4.07,0l3.18-1.84a1.24,1.24,0,0,0,0-2.35L163,204.24a4.5,4.5,0,0,0-4.06,0l-3.19,1.84A1.24,1.24,0,0,0,155.74,208.44Zm-9.22,5.32,3.16,1.83a4.52,4.52,0,0,0,4.07,0l3.18-1.84c1.13-.65,1.14-1.7,0-2.34l-3.17-1.83a4.47,4.47,0,0,0-4.06,0l-3.19,1.84A1.24,1.24,0,0,0,146.52,213.76Zm-9.22,5.32,3.17,1.83a4.47,4.47,0,0,0,4.06,0l3.19-1.84c1.12-.65,1.13-1.7,0-2.34l-3.17-1.83a4.47,4.47,0,0,0-4.06,0l-3.19,1.84C136.19,217.39,136.18,218.44,137.3,219.08Zm-9.22,5.32,3.17,1.83a4.47,4.47,0,0,0,4.06,0l3.19-1.84a1.24,1.24,0,0,0,0-2.35l-3.17-1.83a4.5,4.5,0,0,0-4.06,0l-3.19,1.84C127,222.71,127,223.76,128.08,224.4Zm-9.22,5.33,3.17,1.83a4.5,4.5,0,0,0,4.06,0l3.19-1.84a1.24,1.24,0,0,0,0-2.35l-3.17-1.83a4.5,4.5,0,0,0-4.06,0l-3.19,1.84A1.24,1.24,0,0,0,118.86,229.73Zm1.21,3-3.17-1.83a4.47,4.47,0,0,0-4.06,0l-3.19,1.84a1.24,1.24,0,0,0,0,2.35l3.17,1.83a4.5,4.5,0,0,0,4.06,0l3.19-1.84C121.18,234.38,121.19,233.33,120.07,232.69Zm-19.65,7.68,3.17,1.83a4.47,4.47,0,0,0,4.06,0l3.19-1.84c1.13-.65,1.13-1.7,0-2.34l-3.17-1.83a4.47,4.47,0,0,0-4.06,0L100.44,238C99.31,238.68,99.3,239.73,100.42,240.37Zm-13.5,7.8L90.09,250a4.5,4.5,0,0,0,4.06,0l7.28-4.2a1.24,1.24,0,0,0,0-2.35l-3.17-1.83a4.5,4.5,0,0,0-4.06,0l-7.28,4.2A1.24,1.24,0,0,0,86.92,248.17ZM220.8,184.39l-3.17-1.83a4.5,4.5,0,0,0-4.06,0l-7.28,4.2a1.24,1.24,0,0,0,0,2.35l3.17,1.83a4.5,4.5,0,0,0,4.06,0l7.28-4.2A1.24,1.24,0,0,0,220.8,184.39Zm-13.31,7.69-3.17-1.83a4.47,4.47,0,0,0-4.06,0l-3.19,1.84a1.24,1.24,0,0,0,0,2.35l3.17,1.83a4.5,4.5,0,0,0,4.06,0l3.19-1.84C208.6,193.77,208.61,192.72,207.49,192.08Zm-9.23,7.66c1.12-.65,1.13-1.7,0-2.34l-3.17-1.83a4.47,4.47,0,0,0-4.06,0l-3.19,1.84c-1.12.65-1.13,1.7,0,2.34l3.17,1.83a4.47,4.47,0,0,0,4.06,0ZM189,205.07a1.24,1.24,0,0,0,0-2.35l-3.17-1.83a4.5,4.5,0,0,0-4.06,0l-3.19,1.84c-1.12.65-1.13,1.7,0,2.34l3.17,1.83a4.47,4.47,0,0,0,4.06,0Zm-16.44,1.15-3.19,1.84a1.24,1.24,0,0,0,0,2.35l3.17,1.83a4.5,4.5,0,0,0,4.06,0l3.19-1.84a1.24,1.24,0,0,0,0-2.35l-3.17-1.83A4.5,4.5,0,0,0,172.6,206.22Zm-9,5.21L160,213.5a1.12,1.12,0,0,0,0,2.12l3.56,2a4.06,4.06,0,0,0,3.67,0l3.58-2.06c1-.59,1-1.54,0-2.12l-3.56-2.06A4.06,4.06,0,0,0,163.58,211.43Zm-9.22,5.32-3.58,2.07a1.12,1.12,0,0,0,0,2.12l3.56,2.05a4.06,4.06,0,0,0,3.67,0l3.58-2.07c1-.59,1-1.54,0-2.12L158,216.75A4.06,4.06,0,0,0,154.36,216.75Zm-9.22,5.33-3.58,2.06a1.12,1.12,0,0,0,0,2.12l3.56,2.06a4.06,4.06,0,0,0,3.67,0l3.58-2.07a1.12,1.12,0,0,0,0-2.12l-3.56-2.05A4.06,4.06,0,0,0,145.14,222.08Zm-9.22,5.32-3.58,2.07a1.11,1.11,0,0,0,0,2.11l3.56,2.06a4.06,4.06,0,0,0,3.67,0l3.58-2.07a1.11,1.11,0,0,0,0-2.11l-3.56-2.06A4.06,4.06,0,0,0,135.92,227.4Zm-9.22,5.32-3.58,2.07a1.12,1.12,0,0,0,0,2.12l3.56,2.05a4.06,4.06,0,0,0,3.67,0l3.58-2.06a1.12,1.12,0,0,0,0-2.12l-3.56-2.06A4.06,4.06,0,0,0,126.7,232.72Zm-5.58,11.56,3.58-2.07a1.12,1.12,0,0,0,0-2.12L121.16,238a4.06,4.06,0,0,0-3.67,0l-3.59,2.07c-1,.59-1,1.54,0,2.12l3.56,2.05A4.06,4.06,0,0,0,121.12,244.28Zm-9.22,5.32,3.58-2.07a1.12,1.12,0,0,0,0-2.12l-3.55-2a4.06,4.06,0,0,0-3.67,0l-3.58,2.06c-1,.59-1,1.54,0,2.12l3.56,2.06A4.06,4.06,0,0,0,111.9,249.6ZM95.26,253l3.56,2a4.06,4.06,0,0,0,3.67,0l3.58-2.06a1.12,1.12,0,0,0,0-2.12l-3.55-2.06a4.06,4.06,0,0,0-3.67,0l-3.58,2.07A1.12,1.12,0,0,0,95.26,253Zm134.27-63.56L226,187.38a4.06,4.06,0,0,0-3.67,0l-11.55,6.67c-1,.59-1,1.53,0,2.12l3.56,2a4.06,4.06,0,0,0,3.67,0l11.56-6.68A1.12,1.12,0,0,0,229.53,189.43Zm-17.19,9.93-3.56-2.05a4.06,4.06,0,0,0-3.67,0l-3.58,2.07c-1,.59-1,1.54,0,2.12l3.56,2.06a4.06,4.06,0,0,0,3.67,0l3.58-2.07C213.34,200.89,213.35,200,212.34,199.36Zm-9.22,5.32-3.56-2.05a4.06,4.06,0,0,0-3.67,0l-3.58,2.06a1.12,1.12,0,0,0,0,2.12l3.55,2.06a4.06,4.06,0,0,0,3.67,0l3.58-2.07A1.12,1.12,0,0,0,203.12,204.68ZM193.9,210,190.34,208a4.06,4.06,0,0,0-3.67,0L183.09,210a1.12,1.12,0,0,0,0,2.12l3.55,2a4.08,4.08,0,0,0,3.68,0l3.58-2.06C194.9,211.54,194.91,210.59,193.9,210Zm-12.81,9.51,3.58-2.07c1-.59,1-1.54,0-2.12l-3.56-2.05a4,4,0,0,0-3.67,0l-3.58,2.07a1.12,1.12,0,0,0,0,2.12l3.56,2.05A4.06,4.06,0,0,0,181.09,219.52Zm-9.22,5.32,3.58-2.07a1.12,1.12,0,0,0,0-2.12l-3.56-2.05a4.06,4.06,0,0,0-3.67,0l-3.58,2.07a1.12,1.12,0,0,0,0,2.12l3.56,2.06A4.06,4.06,0,0,0,171.87,224.84Zm-9.22,5.32,3.58-2.07a1.12,1.12,0,0,0,0-2.12l-3.56-2.05a4.06,4.06,0,0,0-3.67,0L155.43,226c-1,.59-1,1.54,0,2.12l3.56,2.06A4.06,4.06,0,0,0,162.65,230.16Zm-9.22,5.32,3.58-2.06a1.12,1.12,0,0,0,0-2.12l-3.56-2.06a4.06,4.06,0,0,0-3.67,0l-3.58,2.07a1.12,1.12,0,0,0,0,2.12l3.56,2.05A4.06,4.06,0,0,0,153.43,235.48Zm-9.22,5.33,3.58-2.07a1.12,1.12,0,0,0,0-2.12l-3.55-2.05a4,4,0,0,0-3.68,0L137,236.64c-1,.59-1,1.54,0,2.12l3.56,2.05A4.06,4.06,0,0,0,144.21,240.81ZM135,246.13l3.58-2.07a1.12,1.12,0,0,0,0-2.12L135,239.89a4.06,4.06,0,0,0-3.67,0L127.78,242c-1,.59-1,1.54,0,2.12l3.56,2.06A4.06,4.06,0,0,0,135,246.13Zm-5.62,1.13-3.56-2a4.06,4.06,0,0,0-3.67,0l-3.58,2.06c-1,.59-1,1.54,0,2.12l3.55,2.06a4.06,4.06,0,0,0,3.67,0l3.58-2.07A1.12,1.12,0,0,0,129.37,247.26ZM103.8,257.92l3.56,2.05a4.06,4.06,0,0,0,3.67,0l9.11-5.25c1-.59,1-1.54,0-2.12l-3.56-2.06a4.06,4.06,0,0,0-3.67,0l-9.11,5.26A1.12,1.12,0,0,0,103.8,257.92ZM238,194.34,235,192.56a4.58,4.58,0,0,0-4.14,0L214.41,202c-1.15.66-1.16,1.73,0,2.39l3.09,1.78a4.58,4.58,0,0,0,4.14,0l16.4-9.47C239.17,196.07,239.18,195,238,194.34Zm-22.52,13-3.08-1.78a4.6,4.6,0,0,0-4.15,0l-3.1,1.79c-1.15.67-1.16,1.74,0,2.4l3.08,1.78a4.6,4.6,0,0,0,4.15,0l3.1-1.79A1.27,1.27,0,0,0,215.52,207.34Zm-9.22,5.33-3.08-1.78a4.6,4.6,0,0,0-4.15,0l-3.1,1.79c-1.15.67-1.16,1.74,0,2.4l3.08,1.78a4.6,4.6,0,0,0,4.15,0l3.1-1.79A1.26,1.26,0,0,0,206.3,212.67ZM197.08,218,194,216.21a4.57,4.57,0,0,0-4.15,0l-3.1,1.79a1.26,1.26,0,0,0,0,2.39l3.08,1.78a4.57,4.57,0,0,0,4.15,0l3.1-1.79A1.26,1.26,0,0,0,197.08,218Zm-9.22,5.32-3.08-1.78a4.57,4.57,0,0,0-4.15,0l-3.1,1.79a1.26,1.26,0,0,0,0,2.39l3.08,1.78a4.6,4.6,0,0,0,4.15,0l3.1-1.8C189,225,189,224,187.86,223.31Zm-9.21,5.32-3.09-1.78a4.58,4.58,0,0,0-4.14,0l-3.11,1.79a1.27,1.27,0,0,0,0,2.4l3.08,1.78a4.6,4.6,0,0,0,4.15,0l3.1-1.79C179.78,230.36,179.79,229.29,178.65,228.63ZM169.43,234l-3.09-1.78a4.58,4.58,0,0,0-4.14,0L159.09,234a1.27,1.27,0,0,0,0,2.4l3.08,1.78a4.6,4.6,0,0,0,4.15,0l3.1-1.79C170.56,235.69,170.57,234.61,169.43,234Zm-9.22,5.32-3.09-1.78a4.55,4.55,0,0,0-4.14,0l-3.11,1.79a1.26,1.26,0,0,0,0,2.39l3.09,1.78a4.55,4.55,0,0,0,4.14,0l3.1-1.79C161.34,241,161.35,239.94,160.21,239.28ZM151,244.6l-3.08-1.78a4.57,4.57,0,0,0-4.15,0l-3.1,1.79c-1.15.66-1.16,1.73,0,2.39l3.09,1.78a4.58,4.58,0,0,0,4.14,0L151,247A1.26,1.26,0,0,0,151,244.6Zm-9.22,5.32-3.08-1.78a4.6,4.6,0,0,0-4.15,0l-3.1,1.79c-1.15.67-1.16,1.74,0,2.4l3.09,1.78a4.58,4.58,0,0,0,4.14,0l3.11-1.79A1.27,1.27,0,0,0,141.77,249.92Zm-9.22,5.33-3.08-1.78a4.6,4.6,0,0,0-4.15,0l-3.1,1.79c-1.15.67-1.16,1.74,0,2.4l3.08,1.78a4.6,4.6,0,0,0,4.15,0l3.1-1.79A1.26,1.26,0,0,0,132.55,255.25Zm-19.77,7.85,3.09,1.78a4.55,4.55,0,0,0,4.14,0l3.1-1.79c1.15-.66,1.16-1.73,0-2.39L120,258.91a4.58,4.58,0,0,0-4.14,0l-3.11,1.8A1.26,1.26,0,0,0,112.78,263.1Zm119.36-59.05,3.08,1.78a4.6,4.6,0,0,0,4.15,0l7.19-4.15c1.15-.67,1.16-1.74,0-2.4l-3.09-1.78a4.58,4.58,0,0,0-4.14,0l-7.2,4.15A1.27,1.27,0,0,0,232.14,204.05Zm-9.22,5.32,3.08,1.78a4.57,4.57,0,0,0,4.15,0l3.1-1.79c1.15-.66,1.16-1.73,0-2.39l-3.09-1.78a4.55,4.55,0,0,0-4.14,0L222.93,207A1.26,1.26,0,0,0,222.92,209.37Zm-9.22,5.32,3.08,1.78a4.6,4.6,0,0,0,4.15,0l3.1-1.8c1.15-.66,1.16-1.73,0-2.39L221,210.5a4.55,4.55,0,0,0-4.14,0l-3.11,1.79A1.26,1.26,0,0,0,213.7,214.69ZM149.17,252l3.08,1.78a4.57,4.57,0,0,0,4.15,0L214.82,220a1.27,1.27,0,0,0,0-2.4l-3.09-1.78a4.58,4.58,0,0,0-4.14,0l-58.42,33.73A1.26,1.26,0,0,0,149.17,252ZM140,257.27l3.08,1.78a4.6,4.6,0,0,0,4.15,0l3.1-1.8c1.15-.66,1.16-1.73,0-2.39l-3.09-1.78a4.55,4.55,0,0,0-4.14,0L140,254.88A1.26,1.26,0,0,0,140,257.27Zm-9.22,5.33,3.08,1.78a4.6,4.6,0,0,0,4.15,0l3.1-1.79c1.15-.67,1.16-1.74,0-2.4L138,258.4a4.58,4.58,0,0,0-4.14,0l-3.11,1.79A1.27,1.27,0,0,0,130.73,262.6ZM121.32,268l3.08,1.78a4.6,4.6,0,0,0,4.15,0l3.1-1.79c1.15-.66,1.16-1.73,0-2.39l-3.09-1.78a4.58,4.58,0,0,0-4.14,0l-3.11,1.79A1.27,1.27,0,0,0,121.32,268Z"/><polygon class="cls-34" points="25.69 101.96 46.19 243.71 50.44 251.21 206.09 156.39 166.19 21.46 25.69 101.96"/><polygon class="cls-35" points="50.2 98.55 50.2 250.97 209 159.41 209 6.99 50.2 98.55"/><polygon class="cls-36" points="50.2 96.36 50.2 115.9 50.92 116.27 209 24.34 209.72 5.16 209 4.79 50.2 96.36"/><polygon class="cls-37" points="50.92 98.91 50.92 251.34 209.72 159.77 209.72 7.35 50.92 98.91"/><polygon class="cls-38" points="205.32 156.72 205.32 33.68 55.32 120.17 55.32 243.22 205.32 156.72"/><polygon class="cls-39" points="50.92 96.72 50.92 116.27 209.72 24.7 209.72 5.16 50.92 96.72"/><path class="cls-17" d="M202.81,15.19c0-.47-.33-.65-.73-.42l-10.55,6.09a1.59,1.59,0,0,0-.72,1.25c0,.47.32.65.72.42l10.55-6.09A1.6,1.6,0,0,0,202.81,15.19Zm-12,10.68c0,.46.32.65.72.41l10.55-6.08a1.63,1.63,0,0,0,.73-1.26c0-.46-.33-.65-.73-.41l-10.55,6.09A1.59,1.59,0,0,0,190.81,25.87Zm0,3.76c0,.46.32.64.72.41L202.08,24a1.6,1.6,0,0,0,.73-1.25c0-.46-.33-.65-.73-.42l-10.55,6.09A1.59,1.59,0,0,0,190.81,29.63Z"/><path class="cls-17" d="M57.32,102.72c0,1.43,1,2,2.26,1.28a5,5,0,0,0,2.26-3.89c0-1.43-1-2-2.26-1.29A5,5,0,0,0,57.32,102.72Z"/><path class="cls-17" d="M64.14,98.76c0,1.43,1,2,2.26,1.28a5,5,0,0,0,2.25-3.89c0-1.43-1-2-2.25-1.29A5,5,0,0,0,64.14,98.76Z"/><path class="cls-17" d="M71,94.8c0,1.43,1,2,2.26,1.29a5,5,0,0,0,2.26-3.9c0-1.43-1-2-2.26-1.29A5,5,0,0,0,71,94.8Z"/><polygon class="cls-40" points="73.66 123.07 73.66 125.17 83.06 119.74 83.06 133.53 64.31 144.35 64.31 128.47 73.66 123.07"/><polygon class="cls-41" points="74.8 123.45 74.8 125.55 84.2 120.12 84.2 133.91 66.95 145.66 65.45 144.73 65.45 128.85 74.8 123.45"/><polygon class="cls-17" points="85.06 134.21 66.31 145.04 66.31 132.11 85.06 121.28 85.06 134.21"/><polygon class="cls-42" points="85.73 134.79 66.97 145.62 66.97 134.11 85.73 123.28 85.73 134.79"/><polygon class="cls-40" points="100.85 107.32 100.85 109.42 110.25 103.99 110.25 117.78 91.5 128.6 91.5 112.72 100.85 107.32"/><polygon class="cls-43" points="101.99 107.7 101.99 109.8 111.39 104.37 111.39 118.16 94.14 129.91 92.64 128.98 92.64 113.1 101.99 107.7"/><polygon class="cls-17" points="112.25 118.46 93.5 129.29 93.5 116.36 112.25 105.53 112.25 118.46"/><polygon class="cls-44" points="112.92 119.04 94.16 129.87 94.16 118.36 112.92 107.53 112.92 119.04"/><polygon class="cls-40" points="128.04 91.57 128.04 93.67 137.44 88.24 137.44 102.03 118.69 112.85 118.69 96.97 128.04 91.57"/><polygon class="cls-45" points="129.18 91.95 129.18 94.05 138.58 88.62 138.58 102.41 121.33 114.17 119.83 113.23 119.83 97.35 129.18 91.95"/><polygon class="cls-17" points="139.44 102.71 120.68 113.54 120.68 100.61 139.44 89.78 139.44 102.71"/><polygon class="cls-46" points="140.1 103.29 121.35 114.12 121.35 102.61 140.1 91.78 140.1 103.29"/><polygon class="cls-40" points="155.22 75.82 155.22 77.92 164.63 72.49 164.63 86.28 145.87 97.1 145.87 81.22 155.22 75.82"/><polygon class="cls-47" points="156.37 76.2 156.37 78.3 165.77 72.87 165.77 86.66 148.52 98.42 147.01 97.48 147.01 81.6 156.37 76.2"/><polygon class="cls-17" points="166.62 86.96 147.87 97.79 147.87 84.86 166.62 74.03 166.62 86.96"/><polygon class="cls-48" points="167.29 87.54 148.54 98.37 148.54 86.86 167.29 76.03 167.29 87.54"/><polygon class="cls-40" points="182.41 60.07 182.41 62.17 191.81 56.74 191.81 70.53 173.06 81.35 173.06 65.47 182.41 60.07"/><polygon class="cls-49" points="183.55 60.45 183.55 62.55 192.96 57.12 192.96 70.91 175.71 82.67 174.2 81.73 174.2 65.85 183.55 60.45"/><polygon class="cls-17" points="193.81 71.21 175.06 82.04 175.06 69.11 193.81 58.28 193.81 71.21"/><polygon class="cls-50" points="194.48 71.79 175.72 82.62 175.72 71.11 194.48 60.28 194.48 71.79"/><polygon class="cls-40" points="73.66 199.82 73.66 201.92 83.06 196.49 83.06 210.28 64.31 221.1 64.31 205.22 73.66 199.82"/><polygon class="cls-51" points="74.8 200.2 74.8 202.3 84.2 196.87 84.2 210.66 66.95 222.41 65.45 221.48 65.45 205.6 74.8 200.2"/><polygon class="cls-17" points="85.06 210.96 66.31 221.79 66.31 208.86 85.06 198.03 85.06 210.96"/><polygon class="cls-52" points="85.73 211.54 66.97 222.37 66.97 210.86 85.73 200.03 85.73 211.54"/><polygon class="cls-40" points="100.85 184.07 100.85 186.17 110.25 180.74 110.25 194.53 91.5 205.35 91.5 189.47 100.85 184.07"/><polygon class="cls-53" points="101.99 184.45 101.99 186.55 111.39 181.12 111.39 194.91 94.14 206.66 92.64 205.73 92.64 189.85 101.99 184.45"/><polygon class="cls-17" points="112.25 195.21 93.5 206.04 93.5 193.11 112.25 182.28 112.25 195.21"/><polygon class="cls-54" points="112.92 195.79 94.16 206.62 94.16 195.11 112.92 184.28 112.92 195.79"/><polygon class="cls-40" points="128.04 168.32 128.04 170.42 137.44 164.99 137.44 178.78 118.69 189.6 118.69 173.72 128.04 168.32"/><polygon class="cls-55" points="129.18 168.7 129.18 170.8 138.58 165.37 138.58 179.16 121.33 190.91 119.83 189.98 119.83 174.1 129.18 168.7"/><polygon class="cls-17" points="139.44 179.46 120.68 190.29 120.68 177.36 139.44 166.53 139.44 179.46"/><polygon class="cls-56" points="140.1 180.04 121.35 190.87 121.35 179.36 140.1 168.53 140.1 180.04"/><polygon class="cls-40" points="155.22 152.57 155.22 154.67 164.63 149.24 164.63 163.03 145.87 173.85 145.87 157.97 155.22 152.57"/><polygon class="cls-57" points="156.37 152.95 156.37 155.05 165.77 149.62 165.77 163.41 148.52 175.16 147.01 174.23 147.01 158.35 156.37 152.95"/><polygon class="cls-17" points="166.62 163.71 147.87 174.54 147.87 161.61 166.62 150.78 166.62 163.71"/><polygon class="cls-58" points="167.29 164.29 148.54 175.12 148.54 163.61 167.29 152.78 167.29 164.29"/><polygon class="cls-40" points="182.41 136.82 182.41 138.92 191.81 133.49 191.81 147.28 173.06 158.1 173.06 142.22 182.41 136.82"/><polygon class="cls-59" points="183.55 137.2 183.55 139.3 192.96 133.87 192.96 147.66 175.71 159.41 174.2 158.48 174.2 142.6 183.55 137.2"/><polygon class="cls-17" points="193.81 147.96 175.06 158.79 175.06 145.86 193.81 135.03 193.81 147.96"/><polygon class="cls-60" points="194.48 148.54 175.72 159.37 175.72 147.86 194.48 137.03 194.48 148.54"/><polygon class="cls-40" points="73.66 174.07 73.66 176.17 83.06 170.74 83.06 184.53 64.31 195.35 64.31 179.47 73.66 174.07"/><polygon class="cls-61" points="74.8 174.45 74.8 176.55 84.2 171.12 84.2 184.91 66.95 196.66 65.45 195.73 65.45 179.85 74.8 174.45"/><polygon class="cls-17" points="85.06 185.21 66.31 196.04 66.31 183.11 85.06 172.28 85.06 185.21"/><polygon class="cls-62" points="85.73 185.79 66.97 196.62 66.97 185.11 85.73 174.28 85.73 185.79"/><polygon class="cls-40" points="100.85 158.32 100.85 160.42 110.25 154.99 110.25 168.78 91.5 179.6 91.5 163.72 100.85 158.32"/><polygon class="cls-63" points="101.99 158.7 101.99 160.8 111.39 155.37 111.39 169.16 94.14 180.91 92.64 179.98 92.64 164.1 101.99 158.7"/><polygon class="cls-17" points="112.25 169.46 93.5 180.29 93.5 167.36 112.25 156.53 112.25 169.46"/><polygon class="cls-64" points="112.92 170.04 94.16 180.87 94.16 169.36 112.92 158.53 112.92 170.04"/><polygon class="cls-40" points="128.04 142.57 128.04 144.67 137.44 139.24 137.44 153.03 118.69 163.85 118.69 147.97 128.04 142.57"/><polygon class="cls-65" points="129.18 142.95 129.18 145.05 138.58 139.62 138.58 153.41 121.33 165.16 119.83 164.23 119.83 148.35 129.18 142.95"/><polygon class="cls-17" points="139.44 153.71 120.68 164.54 120.68 151.61 139.44 140.78 139.44 153.71"/><polygon class="cls-66" points="140.1 154.29 121.35 165.12 121.35 153.61 140.1 142.78 140.1 154.29"/><polygon class="cls-40" points="155.22 126.82 155.22 128.92 164.63 123.49 164.63 137.28 145.87 148.1 145.87 132.22 155.22 126.82"/><polygon class="cls-67" points="156.37 127.2 156.37 129.3 165.77 123.87 165.77 137.66 148.52 149.41 147.01 148.48 147.01 132.6 156.37 127.2"/><polygon class="cls-17" points="166.62 137.96 147.87 148.79 147.87 135.86 166.62 125.03 166.62 137.96"/><polygon class="cls-68" points="167.29 138.54 148.54 149.37 148.54 137.86 167.29 127.03 167.29 138.54"/><polygon class="cls-40" points="182.41 111.07 182.41 113.17 191.81 107.74 191.81 121.53 173.06 132.35 173.06 116.47 182.41 111.07"/><polygon class="cls-69" points="183.55 111.45 183.55 113.55 192.96 108.12 192.96 121.91 175.71 133.66 174.2 132.73 174.2 116.85 183.55 111.45"/><polygon class="cls-17" points="193.81 122.21 175.06 133.04 175.06 120.11 193.81 109.28 193.81 122.21"/><polygon class="cls-70" points="194.48 122.79 175.72 133.62 175.72 122.11 194.48 111.28 194.48 122.79"/><polygon class="cls-40" points="73.66 148.82 73.66 150.92 83.06 145.49 83.06 159.28 64.31 170.1 64.31 154.22 73.66 148.82"/><polygon class="cls-71" points="74.8 149.2 74.8 151.3 84.2 145.87 84.2 159.66 66.95 171.41 65.45 170.48 65.45 154.6 74.8 149.2"/><polygon class="cls-17" points="85.06 159.96 66.31 170.79 66.31 157.86 85.06 147.03 85.06 159.96"/><polygon class="cls-72" points="85.73 160.54 66.97 171.37 66.97 159.86 85.73 149.03 85.73 160.54"/><polygon class="cls-40" points="100.85 133.07 100.85 135.17 110.25 129.74 110.25 143.53 91.5 154.35 91.5 138.47 100.85 133.07"/><polygon class="cls-73" points="101.99 133.45 101.99 135.55 111.39 130.12 111.39 143.91 94.14 155.66 92.64 154.73 92.64 138.85 101.99 133.45"/><polygon class="cls-17" points="112.25 144.21 93.5 155.04 93.5 142.11 112.25 131.28 112.25 144.21"/><polygon class="cls-74" points="112.92 144.79 94.16 155.62 94.16 144.11 112.92 133.28 112.92 144.79"/><polygon class="cls-40" points="128.04 117.32 128.04 119.42 137.44 113.99 137.44 127.78 118.69 138.6 118.69 122.72 128.04 117.32"/><polygon class="cls-75" points="129.18 117.7 129.18 119.8 138.58 114.37 138.58 128.16 121.33 139.91 119.83 138.98 119.83 123.1 129.18 117.7"/><polygon class="cls-17" points="139.44 128.46 120.68 139.29 120.68 126.36 139.44 115.53 139.44 128.46"/><polygon class="cls-76" points="140.1 129.04 121.35 139.87 121.35 128.36 140.1 117.53 140.1 129.04"/><polygon class="cls-40" points="155.22 101.57 155.22 103.67 164.63 98.24 164.63 112.03 145.87 122.85 145.87 106.97 155.22 101.57"/><polygon class="cls-77" points="156.37 101.95 156.37 104.05 165.77 98.62 165.77 112.41 148.52 124.17 147.01 123.23 147.01 107.35 156.37 101.95"/><polygon class="cls-17" points="166.62 112.71 147.87 123.54 147.87 110.61 166.62 99.78 166.62 112.71"/><polygon class="cls-78" points="167.29 113.29 148.54 124.12 148.54 112.61 167.29 101.78 167.29 113.29"/><polygon class="cls-40" points="182.41 85.82 182.41 87.92 191.81 82.49 191.81 96.28 173.06 107.1 173.06 91.22 182.41 85.82"/><polygon class="cls-79" points="183.55 86.2 183.55 88.3 192.96 82.87 192.96 96.66 175.71 108.42 174.2 107.48 174.2 91.6 183.55 86.2"/><polygon class="cls-17" points="193.81 96.96 175.06 107.79 175.06 94.86 193.81 84.03 193.81 96.96"/><polygon class="cls-80" points="194.48 97.54 175.72 108.37 175.72 96.86 194.48 86.03 194.48 97.54"/><polygon class="cls-81" points="7.48 119.76 122 53.51 151.59 71.08 151.59 98.8 37.12 164.94 37.12 164.95 37.11 164.94 37.1 164.95 37.1 164.94 7.48 147.48 7.48 119.76"/><g class="cls-82"><polygon class="cls-83" points="37.12 137.39 37.12 164.95 29.13 160.34 29.13 132.62 37.12 137.39"/><polygon class="cls-84" points="37.1 137.39 37.1 164.95 151.59 98.8 151.59 71.08 37.1 137.39"/><polygon class="cls-85" points="151.59 71.08 37.1 137.39 29.13 132.62 143.66 66.37 151.59 71.08"/></g><path class="cls-17" d="M42.64,155.54l.6.34c.43.25,1.15-.16,1.58-.91l3.5-6a1.64,1.64,0,0,0,.18-1.65l1-1.77c2,.59,4.93-1.26,6.79-4.45,2-3.49,2-7.26,0-8.41s-5.31.74-7.33,4.23c-1.85,3.19-2,6.61-.47,8.05l-1,1.77a1.67,1.67,0,0,0-1.35,1l-3.5,6C42.2,154.48,42.2,155.29,42.64,155.54Zm7.59-17.95c1.33-2.29,3.49-3.54,4.83-2.78s1.33,3.24,0,5.54-3.5,3.54-4.83,2.78S48.9,139.89,50.23,137.59Z"/><polygon class="cls-17" points="61.88 143.5 143.95 95.93 143.95 82.7 61.88 130.27 61.88 143.5"/><polygon class="cls-86" points="185.05 91.76 194.97 97.67 209.17 88.82 209.17 169.17 149.83 216 135.26 207.04 135.26 120.51 185.05 91.76"/><path class="cls-87" d="M193.84,96.69v6.91l46.37-26.77A2.46,2.46,0,0,1,243.9,79v85.31L155.42,215.7a6.49,6.49,0,0,1-6.68-.09l-1.89-1.17a5.93,5.93,0,0,1-2.8-5V125a6.67,6.67,0,0,1,3.34-5.79l42.76-24.69A2.46,2.46,0,0,1,193.84,96.69Z"/><g class="cls-88"><path class="cls-89" d="M241.23,77.67l-46.38,26.78V103l45.36-26.18a2.45,2.45,0,0,1,3.26.75A2.41,2.41,0,0,0,241.23,77.67Z"/><path class="cls-90" d="M147.39,119.25l42.76-24.69a2.45,2.45,0,0,1,3.25.75,2.39,2.39,0,0,0-2.23.1l-42.76,24.68a6.71,6.71,0,0,0-3.35,5.8v84.36a5.92,5.92,0,0,0,1.62,4.07,5.92,5.92,0,0,1-2.63-4.91V125A6.69,6.69,0,0,1,147.39,119.25Z"/></g><polygon class="cls-17" points="248.46 156.67 148.6 214.32 148.6 138.54 248.46 80.89 248.46 156.67"/><polygon class="cls-91" points="248.46 159.2 150.37 215.83 150.37 144.96 248.46 88.33 248.46 159.2"/><path class="cls-92" d="M247.68,162.28l-92.43,53.36a6.41,6.41,0,0,1-6.25.09l-.6-.32.63.24a2.31,2.31,0,0,0,3.12-2.16V150a6.68,6.68,0,0,1,3.35-5.79l92.82-53.59A2.46,2.46,0,0,1,252,92.78v62A8.66,8.66,0,0,1,247.68,162.28Z"/><path class="cls-93" d="M149,215.65a2.31,2.31,0,0,0,3.12-2.16V150a6.68,6.68,0,0,1,3.35-5.79l92.82-53.59a2.43,2.43,0,0,1,3.06.51,2.42,2.42,0,0,0-2.17.12l-92.82,53.59a6.7,6.7,0,0,0-3.35,5.8v63.45a2.3,2.3,0,0,1-2,2.28,6.4,6.4,0,0,1-2.06-.68l-.6-.32Z"/><path class="cls-94" d="M176.66,145.94c8-4.53,15.82-11.83,22.37-20.87l.09-.06c6.56,1.48,14.37-.25,22.37-5l.31-.18,4.23,2.41-4.85,3.19c-1.52,20.24-9.42,36.86-22.14,56.53l-.31.18c-2.28-.9,1.18,1.17-.79.06l-5.65-3c-8.82-5.06-14.27-12.82-15.5-27.84l-.43-5.26Z"/><path class="cls-95" d="M176.66,145.94c8-4.53,15.82-11.83,22.37-20.87l.09-.06.13,0,16.09,9.3-33,15.11-6-3.33Z"/><path class="cls-96" d="M180.37,148c8-4.53,15.82-11.83,22.37-20.87l.09,0c6.55,1.47,14.37-.26,22.37-5l.31-.18-.44,5.76c-1.51,20.24-9.41,36.86-22.13,56.53l-.31.18c-12.71-5-20.61-12.48-22.13-31l-.43-5.26Z"/><path class="cls-97" d="M181,148.25c8-4.54,15.82-11.84,22.37-20.88l.09-.05c6.55,1.48,14.37-.25,22.37-4.95l.31-.18-.44,5.76c-1.51,20.24-9.41,36.86-22.13,56.53l-.31.18c-12.71-5-20.62-12.49-22.13-31l-.43-5.26Z"/><path class="cls-98" d="M181,148.25c8-4.54,15.82-11.84,22.37-20.88l.09-.05c6.55,1.48,14.37-.25,22.37-4.95l.31-.18-.44,5.76c-1.51,20.24-9.41,36.86-22.13,56.53l-.31.18c-12.71-5-20.62-12.49-22.13-31l-.43-5.26Z"/><path class="cls-99" d="M181,148.25l.4-.24.43,5.21c1.51,18.41,9.35,25.92,22,30.91l-.22.35-.31.18c-12.71-5-20.62-12.49-22.13-31l-.43-5.26Z"/><path class="cls-100" d="M202.41,181.65c11.43-17.89,19.3-34,20.78-53.89l.1-1.26a35.44,35.44,0,0,1-15.12,3.81,24,24,0,0,1-3.72-.28,75.81,75.81,0,0,1-21.2,19.75l.3,3.7C185,170.48,191.78,177.12,202.41,181.65Z"/><path class="cls-101" d="M221.59,127.46l0-.19c.56-.24,1.12-.5,1.68-.77l-.1,1.26c-1.48,19.86-9.35,36-20.78,53.89-.48-.2-.94-.41-1.4-.62C212.33,163.27,220.11,147.2,221.59,127.46Z"/><polygon class="cls-102" points="200.69 163.53 205 161.04 205 141.28 200.69 143.76 200.69 163.53"/><polygon class="cls-103" points="203.69 160.19 203.69 142.03 205 141.28 205 161.04 200.69 163.53 200.69 161.92 203.69 160.19"/><polygon class="cls-104" points="201.18 143.58 201.24 143.54 203.58 142.03 259.69 174.43 259.69 196.8 257.35 195.45 257.35 198.11 228.94 177.71 201.24 162.43 201.24 143.67 201.18 143.58"/><polygon class="cls-105" points="211.95 146.85 268.05 179.25 268.05 201.62 229.73 179.49 228.63 175.57 209.55 148.39 211.95 146.85"/><polygon class="cls-106" points="209.61 148.17 265.72 180.56 265.72 202.93 227.4 180.81 226.3 176.88 209.61 167.25 209.61 148.17"/><polygon class="cls-17" points="216.19 168.04 260.22 193.48 260.22 182.45 216.19 157.01 216.19 168.04"/><polygon class="cls-107" points="216.95 157.45 216.95 167.73 260.22 192.73 260.22 193.48 216.19 168.04 216.19 157.01 216.95 157.45"/><path class="cls-108" d="M265.62,170.05c0,.16,0,.32,0,.49v32.69a10.7,10.7,0,0,0,4.84,8.36l16.06,9.27.23.12.06,1.88,3.77-2c1.08-.4,1.77-1.54,1.77-3.28V184.89a10.67,10.67,0,0,0-4.84-8.35l-16.05-9.27a3.34,3.34,0,0,0-3.55-.27l-3.71,1.92ZM276.16,185c0-2.78,2-3.9,4.38-2.5l.92.53a7.26,7.26,0,0,1,1.28,1l3.11,18.24v4.37c0,2.78-2,3.9-4.39,2.5l-.92-.53a9.67,9.67,0,0,1-4.38-7.56Z"/><path class="cls-109" d="M262.82,172v32.69a10.68,10.68,0,0,0,4.85,8.36l16.05,9.27c2.68,1.54,4.84.3,4.84-2.77V186.87a10.66,10.66,0,0,0-4.84-8.36l-16.05-9.27C265,167.7,262.82,168.93,262.82,172Zm10.56,14.43c0-2.78,2-3.9,4.38-2.5l.93.53a9.66,9.66,0,0,1,4.38,7.56v16c0,2.78-2,3.9-4.38,2.5l-.93-.53a9.66,9.66,0,0,1-4.38-7.56Z"/><g class="cls-88"><path class="cls-110" d="M278.18,210.55l-.93-.53a9.66,9.66,0,0,1-4.38-7.56v-16c0-1.82.84-2.92,2.1-3.08a3,3,0,0,0-1.37,2.86v16A9.66,9.66,0,0,0,278,209.8l.93.53a3.73,3.73,0,0,0,2.28.58A3.16,3.16,0,0,1,278.18,210.55Z"/><path class="cls-111" d="M288.05,219.55V186.87a10.67,10.67,0,0,0-4.84-8.36l-16-9.27a4.11,4.11,0,0,0-2.56-.63,3.52,3.52,0,0,1,3.29.41l16.05,9.27a10.68,10.68,0,0,1,4.84,8.36v32.69c0,2-.91,3.2-2.28,3.39A3.27,3.27,0,0,0,288.05,219.55Z"/></g><g class="cls-2"><path class="cls-3" d="M280.56,237a13.49,13.49,0,0,1-6.73-1.62l-34.18-21.79-34.19-21.79a7.09,7.09,0,0,1-3.85-6.15c0-2.73-.38-21.55,2.57-23.26l3.72-1.52c2.32-1.34,7.29,14.21,10.24,14.21a13.51,13.51,0,0,1,6.73,1.62l35.62,20.56,35.62,20.57A7.1,7.1,0,0,1,300,224c0,2.73-1.69,5.28-4.64,7C295.32,231,283.51,237,280.56,237Z"/><path class="cls-4" d="M205.19,164.3c.08,0,3.53-1.36,3.6-1.34,2.53-1.12,7.36,13.23,10.2,13.27a14,14,0,0,1,6.44,1.67l34.32,19.81,34.33,19.82a7.5,7.5,0,0,1,3.78,5.07,5.87,5.87,0,0,1,.08.72c.13,2.59-1.43,5.07-4.31,6.73,0,0-1.37.73-3.09,1.56-3.56,1.73-9.15,4.17-11.11,4.1-.51,0-1-.05-1.5-.1a13.06,13.06,0,0,1-4.92-1.56l-32.83-21-2.8-1.79-30-19.18a7.19,7.19,0,0,1-3.84-5.81c0-.64-.18-2.37-.22-4.43-.06-4-.38-9.83.41-13.65C204.1,166.33,204.51,164.69,205.19,164.3Z"/><path class="cls-5" d="M206.21,166.18c.15,0,3.33-1.19,3.47-1.16,2.75-.88,7.43,12.26,10.15,12.35a14.86,14.86,0,0,1,6.17,1.7l33,19.07,33,19.07a7.91,7.91,0,0,1,3.76,4.77c0,.22.08.45.11.68.25,2.44-1.18,4.85-4,6.47,0,0-1.4.76-2.95,1.51-3.41,1.66-8.71,3.9-10.68,3.77-.49,0-1-.07-1.44-.13a13.69,13.69,0,0,1-4.68-1.58l-31.47-20.15L238,210.83l-28.78-18.44c-2-1.15-3.82-3.43-3.82-5.46,0-.58-.34-2.29-.42-4.14-.16-3.74-.94-9.23-.1-12.82C205.3,168.27,205.59,166.53,206.21,166.18Z"/><path class="cls-6" d="M207.22,168.06c.23,0,3.15-1,3.35-1,3-.66,7.49,11.28,10.11,11.41a16,16,0,0,1,5.88,1.75l31.72,18.31L290,216.89c1.59.92,3.42,2.9,3.73,4.47a6.4,6.4,0,0,1,.14.63c.39,2.3-.91,4.64-3.63,6.21,0,0-1.44.81-2.81,1.48-3.26,1.6-8.29,3.62-10.26,3.42-.47,0-.93-.09-1.37-.15a14.33,14.33,0,0,1-4.45-1.59L241.26,212l-2.58-1.65-27.54-17.69c-1.78-1-3.79-3.31-3.79-5.13,0-.51-.51-2.2-.63-3.84-.25-3.47-1.51-8.62-.62-12C206.5,170.21,206.68,168.38,207.22,168.06Z"/><path class="cls-7" d="M208.24,170c.3.05,2.95-.86,3.23-.79,3.17-.44,7.55,10.3,10.06,10.48a16.92,16.92,0,0,1,5.59,1.79L257.54,199,288,216.57c1.39.81,3.38,2.81,3.71,4.16.05.2.12.39.17.59.51,2.17-.65,4.43-3.3,6,0,0-1.47.85-2.67,1.44-3.11,1.53-7.86,3.34-9.83,3.08-.45,0-.88-.12-1.3-.18a15.22,15.22,0,0,1-4.21-1.61l-28.77-18.52-2.46-1.58L213,193c-1.56-.9-3.77-3.2-3.77-4.79,0-.45-.67-2.12-.83-3.55-.34-3.21-2.08-8-1.13-11.18C207.69,172.15,207.76,170.22,208.24,170Z"/><path class="cls-8" d="M209.25,171.83c.37.06,2.76-.69,3.11-.61,3.39-.21,7.61,9.33,10,9.55a19.2,19.2,0,0,1,5.32,1.84l29.11,16.81L286,216.25c1.2.69,3.36,2.71,3.68,3.86.06.19.15.36.2.54.66,2-.39,4.22-3,5.7,0,0-1.5.9-2.53,1.41-3,1.46-7.43,3.06-9.41,2.74-.42-.05-.83-.15-1.23-.21a16.77,16.77,0,0,1-4-1.62L242.33,211,240,209.45l-25.06-16.2c-1.34-.77-3.75-3.08-3.75-4.44,0-.38-.85-2-1-3.26-.43-3-2.65-7.37-1.65-10.35C208.87,174.1,208.84,172.06,209.25,171.83Z"/><path class="cls-9" d="M210.26,173.71c.45.08,2.58-.52,3-.42,3.61,0,7.66,8.35,10,8.62a21.91,21.91,0,0,1,5,1.87l27.82,16.06,27.86,16.09c1,.58,3.54,2.57,3.66,3.56a4.37,4.37,0,0,1,.23.49c.79,1.89-.13,4-2.62,5.45,0,0-1.54.94-2.4,1.36-2.79,1.4-7,2.79-9,2.4-.4-.05-.78-.16-1.16-.23a19.5,19.5,0,0,1-3.74-1.64l-26.05-16.89L240.64,209l-23.83-15.45c-1.11-.64-3.72-3-3.72-4.11,0-.31-1.24-1.93-1.24-3-1.06-2.58-3.73-7-2.16-9.53C209.86,176,209.92,173.91,210.26,173.71Z"/><path class="cls-10" d="M211.28,175.59c.52.09,2.38-.35,2.86-.24,3.82.24,7.71,7.38,9.93,7.7a26.5,26.5,0,0,1,4.74,1.91l26.52,15.31,26.57,15.34c.8.46,3.54,2.46,3.63,3.25q.15.22.27.45c.93,1.75.13,3.8-2.29,5.19,0,0-1.57,1-2.25,1.33-2.64,1.33-6.57,2.51-8.56,2.06-.38-.07-.74-.19-1.1-.26a24.51,24.51,0,0,1-3.5-1.65L243.4,209.9l-2.11-1.37-22.58-14.7c-.9-.52-3.71-2.86-3.71-3.77,0-.25-1.44-1.85-1.44-2.67-1.24-2.29-4.39-6.4-2.67-8.7C211,177.92,211,175.75,211.28,175.59Z"/><path class="cls-11" d="M212.29,177.48c.6.1,2.19-.19,2.74-.06,4,.47,7.76,6.4,9.89,6.76a34.72,34.72,0,0,1,4.46,2l25.21,14.56,25.28,14.59c.6.35,3.54,2.36,3.61,3a3.69,3.69,0,0,1,.29.4c1.08,1.61.39,3.59-1.95,4.94,0,0-1.6,1-2.11,1.29-2.49,1.27-6.14,2.23-8.13,1.71-.36-.07-.69-.21-1-.29a27.82,27.82,0,0,1-3.27-1.66l-23.34-15.26-2-1.3-21.34-14c-.67-.38-3.68-2.74-3.68-3.42,0-.19-1.65-1.76-1.65-2.38-1.42-2-5-5.82-3.19-7.88A23.67,23.67,0,0,1,212.29,177.48Z"/><path class="cls-12" d="M213.31,179.36c.67.12,2,0,2.62.13,4.24.69,7.91,5,9.83,5.83a29.76,29.76,0,0,1,4.18,2l23.92,13.81,24,13.84c.4.23,3.54,2.25,3.58,2.65a3.61,3.61,0,0,1,.33.35c1.23,1.47.65,3.38-1.62,4.69,0,0-1.63,1.07-2,1.25-2.33,1.2-5.71,2-7.71,1.37-.33-.08-.64-.24-.95-.32s-2.77-1.52-3-1.67l-22-14.45-1.89-1.23-20.1-13.21c-.45-.26-3.66-2.63-3.66-3.09,0-.12-1.85-1.67-1.85-2.08-1.6-1.71-5.69-5.25-3.7-7.06C213.35,181.79,213.17,179.44,213.31,179.36Z"/><path class="cls-13" d="M214.32,181.24c.75.13,1.81.14,2.5.31,4.46.92,8,4,9.79,4.9.23,0,3.73,2,3.89,2.05l22.62,13.05,22.69,13.1a37.83,37.83,0,0,1,3.56,2.35,2,2,0,0,1,.35.3c1.39,1.32.92,3.17-1.27,4.43,0,0-1.66,1.13-1.83,1.21-2.18,1.14-5.29,1.68-7.29,1a6.33,6.33,0,0,1-.89-.35c-.17,0-2.66-1.61-2.79-1.69L245,208.31l-1.76-1.16-18.87-12.47a31.45,31.45,0,0,1-3.64-2.74,21.86,21.86,0,0,1-2.05-1.79c-1.78-1.42-6.35-4.67-4.21-6.23C214.51,183.73,214.25,181.28,214.32,181.24Z"/><path d="M267.39,222.3,243.9,206.69l-23.5-15.62c-2-1.14-7-4.1-4.73-5.41l-.34-2.53a36.1,36.1,0,0,1,12.13,4.46L252.38,202l24.93,14.39c2,1.14,1.72,3.12-.55,4.44L275.07,222C272.8,223.29,269.36,223.44,267.39,222.3Z"/></g><path class="cls-112" d="M251.75,182.86a6,6,0,0,0,2.74,4.72c1.51.88,2.74.18,2.74-1.56a6,6,0,0,0-2.74-4.72C253,180.43,251.75,181.13,251.75,182.86Z"/><path class="cls-113" d="M244.69,178.85a6,6,0,0,0,2.74,4.73c1.51.87,2.73.17,2.73-1.56a6,6,0,0,0-2.73-4.73C245.91,176.42,244.69,177.12,244.69,178.85Z"/><path class="cls-114" d="M237.62,174.85a6,6,0,0,0,2.74,4.72c1.52.87,2.74.17,2.74-1.56a6,6,0,0,0-2.74-4.72C238.85,172.41,237.62,173.11,237.62,174.85Z"/><path class="cls-115" d="M230.56,170.84a6,6,0,0,0,2.74,4.72c1.51.88,2.74.18,2.74-1.56a6,6,0,0,0-2.74-4.72C231.79,168.41,230.56,169.1,230.56,170.84Z"/><path class="cls-116" d="M223.5,166.83a6.06,6.06,0,0,0,2.74,4.73c1.51.87,2.74.17,2.74-1.57a6,6,0,0,0-2.74-4.72C224.73,164.4,223.5,165.1,223.5,166.83Z"/><path class="cls-117" d="M246.55,26.06l-6,3.47v1.92l6-3.47Zm-.34,9.06L237.71,40V42l8.5-4.91Zm-.78-4-7.12,4.12v1.92l7.12-4.12Zm2.49-3.95L255.13,23V21.1l-7.21,4.16Zm-13.3,3.25,5.83-3.37V25.14l-5.83,3.37ZM252,31.75l-4.46,2.58v1.92L252,33.67Zm-5.32,9.43L248.78,40V38.07l-2.06,1.18ZM249,20.24l-7.12,4.11v1.92L249,22.16Zm7.56,2L261,19.65V17.73l-4.46,2.58ZM253.76,46,263,40.62V38.7l-9.27,5.36Zm-2.83-31.32-8.5,4.91v1.92l8.5-4.91Zm8.5,17.26-9.28,5.35v1.92l9.28-5.35Zm-9.19-1.64,9.27-5.35V23l-9.27,5.35Zm2.15-12-2.06,1.19v1.92l2.06-1.19Zm4.37-7-4.46,2.58v1.92l4.46-2.58Zm4.73,23.87-3.35,1.94V39l3.35-1.94Zm-8.07-2.28,3.34-1.94V29L253.42,31Zm-20.69,10-1.56.9v1.92l1.56-.9Zm25.41-32.4v1.92l3.35-1.93V8.57ZM246.81,32.26l2.06-1.19V29.15l-2.06,1.19ZM236.94,36l-5.77,3.33v1.92L236.94,38Zm3.51,15.7-5.83,3.37V57l5.83-3.37Zm5,8.94-7.12,4.12v1.92l7.12-4.12ZM263,12.11l-9.27,5.35v1.92L263,14Zm-28.93,30V44l2.23-1.29V40.82Zm18.2.28,4.46-2.58V37.89l-4.46,2.58Zm-2,5.57,2.06-1.19V44.85L250.33,46Zm-7.9.13,8.5-4.91V41.26l-8.5,4.91Zm-3.26-17.77-1.67,1v1.92l1.67-1ZM236.85,45l-5.68,3.28v1.92l5.68-3.28Zm-.72-12.84-5,2.82v1.93l5-2.83Zm-2.89-2.8-2.07,1.19v1.92l2.07-1.19Zm27.64,24.37,5.21-3V48.76l-5.21,3Zm.09-7.43V44.33l-4.46,2.57v1.92Zm1.37-27.39,3.75-2.16V14.78l-3.75,2.16Zm0,26.59,3.75-2.16V41.37l-3.75,2.16Zm3.75,7.74-7.95,4.59V59.7l7.95-4.59Zm-3.23-16.9,3.23-1.86V32.51l-3.23,1.86Zm-2.06-3.24L266.09,30V28.07l-5.29,3.06Zm.08-8.92,5.21-3V19.21l-5.21,3Zm-2.74,6,7.95-4.59V23.64l-7.95,4.59Zm6.26,9.68,1.69-1V36.94l-1.69,1ZM236.94,65.59l-5.77,3.33v1.92l5.77-3.33Zm11.93-6.89-2.06,1.19v1.92l2.06-1.19ZM240.54,58l6-3.47V52.65l-6,3.47Zm16.22.53-3.34,1.94v1.92l3.34-1.94ZM241.06,47l-4.73,2.72V51.6l4.73-2.72ZM235,50.48l-3.79,2.18v1.93L235,52.4Zm3.26-4.4L245.35,42V40.05l-7.13,4.11Zm-5,9.82-2.07,1.2V59l2.07-1.2Zm8.59-3L249,48.75V46.83l-7.12,4.11Zm17.68-.31-9.27,5.35v1.92l9.27-5.35Zm-11.59,1.22,7.21-4.16V47.7l-7.21,4.16ZM262.86,9.7l3.23-1.87V5.91l-3.23,1.86ZM260.8,5l5.29-3V0L260.8,3.05Zm3.6,8.27,1.69-1V10.34l-1.69,1Zm-14.25-2.12,9.28-5.35V3.85L250.15,9.2Zm-19,15V28L235,25.8V23.88Zm15.55-13,2.06-1.19V10l-2.06,1.19Zm-5.66,7.26-4.73,2.73V25l4.73-2.73ZM238.22,18l7.13-4.11V12l-7.13,4.12Z"/><path class="cls-117" d="M285.72,116.35l-8.5,4.91v1.92l8.5-4.91Zm-.77-4-7.13,4.12v1.92l7.13-4.12Zm6.61.62-4.47,2.58v1.92l4.47-2.58Zm-5.32,9.43,2.06-1.19V119.3l-2.06,1.19Zm7,4.8,9.28-5.36v-1.92l-9.28,5.36Zm5.67-14.06-9.27,5.35v1.92l9.27-5.35Zm-9.18-1.64,9.27-5.35v-1.92l-9.27,5.35ZM301,116.39l-3.35,1.94v1.92l3.35-1.94Zm-8.07-2.28,3.35-1.93v-1.93l-3.35,1.94Zm-20.69,10-1.55.9V127l1.55-.9Zm14.08-10.64,2.06-1.19v-1.92l-2.06,1.19Zm-9.87,3.78-5.76,3.33v1.92l5.76-3.33ZM280,133l-5.84,3.37v1.92l5.84-3.37Zm-6.35-9.63v1.92l2.23-1.29v-1.92Zm18.2.28,4.46-2.58v-1.92l-4.46,2.58Zm-2,5.57L291.9,128v-1.92l-2.06,1.19Zm-7.9.13,8.5-4.91v-1.92l-8.5,4.91Zm-5.58-3.14-5.67,3.28v1.92l5.67-3.27Zm24.13,1.3v-1.92L296,128.13v1.92Zm1.37-.8,3.74-2.16V122.6l-3.74,2.16Zm3.74-38.05-8,4.6v1.92l8-4.59Zm-3.23,28.89,3.23-1.86v-1.92l-3.23,1.86Zm-2.06-3.24,5.29-3.06V109.3l-5.29,3.06Zm.09-8.92,5.2-3v-1.92l-5.2,3Zm-2.75,6,8-4.59v-1.92l-8,4.59Zm6.27,9.68,1.68-1v-1.92l-1.68,1Zm-23.86,18.21,6-3.47v-1.92l-6,3.47ZM296.28,94,292.93,96v1.92l3.35-1.93Zm-15.71,34.17-4.72,2.72v1.93l4.72-2.73Zm-6.09,3.52-3.79,2.19v1.92l3.79-2.19Zm3.26-4.4,7.12-4.11v-1.92l-7.12,4.11Zm-5,9.82-2.07,1.2v1.92l2.07-1.2Zm8.58-3,7.13-4.12v-1.92l-7.13,4.12Zm6.1.91,7.21-4.16v-1.92l-7.21,4.16Zm12.87-37.47,5.29-3.05V92.57l-5.29,3.05Zm-10.64,6.15,9.27-5.35V96.42l-9.27,5.35Zm-3.43,2,2.06-1.19v-1.92l-2.06,1.19Zm-8.5,4.91,7.12-4.12v-1.92l-7.12,4.12Z"/><g class="cls-118"><path class="cls-119" d="M266.27,98.16l-4.75-1a.6.6,0,0,1-.31-.15.45.45,0,0,1-.1-.33v-.38a1.12,1.12,0,0,1,.09-.44,2.72,2.72,0,0,1,.32-.52l4.75-6.46a.82.82,0,0,1,.28-.3.19.19,0,0,1,.2,0c.05,0,.08.09.08.2V90a1,1,0,0,1-.08.38,4.54,4.54,0,0,1-.27.42l-3.39,4.56,3.39.65a.56.56,0,0,1,.27.11.35.35,0,0,1,.08.26v1.26a.6.6,0,0,1-.08.28.63.63,0,0,1-.2.2A.28.28,0,0,1,266.27,98.16Z"/><path class="cls-119" d="M268.51,99.14c-.06,0-.08-.1-.08-.2a1.37,1.37,0,0,1,0-.19l4.77-15.89a1.74,1.74,0,0,1,.17-.33.77.77,0,0,1,.28-.26l.91-.53a.18.18,0,0,1,.21,0c.06,0,.08.09.08.19a1.23,1.23,0,0,1,0,.19L270.05,98a1.66,1.66,0,0,1-.14.31.84.84,0,0,1-.29.27l-.91.53A.21.21,0,0,1,268.51,99.14Z"/><path class="cls-119" d="M276.54,92.27c-.06,0-.08-.08-.08-.18V90.84a.8.8,0,0,1,.08-.37,4.54,4.54,0,0,1,.27-.42l3.39-4.56-3.39-.65a.56.56,0,0,1-.27-.11c-.06,0-.08-.14-.08-.28V83.21a.56.56,0,0,1,.08-.3.64.64,0,0,1,.2-.2.3.3,0,0,1,.28,0l4.75,1a.53.53,0,0,1,.31.15.55.55,0,0,1,.09.34v.38a1.2,1.2,0,0,1-.09.45,3.45,3.45,0,0,1-.31.5L277,92a1,1,0,0,1-.28.29A.21.21,0,0,1,276.54,92.27Z"/></g><g class="cls-120"><path class="cls-119" d="M298.91,143.71v7.18c0,1,.46,1.6,1.11,1.6a1.48,1.48,0,0,0,.73-.22l13.14-7.59a4.36,4.36,0,0,0,1.84-3.5V134c0-1-.46-1.61-1.11-1.61a1.48,1.48,0,0,0-.73.22l-13.14,7.59A4.4,4.4,0,0,0,298.91,143.71Zm.71.27,15.4-8.9v5.82l-15.4,8.9Zm4.21,1.11,7-4v-1l-7,4Z"/></g><path class="cls-121" d="M319.69,76.13c0,1.65.43,2.78,1.3,3.4s2.07.62,3.61,0v2.54l1.72-1V78.59a11.52,11.52,0,0,0,3.33-3.68,13.21,13.21,0,0,0,1.64-5.09l-3.1,1.4a7.92,7.92,0,0,1-.71,2.29,7.6,7.6,0,0,1-1.16,1.82V69.62a14.71,14.71,0,0,0,3.41-4.27A9.78,9.78,0,0,0,330.82,61a3.37,3.37,0,0,0-1.23-3c-.82-.54-1.91-.49-3.27.14V56.72l-1.72,1v1.35a10.53,10.53,0,0,0-4.42,7.29l3-1.28a5.47,5.47,0,0,1,1.42-3v5.32a17.14,17.14,0,0,0-3.88,4.53A9.06,9.06,0,0,0,319.69,76.13ZM326.32,61a1.17,1.17,0,0,1,1.12.28,1.63,1.63,0,0,1,.41,1.2,3.86,3.86,0,0,1-.38,1.56,6.22,6.22,0,0,1-1.15,1.66ZM322.6,75a4.11,4.11,0,0,1,.46-1.85,7,7,0,0,1,1.54-1.9v5.31a1.43,1.43,0,0,1-1.45-.11A1.73,1.73,0,0,1,322.6,75Z"/><g class="cls-118"><path class="cls-119" d="M297.34,47.54l1.15,2.35,0,0,1.16-3.67,1.15.1L299.07,50v0l2.76-2v1.46l-2.78,1.2v0l1.79,1.6-1.07,1.4-1.23-2.34,0,0L297.38,55,296.2,55l1.8-3.63v0l-2.84,2V51.84L298,50.63v0l-1.79-1.67Z"/><path class="cls-119" d="M289.54,52l1.15,2.36,0,0,1.16-3.67,1.15.09-1.77,3.65v0l2.77-2V54l-2.79,1.2v0l1.79,1.6L292,58.19l-1.22-2.34,0,0-1.13,3.67-1.18-.09,1.8-3.63v0l-2.84,2V56.34l2.84-1.21v0l-1.78-1.67Z"/><path class="cls-119" d="M281.75,56.54l1.14,2.36,0,0,1.16-3.67,1.15.09L283.47,59v0l2.77-2v1.47l-2.78,1.19v.05l1.78,1.6-1.07,1.39L283,60.36l0,0-1.13,3.67L280.6,64l1.8-3.63v0l-2.83,2V60.84l2.83-1.21v0l-1.78-1.66Z"/><path class="cls-119" d="M274,61.05l1.14,2.35,0,0,1.17-3.67,1.14.09-1.76,3.65v0l2.76-2V63l-2.78,1.19v0l1.78,1.6-1.07,1.39-1.22-2.33,0,0L274,68.55l-1.18-.09,1.81-3.63v0l-2.84,2V65.34l2.84-1.2v0l-1.79-1.66Z"/><path class="cls-119" d="M266.15,65.55l1.15,2.35,0,0,1.17-3.67,1.14.1L267.88,68v0l2.76-2v1.47l-2.78,1.2v0l1.78,1.6-1.07,1.39-1.22-2.33,0,0-1.12,3.67L265,73l1.81-3.63v0l-2.84,2V69.85l2.84-1.21v0L265,66.93Z"/></g><g class="cls-120"><path class="cls-119" d="M307.26,11.59l-7.68,12-7.69-3.14h0a2.72,2.72,0,0,1,.91-.88l13.56-7.83a1.18,1.18,0,0,1,.91-.17Z"/><path class="cls-119" d="M291.29,22.18v9.19c0,.95.68,1.34,1.51.86l13.56-7.83a3.31,3.31,0,0,0,1.5-2.6V12.62a1,1,0,0,0-.57-1l-5.12,8.82,5.12,2.92,0,0-5.5-2.25-2.18,3.77-7.71-4.4A3.15,3.15,0,0,0,291.29,22.18Zm.58,10.06L297,23.42l.41.23-5.5,8.6Z"/></g></g></g></g></svg>