<svg xmlns="http://www.w3.org/2000/svg" xmlns:xlink="http://www.w3.org/1999/xlink" viewBox="0 0 331.29 323.12"><defs><style>.cls-1{isolation:isolate;}.cls-101,.cls-2,.cls-20{opacity:0.2;}.cls-3{opacity:0;}.cls-4{opacity:0.09;}.cls-5{opacity:0.18;}.cls-6{opacity:0.27;}.cls-7{opacity:0.36;}.cls-8{opacity:0.45;}.cls-9{opacity:0.55;}.cls-10{opacity:0.64;}.cls-11{opacity:0.73;}.cls-12{opacity:0.82;}.cls-13{opacity:0.91;}.cls-14{fill:url(#linear-gradient);}.cls-15{fill:url(#linear-gradient-2);}.cls-16{fill:url(#linear-gradient-3);}.cls-17{fill:#fff;}.cls-18,.cls-82{opacity:0.8;}.cls-18{fill:url(#linear-gradient-4);}.cls-19{fill:url(#linear-gradient-5);}.cls-20{fill:url(#linear-gradient-6);}.cls-21{opacity:0.27;fill:url(#linear-gradient-7);}.cls-22{opacity:0.35;fill:url(#linear-gradient-8);}.cls-23{opacity:0.42;fill:url(#linear-gradient-9);}.cls-24{opacity:0.49;fill:url(#linear-gradient-10);}.cls-25{opacity:0.56;fill:url(#linear-gradient-11);}.cls-26{opacity:0.64;fill:url(#linear-gradient-12);}.cls-27{opacity:0.71;fill:url(#linear-gradient-13);}.cls-28{opacity:0.78;fill:url(#linear-gradient-14);}.cls-29{opacity:0.85;fill:url(#linear-gradient-15);}.cls-30{opacity:0.93;fill:url(#linear-gradient-16);}.cls-31{fill:url(#New_Gradient_Swatch_copy_7);}.cls-32{fill:url(#linear-gradient-17);}.cls-33{opacity:0.3;fill:url(#linear-gradient-18);}.cls-104,.cls-33,.cls-81,.cls-96{mix-blend-mode:screen;}.cls-101,.cls-103,.cls-34,.cls-40,.cls-86,.cls-91{mix-blend-mode:multiply;}.cls-34{fill:url(#linear-gradient-19);}.cls-35{fill:url(#New_Gradient_Swatch_copy_25);}.cls-36{fill:url(#linear-gradient-20);}.cls-37{fill:url(#linear-gradient-21);}.cls-38{fill:url(#New_Gradient_Swatch_copy_25-2);}.cls-39{fill:url(#linear-gradient-22);}.cls-40{fill:#f1f2f2;}.cls-41{fill:url(#linear-gradient-23);}.cls-42{fill:url(#linear-gradient-24);}.cls-43{fill:url(#linear-gradient-25);}.cls-44{fill:url(#linear-gradient-26);}.cls-45{fill:url(#linear-gradient-27);}.cls-46{fill:url(#linear-gradient-28);}.cls-47{fill:url(#linear-gradient-29);}.cls-48{fill:url(#linear-gradient-30);}.cls-49{fill:url(#linear-gradient-31);}.cls-50{fill:url(#linear-gradient-32);}.cls-51{fill:url(#linear-gradient-33);}.cls-52{fill:url(#linear-gradient-34);}.cls-53{fill:url(#linear-gradient-35);}.cls-54{fill:url(#linear-gradient-36);}.cls-55{fill:url(#linear-gradient-37);}.cls-56{fill:url(#linear-gradient-38);}.cls-57{fill:url(#linear-gradient-39);}.cls-58{fill:url(#linear-gradient-40);}.cls-59{fill:url(#linear-gradient-41);}.cls-60{fill:url(#linear-gradient-42);}.cls-61{fill:url(#linear-gradient-43);}.cls-62{fill:url(#linear-gradient-44);}.cls-63{fill:url(#linear-gradient-45);}.cls-64{fill:url(#linear-gradient-46);}.cls-65{fill:url(#linear-gradient-47);}.cls-66{fill:url(#linear-gradient-48);}.cls-67{fill:url(#linear-gradient-49);}.cls-68{fill:url(#linear-gradient-50);}.cls-69{fill:url(#linear-gradient-51);}.cls-70{fill:url(#linear-gradient-52);}.cls-71{fill:url(#linear-gradient-53);}.cls-72{fill:url(#linear-gradient-54);}.cls-73{fill:url(#linear-gradient-55);}.cls-74{fill:url(#linear-gradient-56);}.cls-75{fill:url(#linear-gradient-57);}.cls-76{fill:url(#linear-gradient-58);}.cls-77{fill:url(#linear-gradient-59);}.cls-78{fill:url(#linear-gradient-60);}.cls-79{fill:url(#linear-gradient-61);}.cls-80{fill:url(#linear-gradient-62);}.cls-81{fill:url(#linear-gradient-63);}.cls-83{fill:url(#New_Gradient_Swatch_copy_9);}.cls-84{fill:url(#New_Gradient_Swatch_copy_9-2);}.cls-85{fill:url(#New_Gradient_Swatch_copy_9-3);}.cls-86{fill:url(#linear-gradient-64);}.cls-87{fill:url(#New_Gradient_Swatch_copy_8);}.cls-117,.cls-118,.cls-120,.cls-121,.cls-88,.cls-93,.cls-98,.cls-99{mix-blend-mode:color-dodge;}.cls-89{fill:url(#Radial_Gradient_1);}.cls-90{fill:url(#Radial_Gradient_1-2);}.cls-91{fill:#e6cfc8;}.cls-92{fill:url(#New_Gradient_Swatch_copy_8-2);}.cls-93{fill:url(#Radial_Gradient_1-3);}.cls-94{fill:url(#linear-gradient-65);}.cls-95{fill:url(#linear-gradient-66);}.cls-96{fill:url(#radial-gradient);}.cls-97{fill:url(#linear-gradient-67);}.cls-98{fill:url(#radial-gradient-2);}.cls-99{fill:url(#radial-gradient-3);}.cls-100{fill:url(#linear-gradient-68);}.cls-101{fill:url(#radial-gradient-4);}.cls-102{fill:url(#New_Gradient_Swatch_copy_10);}.cls-103{fill:#eca30a;}.cls-103,.cls-117,.cls-118{opacity:0.7;}.cls-104{fill:url(#linear-gradient-69);}.cls-105{fill:url(#New_Gradient_Swatch_copy_10-2);}.cls-106{fill:url(#New_Gradient_Swatch_copy_10-3);}.cls-107{fill:#8b8c9e;}.cls-108{fill:url(#New_Gradient_Swatch_copy_9-4);}.cls-109{fill:url(#New_Gradient_Swatch_copy_9-5);}.cls-110{fill:url(#Radial_Gradient_1-4);}.cls-111{fill:url(#Radial_Gradient_1-5);}.cls-112{fill:url(#New_Gradient_Swatch_copy_36);}.cls-113{fill:url(#New_Gradient_Swatch_copy_36-2);}.cls-114{fill:url(#New_Gradient_Swatch_copy_36-3);}.cls-115{fill:url(#New_Gradient_Swatch_copy_36-4);}.cls-116{fill:url(#New_Gradient_Swatch_copy_36-5);}.cls-117,.cls-119,.cls-121{fill:#9f19ab;}.cls-120,.cls-121{opacity:0.5;}</style><linearGradient id="linear-gradient" x1="53.72" y1="237.74" x2="331.06" y2="237.74" gradientTransform="translate(-27.98)" gradientUnits="userSpaceOnUse"><stop offset="0.06" stop-color="#9f79b8"/><stop offset="0.26" stop-color="#a17bba"/><stop offset="0.36" stop-color="#a783bf"/><stop offset="0.43" stop-color="#b290c9"/><stop offset="0.49" stop-color="#c1a1d5"/><stop offset="0.51" stop-color="#c4a5d7"/><stop offset="0.52" stop-color="#cdb3dd"/><stop offset="0.53" stop-color="#dbc8e7"/><stop offset="0.55" stop-color="#efe7f4"/><stop offset="0.56" stop-color="#fff"/><stop offset="0.57" stop-color="#ece0f3"/><stop offset="0.58" stop-color="#ddc8ea"/><stop offset="0.59" stop-color="#d4b9e5"/><stop offset="0.6" stop-color="#d1b4e3"/><stop offset="0.66" stop-color="#b395d6"/><stop offset="0.72" stop-color="#9c7dcb"/><stop offset="0.77" stop-color="#8e6ec5"/><stop offset="0.81" stop-color="#8969c3"/><stop offset="1" stop-color="#b086cc"/></linearGradient><linearGradient id="linear-gradient-2" x1="47.82" y1="230.47" x2="314.63" y2="230.47" gradientTransform="translate(-27.98)" gradientUnits="userSpaceOnUse"><stop offset="0" stop-color="#2f054a"/><stop offset="1" stop-color="#5824b0"/></linearGradient><linearGradient id="linear-gradient-3" x1="50.8" y1="230.48" x2="311.65" y2="230.48" gradientTransform="translate(-27.98)" gradientUnits="userSpaceOnUse"><stop offset="0" stop-color="#3d065f"/><stop offset="1" stop-color="#5f27bd"/></linearGradient><linearGradient id="linear-gradient-4" x1="252.23" y1="53.16" x2="-1982.91" y2="1246.43" gradientTransform="matrix(0.87, 0.5, 0, 1.15, -20.34, -53.03)" gradientUnits="userSpaceOnUse"><stop offset="0.06" stop-color="#9f79b8"/><stop offset="0.26" stop-color="#a17bba"/><stop offset="0.37" stop-color="#a783bf"/><stop offset="0.45" stop-color="#b290c9"/><stop offset="0.51" stop-color="#c2a2d6"/><stop offset="0.56" stop-color="#d1b4e3"/><stop offset="0.66" stop-color="#b395d6"/><stop offset="0.75" stop-color="#9c7dcb"/><stop offset="0.84" stop-color="#8e6ec5"/><stop offset="0.92" stop-color="#8969c3"/></linearGradient><linearGradient id="linear-gradient-5" x1="249.85" y1="54.19" x2="-1985.28" y2="1247.45" gradientTransform="matrix(0.87, 0.5, 0, 1.15, -20.34, -53.03)" xlink:href="#linear-gradient-3"/><linearGradient id="linear-gradient-6" x1="353" y1="101.55" x2="141.44" y2="163.78" gradientTransform="translate(-27.98)" gradientUnits="userSpaceOnUse"><stop offset="0" stop-color="#4916a1"/><stop offset="0.52" stop-color="#5f27bd"/><stop offset="1" stop-color="#b4299a"/></linearGradient><linearGradient id="linear-gradient-7" x1="323.37" y1="75.37" x2="172.01" y2="197.9" gradientTransform="translate(-27.98)" gradientUnits="userSpaceOnUse"><stop offset="0" stop-color="#4421a4"/><stop offset="0.04" stop-color="#4622a5"/><stop offset="0.33" stop-color="#512cb4"/><stop offset="0.52" stop-color="#5934c0"/><stop offset="1" stop-color="#a73ca3"/></linearGradient><linearGradient id="linear-gradient-8" x1="287.14" y1="71.98" x2="214.68" y2="205.96" gradientTransform="translate(-27.98)" gradientUnits="userSpaceOnUse"><stop offset="0" stop-color="#3f2ba6"/><stop offset="0.04" stop-color="#412ca8"/><stop offset="0.34" stop-color="#4c39b7"/><stop offset="0.52" stop-color="#5342c2"/><stop offset="1" stop-color="#9b4eac"/></linearGradient><linearGradient id="linear-gradient-9" x1="265.39" y1="34.4" x2="242.33" y2="261.19" gradientTransform="translate(-27.98)" gradientUnits="userSpaceOnUse"><stop offset="0" stop-color="#3a36a9"/><stop offset="0.04" stop-color="#3c37aa"/><stop offset="0.33" stop-color="#4645b9"/><stop offset="0.52" stop-color="#4d4fc5"/><stop offset="1" stop-color="#8e61b6"/></linearGradient><linearGradient id="linear-gradient-10" x1="223.37" y1="23.46" x2="301.94" y2="283.73" gradientTransform="translate(-27.98)" gradientUnits="userSpaceOnUse"><stop offset="0" stop-color="#3541ab"/><stop offset="0.04" stop-color="#3741ac"/><stop offset="0.33" stop-color="#4050bb"/><stop offset="0.52" stop-color="#475cc8"/><stop offset="1" stop-color="#8274bf"/></linearGradient><linearGradient id="linear-gradient-11" x1="185.55" y1="45.1" x2="361.37" y2="259.16" gradientTransform="translate(-27.98)" gradientUnits="userSpaceOnUse"><stop offset="0" stop-color="#304bae"/><stop offset="0.04" stop-color="#324caf"/><stop offset="0.32" stop-color="#3a5bbd"/><stop offset="0.52" stop-color="#4169ca"/><stop offset="1" stop-color="#7586c8"/></linearGradient><linearGradient id="linear-gradient-12" x1="172.9" y1="86.54" x2="386.9" y2="200.33" gradientTransform="translate(-27.98)" gradientUnits="userSpaceOnUse"><stop offset="0" stop-color="#2c56b0"/><stop offset="0.04" stop-color="#2c56b1"/><stop offset="0.29" stop-color="#3365be"/><stop offset="0.52" stop-color="#3b77cd"/><stop offset="1" stop-color="#6999d1"/></linearGradient><linearGradient id="linear-gradient-13" x1="172.49" y1="122.81" x2="394.4" y2="143.78" gradientTransform="translate(-27.98)" gradientUnits="userSpaceOnUse"><stop offset="0" stop-color="#2760b3"/><stop offset="0.04" stop-color="#2761b4"/><stop offset="0.28" stop-color="#2d70c0"/><stop offset="0.52" stop-color="#3584cf"/><stop offset="1" stop-color="#5cabda"/></linearGradient><linearGradient id="linear-gradient-14" x1="176.83" y1="155.24" x2="393.98" y2="88" gradientTransform="translate(-27.98)" gradientUnits="userSpaceOnUse"><stop offset="0" stop-color="#226bb5"/><stop offset="0.04" stop-color="#226bb6"/><stop offset="0.26" stop-color="#277ac1"/><stop offset="0.52" stop-color="#2f91d2"/><stop offset="1" stop-color="#50bee3"/></linearGradient><linearGradient id="linear-gradient-15" x1="201.85" y1="175.93" x2="355.26" y2="48.08" gradientTransform="translate(-27.98)" gradientUnits="userSpaceOnUse"><stop offset="0" stop-color="#1d76b8"/><stop offset="0.04" stop-color="#1d76b8"/><stop offset="0.25" stop-color="#2285c3"/><stop offset="0.52" stop-color="#299ed5"/><stop offset="1" stop-color="#43d1ed"/></linearGradient><linearGradient id="linear-gradient-16" x1="230.6" y1="179.57" x2="305.07" y2="37.08" gradientTransform="translate(-27.98)" gradientUnits="userSpaceOnUse"><stop offset="0" stop-color="#1880ba"/><stop offset="0.04" stop-color="#1880bb"/><stop offset="0.23" stop-color="#1c8fc5"/><stop offset="0.52" stop-color="#23acd7"/><stop offset="1" stop-color="#37e3f6"/></linearGradient><linearGradient id="New_Gradient_Swatch_copy_7" x1="249.28" y1="209.21" x2="269.94" y2="-27.46" gradientTransform="translate(-27.98)" gradientUnits="userSpaceOnUse"><stop offset="0.04" stop-color="#138bbd"/><stop offset="0.23" stop-color="#169ac7"/><stop offset="0.59" stop-color="#1fc3df"/><stop offset="1" stop-color="#2af6ff"/></linearGradient><linearGradient id="linear-gradient-17" x1="-591.74" y1="405.92" x2="-713.35" y2="313.99" gradientTransform="matrix(0.87, 0.5, -1.5, 0.29, 1273.58, 440.43)" gradientUnits="userSpaceOnUse"><stop offset="0" stop-color="#3d065f"/><stop offset="1" stop-color="#12054e"/><stop offset="1" stop-color="#10054d"/></linearGradient><linearGradient id="linear-gradient-18" x1="161.14" y1="169.17" x2="229.27" y2="276.08" gradientTransform="translate(-27.98)" gradientUnits="userSpaceOnUse"><stop offset="0.06" stop-color="#9f79b8"/><stop offset="0.25" stop-color="#a17bba"/><stop offset="0.35" stop-color="#a883c0"/><stop offset="0.42" stop-color="#b490cc"/><stop offset="0.48" stop-color="#c5a3dc"/><stop offset="0.54" stop-color="#dbbbf0"/><stop offset="0.56" stop-color="#e6c6fa"/><stop offset="0.6" stop-color="#d6b6f1"/><stop offset="0.69" stop-color="#b595dd"/><stop offset="0.77" stop-color="#9d7dcf"/><stop offset="0.85" stop-color="#8e6ec6"/><stop offset="0.92" stop-color="#8969c3"/></linearGradient><linearGradient id="linear-gradient-19" x1="281.15" y1="63.52" x2="224.65" y2="202.52" gradientTransform="translate(-27.98)" gradientUnits="userSpaceOnUse"><stop offset="0" stop-color="#fff"/><stop offset="1" stop-color="#b4299a"/></linearGradient><linearGradient id="New_Gradient_Swatch_copy_25" x1="297.21" y1="115.8" x2="365.55" y2="102.47" gradientTransform="translate(-27.98)" gradientUnits="userSpaceOnUse"><stop offset="0" stop-color="#25054d"/><stop offset="1" stop-color="#45108a"/></linearGradient><linearGradient id="linear-gradient-20" x1="224.58" y1="73.55" x2="255.87" y2="-12.61" gradientTransform="translate(-27.98)" gradientUnits="userSpaceOnUse"><stop offset="0.01" stop-color="#5b15a3"/><stop offset="0.28" stop-color="#4e51bb"/><stop offset="0.93" stop-color="#2ee5f8"/><stop offset="1" stop-color="#2af6ff"/></linearGradient><linearGradient id="linear-gradient-21" x1="4865.63" y1="163.53" x2="5182.06" y2="92.6" gradientTransform="matrix(-1, 0, 0, 1, 5219.1, 0)" xlink:href="#linear-gradient-3"/><linearGradient id="New_Gradient_Swatch_copy_25-2" x1="247.74" y1="233.04" x2="183.72" y2="-89.16" xlink:href="#New_Gradient_Swatch_copy_25"/><linearGradient id="linear-gradient-22" x1="308.23" y1="117.97" x2="149.56" y2="3.38" gradientTransform="translate(-27.98)" gradientUnits="userSpaceOnUse"><stop offset="0.03" stop-color="#7c1dc9"/><stop offset="0.28" stop-color="#6e41d2"/><stop offset="0.83" stop-color="#4c9ce9"/><stop offset="1" stop-color="#41b9f0"/></linearGradient><linearGradient id="linear-gradient-23" x1="284.42" y1="132.7" x2="286.19" y2="108.92" gradientTransform="translate(-27.98)" gradientUnits="userSpaceOnUse"><stop offset="0" stop-color="#7c1dc9"/><stop offset="0.04" stop-color="#8024ca"/><stop offset="0.37" stop-color="#a362d5"/><stop offset="0.65" stop-color="#bc8edd"/><stop offset="0.87" stop-color="#cbaae1"/><stop offset="1" stop-color="#d1b4e3"/></linearGradient><linearGradient id="linear-gradient-24" x1="274.83" y1="166.12" x2="287.09" y2="118.11" xlink:href="#linear-gradient-23"/><linearGradient id="linear-gradient-25" x1="257.23" y1="116.95" x2="259" y2="93.17" xlink:href="#linear-gradient-23"/><linearGradient id="linear-gradient-26" x1="247.64" y1="150.37" x2="259.9" y2="102.36" xlink:href="#linear-gradient-23"/><linearGradient id="linear-gradient-27" x1="230.05" y1="101.2" x2="231.81" y2="77.42" xlink:href="#linear-gradient-23"/><linearGradient id="linear-gradient-28" x1="220.45" y1="134.62" x2="232.72" y2="86.61" xlink:href="#linear-gradient-23"/><linearGradient id="linear-gradient-29" x1="202.86" y1="85.45" x2="204.63" y2="61.67" xlink:href="#linear-gradient-23"/><linearGradient id="linear-gradient-30" x1="193.27" y1="118.87" x2="205.53" y2="70.86" xlink:href="#linear-gradient-23"/><linearGradient id="linear-gradient-31" x1="175.67" y1="69.7" x2="177.44" y2="45.92" xlink:href="#linear-gradient-23"/><linearGradient id="linear-gradient-32" x1="166.08" y1="103.12" x2="178.34" y2="55.11" xlink:href="#linear-gradient-23"/><linearGradient id="linear-gradient-33" x1="284.42" y1="209.45" x2="286.19" y2="185.67" xlink:href="#linear-gradient-23"/><linearGradient id="linear-gradient-34" x1="274.83" y1="242.87" x2="287.09" y2="194.86" xlink:href="#linear-gradient-23"/><linearGradient id="linear-gradient-35" x1="257.23" y1="193.7" x2="259" y2="169.92" xlink:href="#linear-gradient-23"/><linearGradient id="linear-gradient-36" x1="247.64" y1="227.12" x2="259.9" y2="179.11" xlink:href="#linear-gradient-23"/><linearGradient id="linear-gradient-37" x1="230.05" y1="177.95" x2="231.81" y2="154.17" xlink:href="#linear-gradient-23"/><linearGradient id="linear-gradient-38" x1="220.45" y1="211.37" x2="232.72" y2="163.36" xlink:href="#linear-gradient-23"/><linearGradient id="linear-gradient-39" x1="202.86" y1="162.2" x2="204.63" y2="138.42" xlink:href="#linear-gradient-23"/><linearGradient id="linear-gradient-40" x1="193.27" y1="195.62" x2="205.53" y2="147.61" xlink:href="#linear-gradient-23"/><linearGradient id="linear-gradient-41" x1="175.67" y1="146.45" x2="177.44" y2="122.67" xlink:href="#linear-gradient-23"/><linearGradient id="linear-gradient-42" x1="166.08" y1="179.87" x2="178.34" y2="131.86" xlink:href="#linear-gradient-23"/><linearGradient id="linear-gradient-43" x1="284.42" y1="183.7" x2="286.19" y2="159.92" xlink:href="#linear-gradient-23"/><linearGradient id="linear-gradient-44" x1="274.83" y1="217.12" x2="287.09" y2="169.11" xlink:href="#linear-gradient-23"/><linearGradient id="linear-gradient-45" x1="257.23" y1="167.95" x2="259" y2="144.17" xlink:href="#linear-gradient-23"/><linearGradient id="linear-gradient-46" x1="247.64" y1="201.37" x2="259.9" y2="153.36" xlink:href="#linear-gradient-23"/><linearGradient id="linear-gradient-47" x1="230.05" y1="152.2" x2="231.81" y2="128.42" xlink:href="#linear-gradient-23"/><linearGradient id="linear-gradient-48" x1="220.45" y1="185.62" x2="232.72" y2="137.61" xlink:href="#linear-gradient-23"/><linearGradient id="linear-gradient-49" x1="202.86" y1="136.45" x2="204.63" y2="112.67" xlink:href="#linear-gradient-23"/><linearGradient id="linear-gradient-50" x1="193.27" y1="169.87" x2="205.53" y2="121.86" xlink:href="#linear-gradient-23"/><linearGradient id="linear-gradient-51" x1="175.67" y1="120.7" x2="177.44" y2="96.92" xlink:href="#linear-gradient-23"/><linearGradient id="linear-gradient-52" x1="166.08" y1="154.12" x2="178.34" y2="106.11" xlink:href="#linear-gradient-23"/><linearGradient id="linear-gradient-53" x1="284.42" y1="158.45" x2="286.19" y2="134.67" xlink:href="#linear-gradient-23"/><linearGradient id="linear-gradient-54" x1="274.83" y1="191.87" x2="287.09" y2="143.86" xlink:href="#linear-gradient-23"/><linearGradient id="linear-gradient-55" x1="257.23" y1="142.7" x2="259" y2="118.92" xlink:href="#linear-gradient-23"/><linearGradient id="linear-gradient-56" x1="247.64" y1="176.12" x2="259.9" y2="128.11" xlink:href="#linear-gradient-23"/><linearGradient id="linear-gradient-57" x1="230.05" y1="126.95" x2="231.81" y2="103.17" xlink:href="#linear-gradient-23"/><linearGradient id="linear-gradient-58" x1="220.45" y1="160.37" x2="232.72" y2="112.36" xlink:href="#linear-gradient-23"/><linearGradient id="linear-gradient-59" x1="202.86" y1="111.2" x2="204.63" y2="87.42" xlink:href="#linear-gradient-23"/><linearGradient id="linear-gradient-60" x1="193.27" y1="144.62" x2="205.53" y2="96.61" xlink:href="#linear-gradient-23"/><linearGradient id="linear-gradient-61" x1="175.67" y1="95.45" x2="177.44" y2="71.67" xlink:href="#linear-gradient-23"/><linearGradient id="linear-gradient-62" x1="166.08" y1="128.87" x2="178.34" y2="80.86" xlink:href="#linear-gradient-23"/><linearGradient id="linear-gradient-63" x1="264.27" y1="127.33" x2="296.38" y2="89.87" gradientTransform="translate(-27.98)" gradientUnits="userSpaceOnUse"><stop offset="0" stop-color="#43e8e1"/><stop offset="0.09" stop-color="#36bdb7"/><stop offset="0.22" stop-color="#288b87"/><stop offset="0.34" stop-color="#1c605d"/><stop offset="0.47" stop-color="#123e3c"/><stop offset="0.6" stop-color="#0a2321"/><stop offset="0.73" stop-color="#040f0f"/><stop offset="0.86" stop-color="#010404"/><stop offset="1"/></linearGradient><linearGradient id="New_Gradient_Swatch_copy_9" x1="321.54" y1="150.16" x2="352.65" y2="140.85" gradientTransform="translate(-27.98)" gradientUnits="userSpaceOnUse"><stop offset="0.04" stop-color="#9f19ab"/><stop offset="0.24" stop-color="#ae25b1"/><stop offset="0.65" stop-color="#d744bf"/><stop offset="1" stop-color="#ff63ce"/></linearGradient><linearGradient id="New_Gradient_Swatch_copy_9-2" x1="103.48" y1="154.21" x2="433.51" y2="80.22" xlink:href="#New_Gradient_Swatch_copy_9"/><linearGradient id="New_Gradient_Swatch_copy_9-3" x1="281.62" y1="77.62" x2="267.09" y2="105.32" xlink:href="#New_Gradient_Swatch_copy_9"/><linearGradient id="linear-gradient-64" x1="225.2" y1="93.46" x2="159.56" y2="187.17" gradientTransform="translate(-27.98)" gradientUnits="userSpaceOnUse"><stop offset="0" stop-color="#fff"/><stop offset="0.27" stop-color="#f4eef4"/><stop offset="0.79" stop-color="#d8c4d7"/><stop offset="1" stop-color="#ccb1cb"/></linearGradient><linearGradient id="New_Gradient_Swatch_copy_8" x1="165.21" y1="145.37" x2="174.94" y2="14.57" gradientTransform="translate(-27.98)" gradientUnits="userSpaceOnUse"><stop offset="0.04" stop-color="#ffa98c"/><stop offset="0.32" stop-color="#ffb892"/><stop offset="0.86" stop-color="#fee1a3"/><stop offset="1" stop-color="#feeca8"/></linearGradient><radialGradient id="Radial_Gradient_1" cx="140.11" cy="90.47" r="19.83" gradientTransform="translate(-27.98)" gradientUnits="userSpaceOnUse"><stop offset="0" stop-color="#fff"/><stop offset="1"/></radialGradient><radialGradient id="Radial_Gradient_1-2" cx="180.4" cy="133.65" r="35.74" xlink:href="#Radial_Gradient_1"/><linearGradient id="New_Gradient_Swatch_copy_8-2" x1="112.33" y1="336.9" x2="183.3" y2="59.08" xlink:href="#New_Gradient_Swatch_copy_8"/><radialGradient id="Radial_Gradient_1-3" cx="145.35" cy="153.71" r="57.56" xlink:href="#Radial_Gradient_1"/><linearGradient id="linear-gradient-65" x1="144.02" y1="116.02" x2="176.82" y2="173.76" gradientTransform="translate(-27.98)" gradientUnits="userSpaceOnUse"><stop offset="0.04" stop-color="#f7aa90"/><stop offset="0.18" stop-color="#f9b996"/><stop offset="0.47" stop-color="#ffe2a6"/><stop offset="0.48" stop-color="#ffe4a7"/><stop offset="0.74" stop-color="#f7aa90"/></linearGradient><linearGradient id="linear-gradient-66" x1="154.43" y1="129.16" x2="186.93" y2="169.19" gradientTransform="translate(-27.98)" gradientUnits="userSpaceOnUse"><stop offset="0.04" stop-color="#f7aa90"/><stop offset="0.28" stop-color="#f9b996"/><stop offset="0.76" stop-color="#ffe2a6"/><stop offset="0.78" stop-color="#ffe4a7"/><stop offset="0.87" stop-color="#f7aa90"/></linearGradient><radialGradient id="radial-gradient" cx="173.24" cy="144.11" r="36.73" gradientTransform="translate(-27.98)" gradientUnits="userSpaceOnUse"><stop offset="0.36" stop-color="#fff"/><stop offset="0.43" stop-color="#e1e1e1"/><stop offset="0.64" stop-color="#828282"/><stop offset="0.81" stop-color="#3c3c3c"/><stop offset="0.94" stop-color="#111"/><stop offset="1"/></radialGradient><linearGradient id="linear-gradient-67" x1="155.09" y1="119.59" x2="162.19" y2="258.54" gradientTransform="translate(-27.98)" gradientUnits="userSpaceOnUse"><stop offset="0" stop-color="#fff3a7"/><stop offset="0.11" stop-color="#fde8a0"/><stop offset="0.41" stop-color="#f8d092"/><stop offset="0.69" stop-color="#f5c18a"/><stop offset="0.92" stop-color="#f4bc87"/></linearGradient><radialGradient id="radial-gradient-2" cx="171.16" cy="184.42" r="30.09" gradientTransform="translate(-27.98)" gradientUnits="userSpaceOnUse"><stop offset="0" stop-color="#92402e"/><stop offset="1"/></radialGradient><radialGradient id="radial-gradient-3" cx="174.83" cy="184.52" r="15.3" gradientTransform="translate(-27.98)" gradientUnits="userSpaceOnUse"><stop offset="0" stop-color="#ff63ce"/><stop offset="1"/></radialGradient><linearGradient id="linear-gradient-68" x1="151.4" y1="97.54" x2="165.64" y2="224.74" xlink:href="#New_Gradient_Swatch_copy_8"/><radialGradient id="radial-gradient-4" cx="143.85" cy="-3104.37" r="21.03" gradientTransform="translate(-27.98 5322.26) scale(1 1.66)" gradientUnits="userSpaceOnUse"><stop offset="0.14" stop-color="#25166d"/><stop offset="0.22" stop-color="#2c1d72"/><stop offset="0.34" stop-color="#3e317e"/><stop offset="0.48" stop-color="#5d5293"/><stop offset="0.64" stop-color="#887faf"/><stop offset="0.82" stop-color="#bebad4"/><stop offset="1" stop-color="#fff"/></radialGradient><linearGradient id="New_Gradient_Swatch_copy_10" x1="164.59" y1="157.92" x2="147.77" y2="146.55" gradientTransform="translate(-27.98)" gradientUnits="userSpaceOnUse"><stop offset="0.04" stop-color="#9d9eb3"/><stop offset="0.58" stop-color="#d4d1d8"/><stop offset="1" stop-color="#eeebf2"/></linearGradient><linearGradient id="linear-gradient-69" x1="128.64" y1="165.16" x2="126.62" y2="112.08" xlink:href="#linear-gradient-63"/><linearGradient id="New_Gradient_Swatch_copy_10-2" x1="60.49" y1="194.53" x2="173.86" y2="155.38" xlink:href="#New_Gradient_Swatch_copy_10"/><linearGradient id="New_Gradient_Swatch_copy_10-3" x1="106.12" y1="185.49" x2="251.05" y2="79.72" xlink:href="#New_Gradient_Swatch_copy_10"/><linearGradient id="New_Gradient_Swatch_copy_9-4" x1="119.48" y1="224.02" x2="64.68" y2="181.64" xlink:href="#New_Gradient_Swatch_copy_9"/><linearGradient id="New_Gradient_Swatch_copy_9-5" x1="72.38" y1="228.49" x2="104.92" y2="133.38" xlink:href="#New_Gradient_Swatch_copy_9"/><radialGradient id="Radial_Gradient_1-4" cx="91.01" cy="206.75" r="10.26" xlink:href="#Radial_Gradient_1"/><radialGradient id="Radial_Gradient_1-5" cx="79.22" cy="182.4" r="21.04" xlink:href="#Radial_Gradient_1"/><linearGradient id="New_Gradient_Swatch_copy_36" x1="-280.39" y1="-779.4" x2="-233.99" y2="-811.86" gradientTransform="matrix(0.87, -0.5, 0, 1.15, 306.8, 963.58)" gradientUnits="userSpaceOnUse"><stop offset="0.1" stop-color="#45108a"/><stop offset="1" stop-color="#7c1dc9"/></linearGradient><linearGradient id="New_Gradient_Swatch_copy_36-2" x1="-277.68" y1="-775.53" x2="-231.28" y2="-807.99" xlink:href="#New_Gradient_Swatch_copy_36"/><linearGradient id="New_Gradient_Swatch_copy_36-3" x1="-274.97" y1="-771.66" x2="-228.57" y2="-804.12" xlink:href="#New_Gradient_Swatch_copy_36"/><linearGradient id="New_Gradient_Swatch_copy_36-4" x1="-272.26" y1="-767.79" x2="-225.86" y2="-800.25" xlink:href="#New_Gradient_Swatch_copy_36"/><linearGradient id="New_Gradient_Swatch_copy_36-5" x1="-269.56" y1="-763.92" x2="-223.15" y2="-796.37" xlink:href="#New_Gradient_Swatch_copy_36"/></defs><g class="cls-1"><g id="Layer_2" data-name="Layer 2"><g id="Layer_1-2" data-name="Layer 1"><g class="cls-2"><path class="cls-3" d="M183.21,323.12a28.19,28.19,0,0,1-14.1-3.4L19.71,233.47c-5.14-3-8.09-7.67-8.09-12.9,0-5.72,3.55-11.06,9.74-14.63L106.15,157a34.71,34.71,0,0,1,17.13-4.36,28.33,28.33,0,0,1,14.11,3.4l149.39,86.25c5.15,3,8.1,7.67,8.1,12.9,0,5.72-3.56,11.06-9.75,14.64l-84.78,48.95A34.85,34.85,0,0,1,183.21,323.12Z"/><path class="cls-4" d="M106.52,157.63a34,34,0,0,1,17.08-4.23,32.47,32.47,0,0,1,7,.86,27.32,27.32,0,0,1,7,2.75l148.83,85.92c5.12,3,7.79,7.64,7.48,12.73a15.13,15.13,0,0,1-.9,4.12c-1.3,3.64-5,7.51-9.16,9.93L200.24,318a33.07,33.07,0,0,1-3.63,1.79,35.57,35.57,0,0,1-13.22,2.62,27.59,27.59,0,0,1-13.91-3.3L20.08,232.82c-5.13-3-7.78-7.66-7.45-12.76a15.52,15.52,0,0,1,.71-3.55c1.2-3.85,5-8,9.4-10.51Z"/><path class="cls-5" d="M106.9,158.28a33.24,33.24,0,0,1,17-4.11,32.27,32.27,0,0,1,6.94,1,32.83,32.83,0,0,1,6.91,2.84L286,243.58c5.1,2.94,7.5,7.6,6.87,12.56a16.37,16.37,0,0,1-1.11,3.93c-1.26,3.24-5.5,7.35-9.27,9.52l-82.38,47.57a36,36,0,0,1-3.57,1.78,34.81,34.81,0,0,1-13,2.67,27,27,0,0,1-13.72-3.18L20.46,232.17c-5.12-2.95-7.49-7.64-6.81-12.62a17.78,17.78,0,0,1,.9-3.38c1.2-3.43,5.62-7.82,9.57-10.1Z"/><path class="cls-6" d="M107.27,158.93a31.8,31.8,0,0,1,23.87-2.9A36.88,36.88,0,0,1,138,159l147.69,85.27c5.07,2.92,7.2,7.56,6.25,12.4a18.64,18.64,0,0,1-1.31,3.73c-1.22,2.84-6,7.19-9.38,9.12L200,316.35c-.85.49-2.57,1.39-3.5,1.78a34.58,34.58,0,0,1-12.78,2.73,26.47,26.47,0,0,1-13.53-3.08L20.83,231.52c-5.1-2.94-7.19-7.62-6.16-12.48a21.5,21.5,0,0,1,1.1-3.22c1.16-3,6.21-7.65,9.73-9.68Z"/><path class="cls-7" d="M107.64,159.57a30.72,30.72,0,0,1,23.76-2.65,45.23,45.23,0,0,1,6.77,3l147.12,84.94c5,2.92,6.92,7.53,5.63,12.24a22.47,22.47,0,0,1-1.52,3.54c-1.15,2.45-6.56,7-9.49,8.72l-80,46.18c-.74.42-2.63,1.42-3.44,1.77a34,34,0,0,1-12.56,2.79,25.8,25.8,0,0,1-13.34-3L21.21,230.88c-5.1-2.94-6.92-7.61-5.53-12.35a31.47,31.47,0,0,1,1.3-3.06c1.11-2.59,6.82-7.49,9.89-9.26Z"/><path class="cls-8" d="M108,160.22a29.68,29.68,0,0,1,23.65-2.41,54,54,0,0,1,6.69,3.1l146.55,84.61c5,2.9,6.65,7.48,5,12.07A30,30,0,0,1,288.2,261c-1.05,2.06-7.08,6.86-9.59,8.31l-78.77,45.48c-.63.37-2.68,1.46-3.38,1.77a33.37,33.37,0,0,1-12.34,2.84A25.22,25.22,0,0,1,171,316.48L21.58,230.23c-5.08-2.93-6.64-7.58-4.88-12.2.37-1,1-1.87,1.49-2.9,1-2.19,7.43-7.33,10.06-8.85Z"/><path class="cls-9" d="M108.39,160.87a30.31,30.31,0,0,1,16.83-3.62,30.81,30.81,0,0,1,6.72,1.45,70.86,70.86,0,0,1,6.61,3.18l146,84.29c5,2.88,6.38,7.44,4.41,11.91a13.13,13.13,0,0,1-1.95,3.16c-.59,1.83-7.6,6.71-9.7,7.91l-77.56,44.79c-.53.3-2.74,1.5-3.32,1.76a33,33,0,0,1-12.12,2.9,24.58,24.58,0,0,1-13-2.76L22,229.58c-5.06-2.92-6.38-7.56-4.23-12.06a13.1,13.1,0,0,1,1.69-2.74c.54-1.94,8-7.17,10.22-8.44Z"/><path class="cls-10" d="M108.76,161.52a29.69,29.69,0,0,1,16.79-3.5,30.08,30.08,0,0,1,6.66,1.57c.92.3,5.78,2.83,6.54,3.27l145.42,84c5,2.87,6.13,7.4,3.79,11.74a13.52,13.52,0,0,1-2.15,3c-.48,1.47-8.14,6.55-9.81,7.51l-76.36,44.09c-.42.24-2.79,1.55-3.26,1.76a32.32,32.32,0,0,1-11.9,2.95,24,24,0,0,1-12.76-2.65L22.33,228.94c-5.06-2.92-6.14-7.55-3.6-11.93a13.44,13.44,0,0,1,1.89-2.57c.43-1.56,8.63-7,10.38-8Z"/><path class="cls-11" d="M109.14,162.16a29.11,29.11,0,0,1,16.73-3.38,30.19,30.19,0,0,1,6.6,1.7c.69.24,5.91,3,6.47,3.36l144.85,83.62c4.95,2.86,5.9,7.39,3.18,11.58a13.58,13.58,0,0,1-2.36,2.78c-.36,1.1-8.66,6.39-9.92,7.11l-75.15,43.39c-.32.19-2.85,1.6-3.19,1.76a32.14,32.14,0,0,1-11.69,3,23.3,23.3,0,0,1-12.56-2.55L22.7,228.29c-5-2.91-5.9-7.55-2.95-11.79a14.28,14.28,0,0,1,2.08-2.41c.33-1.16,9.23-6.85,10.55-7.61Z"/><path class="cls-12" d="M109.51,162.81a28.59,28.59,0,0,1,16.69-3.26,29.46,29.46,0,0,1,6.54,1.82c.46.16,6,3.22,6.4,3.44l144.28,83.3c4.92,2.84,5.66,7.37,2.56,11.42a13.91,13.91,0,0,1-2.57,2.58c-.24.74-9.18,6.23-10,6.71l-73.95,42.7c-.21.12-2.9,1.64-3.13,1.75a31.6,31.6,0,0,1-11.47,3.07c-4.62.25-9.1-.56-12.37-2.45L23.08,227.64c-5-2.9-5.68-7.55-2.31-11.65a14.27,14.27,0,0,1,2.28-2.24c.21-.78,9.83-6.7,10.71-7.2Z"/><path class="cls-13" d="M109.89,163.46a27.89,27.89,0,0,1,16.63-3.14,29.38,29.38,0,0,1,6.49,1.94c.23.09,6.13,3.42,6.32,3.53l143.71,83c4.91,2.83,5.44,7.36,2,11.25a14.82,14.82,0,0,1-2.78,2.39c-.12.37-9.72,6.07-10.13,6.31l-72.75,42-3.07,1.75A31.1,31.1,0,0,1,185,315.58c-4.53.29-9-.48-12.18-2.33L23.45,227c-5-2.89-5.45-7.57-1.67-11.51a15,15,0,0,1,2.48-2.08c.11-.39,10.44-6.53,10.88-6.78Z"/><path d="M173.22,312.6,23.82,226.35c-5.9-3.41-5.16-9.36,1.66-13.29l84.78-48.95c6.81-3.94,17.12-4.36,23-1l149.39,86.26c5.9,3.4,5.16,9.35-1.65,13.28l-84.79,48.95C189.42,315.58,179.12,316,173.22,312.6Z"/></g><path class="cls-14" d="M173.22,312.46,23.82,226.21c-2.63-1.52-3.94-3.54-4-5.67v-7.4c.05-2.58,2,1.9,5.64-.22L110.26,164c6.81-3.93,17.12-4.36,23-.95l149.39,86.25c2,1.14,3.4-3.69,3.91-2.16.17.52.06,7.29.07,7.82.06,2.64-1.85,5.44-5.63,7.63l-84.79,48.95C189.42,315.44,179.12,315.87,173.22,312.46Z"/><path class="cls-15" d="M173.22,305.2,23.82,218.94c-5.9-3.4-5.16-9.35,1.66-13.28l84.78-48.95c6.81-3.94,17.12-4.36,23-1L282.67,242c5.9,3.41,5.16,9.36-1.65,13.29l-84.79,49C189.42,308.18,179.12,308.6,173.22,305.2Z"/><path class="cls-16" d="M183.21,304.51a17.36,17.36,0,0,1-8.5-1.9L25.31,216.36c-.93-.54-2.49-1.66-2.49-3.19s1.55-3.43,4.15-4.93l84.78-49a23.75,23.75,0,0,1,11.53-2.85,17.36,17.36,0,0,1,8.5,1.9l149.4,86.25c.93.54,2.49,1.66,2.49,3.19s-1.55,3.43-4.14,4.93l-84.79,49A23.75,23.75,0,0,1,183.21,304.51Z"/><path class="cls-17" d="M281,254.06,196.23,303c-6.81,3.93-17.11,4.36-23,.95L23.82,217.71c-2.44-1.41-3.73-3.26-3.93-5.23-.31,2.41,1,4.76,3.93,6.46l149.4,86.26c5.9,3.4,16.2,3,23-1l84.79-49c4-2.3,5.87-5.29,5.59-8.06C286.3,249.63,284.42,252.1,281,254.06Z"/><path class="cls-18" d="M280.83,238.68,133.89,153.85a12.32,12.32,0,0,1-5.67-14.06l32-110.73a12.3,12.3,0,0,1,18-7.25l146.94,84.83a12.32,12.32,0,0,1,5.67,14.06l-32,110.73A12.29,12.29,0,0,1,280.83,238.68Z"/><path class="cls-19" d="M278.77,238.68,131.83,153.85a12.32,12.32,0,0,1-5.67-14.06l32-110.73a12.31,12.31,0,0,1,18-7.25l146.93,84.83a12.29,12.29,0,0,1,5.67,14.06l-32,110.73A12.29,12.29,0,0,1,278.77,238.68Z"/><path class="cls-20" d="M284.9,236.23a8,8,0,0,1-4.07-1.11L133.89,150.29a8.18,8.18,0,0,1-3.78-9.36l32-110.73A8.25,8.25,0,0,1,170,24.27a8.09,8.09,0,0,1,4.08,1.1L321,110.2a8.18,8.18,0,0,1,3.77,9.36l-32,110.74A8.24,8.24,0,0,1,284.9,236.23Z"/><path class="cls-21" d="M284.75,235.94a8,8,0,0,1-4.06-1.1L134.28,150.31a8.13,8.13,0,0,1-3.76-9.32l31.91-110.4a8.21,8.21,0,0,1,7.86-5.91,8,8,0,0,1,4.06,1.1l146.41,84.53a8.13,8.13,0,0,1,3.76,9.32L292.61,230A8.21,8.21,0,0,1,284.75,235.94Z"/><path class="cls-22" d="M284.59,235.66a8,8,0,0,1-4-1.1L134.67,150.34a8.12,8.12,0,0,1-3.75-9.3L162.74,31a8.13,8.13,0,0,1,11.88-4.8l145.87,84.23a8.1,8.1,0,0,1,3.75,9.29L292.43,229.77A8.2,8.2,0,0,1,284.59,235.66Z"/><path class="cls-23" d="M284.44,235.37a8,8,0,0,1-4-1.09L135.06,150.36a8.08,8.08,0,0,1-3.74-9.26L163,31.37a8.16,8.16,0,0,1,7.81-5.87,8,8,0,0,1,4,1.09l145.35,83.92a8.1,8.1,0,0,1,3.74,9.26L292.24,229.5A8.14,8.14,0,0,1,284.44,235.37Z"/><path class="cls-24" d="M284.28,235.08a7.94,7.94,0,0,1-4-1.08L135.44,150.38a8.06,8.06,0,0,1-3.72-9.22l31.63-109.4a8.13,8.13,0,0,1,7.77-5.85,8,8,0,0,1,4,1.09L320,110.61a8.08,8.08,0,0,1,3.73,9.23l-31.63,109.4A8.12,8.12,0,0,1,284.28,235.08Z"/><path class="cls-25" d="M284.13,234.8a7.89,7.89,0,0,1-4-1.09l-144.3-83.3a8,8,0,0,1-3.7-9.19L163.65,32.15a8.11,8.11,0,0,1,7.75-5.83,8,8,0,0,1,4,1.09l144.29,83.3a8,8,0,0,1,3.71,9.19L291.88,229A8.11,8.11,0,0,1,284.13,234.8Z"/><path class="cls-26" d="M284,234.51a7.89,7.89,0,0,1-4-1.08l-143.76-83a8,8,0,0,1-3.69-9.16L164,32.54a8.07,8.07,0,0,1,7.72-5.81,7.94,7.94,0,0,1,4,1.08l143.76,83a8,8,0,0,1,3.7,9.16L291.69,228.71A8,8,0,0,1,284,234.51Z"/><path class="cls-27" d="M283.82,234.23a7.93,7.93,0,0,1-4-1.08l-143.23-82.7a8,8,0,0,1-3.68-9.12l31.34-108.4A8,8,0,0,1,172,27.14a7.87,7.87,0,0,1,4,1.08l143.24,82.7a8,8,0,0,1,3.68,9.12l-31.34,108.4A8,8,0,0,1,283.82,234.23Z"/><path class="cls-28" d="M283.66,233.94a7.88,7.88,0,0,1-4-1.07L137,150.48a8,8,0,0,1-3.67-9.09L164.57,33.32a8,8,0,0,1,7.67-5.76,7.88,7.88,0,0,1,4,1.07L318.9,111a8,8,0,0,1,3.67,9.09L291.33,228.18A8,8,0,0,1,283.66,233.94Z"/><path class="cls-29" d="M283.51,233.65a7.9,7.9,0,0,1-3.95-1.06L137.39,150.5a7.92,7.92,0,0,1-3.66-9.06L164.88,33.71A7.93,7.93,0,0,1,176.46,29l142.18,82.09a7.92,7.92,0,0,1,3.65,9.06L291.14,227.91A8,8,0,0,1,283.51,233.65Z"/><path class="cls-30" d="M283.35,233.37a7.77,7.77,0,0,1-3.93-1.07L137.78,150.52a7.87,7.87,0,0,1-3.64-9L165.19,34.1a7.94,7.94,0,0,1,7.6-5.72,7.8,7.8,0,0,1,3.93,1.06l141.65,81.78a7.88,7.88,0,0,1,3.64,9L291,227.65A8,8,0,0,1,283.35,233.37Z"/><path class="cls-31" d="M283.2,233.08a7.7,7.7,0,0,1-3.92-1.06L138.16,150.55a7.85,7.85,0,0,1-3.62-9l31-107.07a7.92,7.92,0,0,1,7.58-5.7A7.8,7.8,0,0,1,177,29.85L318.1,111.32a7.86,7.86,0,0,1,3.63,9l-31,107.08A7.93,7.93,0,0,1,283.2,233.08Z"/><path class="cls-17" d="M323.08,106.64,176.15,21.81a12.25,12.25,0,0,0-8.43-1.43A12.18,12.18,0,0,1,175.19,22l146.93,84.83a12.29,12.29,0,0,1,5.67,14.06l-32,110.73a12.28,12.28,0,0,1-9.55,8.68,12.27,12.27,0,0,0,10.5-8.82l32-110.73A12.29,12.29,0,0,0,323.08,106.64Z"/><path class="cls-32" d="M199.77,273.43,78.45,203.38c-2.43-1.4-2.12-3.85.68-5.47l45.55-26.29c2.8-1.62,7-1.8,9.48-.4l121.31,70c2.43,1.41,2.13,3.86-.68,5.48L209.24,273C206.44,274.65,202.2,274.83,199.77,273.43Z"/><path class="cls-33" d="M127.33,176.73l7.78,4.49a3.94,3.94,0,0,0,3.57,0,1.09,1.09,0,0,0,0-2.06l-7.78-4.49a4,4,0,0,0-3.57,0A1.09,1.09,0,0,0,127.33,176.73Zm13.31,7.69,3.69,2.12a3.91,3.91,0,0,0,3.57,0c1-.57,1-1.49,0-2.06l-3.68-2.13a3.94,3.94,0,0,0-3.57,0A1.09,1.09,0,0,0,140.64,184.42Zm9.22,5.32,3.69,2.13a3.92,3.92,0,0,0,3.56,0c1-.56,1-1.49,0-2.06l-3.68-2.12a3.94,3.94,0,0,0-3.57,0A1.09,1.09,0,0,0,149.86,189.74Zm9.22,5.32,3.68,2.13a4,4,0,0,0,3.57,0c1-.57,1-1.49,0-2.06L162.64,193a4,4,0,0,0-3.57,0A1.09,1.09,0,0,0,159.08,195.06Zm9.22,5.33,3.68,2.12a3.94,3.94,0,0,0,3.57,0,1.09,1.09,0,0,0,0-2.06l-3.68-2.13a3.94,3.94,0,0,0-3.57,0A1.09,1.09,0,0,0,168.3,200.39Zm9.22,5.32,3.68,2.12a3.91,3.91,0,0,0,3.57,0,1.09,1.09,0,0,0,0-2.06l-3.68-2.13a3.94,3.94,0,0,0-3.57,0A1.09,1.09,0,0,0,177.52,205.71Zm9.22,5.32,3.68,2.13a3.94,3.94,0,0,0,3.57,0,1.09,1.09,0,0,0,0-2.06L190.3,209a3.94,3.94,0,0,0-3.57,0A1.09,1.09,0,0,0,186.74,211Zm9.22,5.32,3.68,2.13a4,4,0,0,0,3.57,0,1.09,1.09,0,0,0,0-2.06l-3.68-2.13a4,4,0,0,0-3.57,0C195,214.86,195,215.78,196,216.35Zm9.22,5.33,3.68,2.12a3.94,3.94,0,0,0,3.57,0,1.09,1.09,0,0,0,0-2.06l-3.69-2.13a3.92,3.92,0,0,0-3.56,0C204.18,220.18,204.19,221.11,205.18,221.68ZM214.4,227l3.68,2.12a3.91,3.91,0,0,0,3.57,0,1.09,1.09,0,0,0,0-2.06L218,224.94a3.94,3.94,0,0,0-3.57,0C213.4,225.51,213.41,226.43,214.4,227Zm9.21,5.32,3.69,2.13a3.94,3.94,0,0,0,3.57,0c1-.56,1-1.49,0-2.06l-3.68-2.12a3.94,3.94,0,0,0-3.57,0A1.09,1.09,0,0,0,223.61,232.32Zm9.22,5.32,3.69,2.13a4,4,0,0,0,3.56,0c1-.57,1-1.49,0-2.06l-3.68-2.13a4,4,0,0,0-3.57,0A1.09,1.09,0,0,0,232.83,237.64Zm9.41,5.44,3.69,2.12a3.94,3.94,0,0,0,3.57,0c1-.57,1-1.49,0-2.06L245.8,241a3.94,3.94,0,0,0-3.57,0A1.09,1.09,0,0,0,242.24,243.08ZM119,181.81l3.19,1.84a4.47,4.47,0,0,0,4.06,0l3.17-1.83c1.12-.64,1.11-1.69,0-2.34l-3.19-1.84a4.5,4.5,0,0,0-4.06,0L119,179.46A1.24,1.24,0,0,0,119,181.81ZM135.51,189l3.17-1.83a1.24,1.24,0,0,0,0-2.35L135.48,183a4.5,4.5,0,0,0-4.06,0l-3.17,1.83a1.24,1.24,0,0,0,0,2.35l3.19,1.84A4.5,4.5,0,0,0,135.51,189Zm2,3.47,3.19,1.84a4.5,4.5,0,0,0,4.06,0l3.17-1.83a1.24,1.24,0,0,0,0-2.35l-3.19-1.84a4.47,4.47,0,0,0-4.06,0l-3.17,1.83C136.35,190.75,136.36,191.8,137.48,192.45Zm9.22,5.32,3.19,1.84a4.47,4.47,0,0,0,4.06,0l3.17-1.83c1.12-.64,1.11-1.69,0-2.34l-3.18-1.84a4.49,4.49,0,0,0-4.07,0l-3.16,1.83C145.57,196.07,145.57,197.12,146.7,197.77Zm19.62,3-3.18-1.84a4.52,4.52,0,0,0-4.07,0l-3.16,1.83a1.24,1.24,0,0,0,0,2.35l3.19,1.84a4.47,4.47,0,0,0,4.06,0l3.17-1.83C167.45,202.47,167.45,201.42,166.32,200.77Zm9.22,5.32-3.19-1.84a4.5,4.5,0,0,0-4.06,0l-3.17,1.83a1.24,1.24,0,0,0,0,2.35l3.18,1.84a4.52,4.52,0,0,0,4.07,0l3.16-1.83A1.24,1.24,0,0,0,175.54,206.09Zm9.22,5.32-3.19-1.84a4.47,4.47,0,0,0-4.06,0l-3.17,1.83c-1.12.64-1.11,1.69,0,2.34l3.18,1.84a4.52,4.52,0,0,0,4.07,0l3.16-1.83A1.24,1.24,0,0,0,184.76,211.41Zm9.22,5.33-3.19-1.84a4.47,4.47,0,0,0-4.06,0l-3.17,1.83c-1.12.64-1.11,1.69,0,2.34l3.19,1.84a4.47,4.47,0,0,0,4.06,0l3.17-1.83C195.11,218.44,195.1,217.39,194,216.74Zm9.22,5.32L200,220.22a4.5,4.5,0,0,0-4.06,0L192.78,222a1.24,1.24,0,0,0,0,2.35l3.19,1.84a4.47,4.47,0,0,0,4.06,0l3.17-1.83C204.33,223.76,204.32,222.71,203.2,222.06Zm9.22,5.32-3.19-1.84a4.5,4.5,0,0,0-4.06,0L202,227.36a1.24,1.24,0,0,0,0,2.35l3.19,1.84a4.5,4.5,0,0,0,4.06,0l3.17-1.83A1.24,1.24,0,0,0,212.42,227.38ZM211.23,235l3.19,1.84a4.5,4.5,0,0,0,4.06,0l3.17-1.83a1.24,1.24,0,0,0,0-2.35l-3.19-1.84a4.47,4.47,0,0,0-4.06,0l-3.17,1.83C210.1,233.33,210.11,234.38,211.23,235Zm19.63,3-3.19-1.84a4.47,4.47,0,0,0-4.06,0L220.44,238c-1.12.64-1.12,1.69,0,2.34l3.19,1.84a4.47,4.47,0,0,0,4.06,0l3.17-1.83C232,239.73,232,238.68,230.86,238Zm13.5,7.79-7.28-4.2a4.5,4.5,0,0,0-4.06,0l-3.17,1.83a1.24,1.24,0,0,0,0,2.35l7.28,4.2a4.5,4.5,0,0,0,4.06,0l3.17-1.83A1.24,1.24,0,0,0,244.36,245.82ZM110.5,186.74l7.28,4.2a4.52,4.52,0,0,0,4.07,0l3.16-1.83a1.24,1.24,0,0,0,0-2.35l-7.28-4.2a4.5,4.5,0,0,0-4.06,0l-3.17,1.83A1.24,1.24,0,0,0,110.5,186.74Zm13.31,7.68,3.19,1.84a4.5,4.5,0,0,0,4.06,0l3.17-1.83a1.24,1.24,0,0,0,0-2.35L131,190.25a4.47,4.47,0,0,0-4.06,0l-3.17,1.83C122.68,192.72,122.69,193.77,123.81,194.42Zm12.41,7.16a4.47,4.47,0,0,0,4.06,0l3.17-1.83c1.12-.64,1.11-1.69,0-2.34l-3.19-1.84a4.47,4.47,0,0,0-4.06,0L133,197.4c-1.12.64-1.11,1.69,0,2.34Zm9.22,5.33a4.47,4.47,0,0,0,4.06,0l3.17-1.83c1.12-.64,1.11-1.69,0-2.34l-3.19-1.84a4.5,4.5,0,0,0-4.06,0l-3.17,1.83a1.24,1.24,0,0,0,0,2.35Zm9.19-.7L151.46,208a1.24,1.24,0,0,0,0,2.35l3.19,1.84a4.5,4.5,0,0,0,4.06,0l3.17-1.83a1.24,1.24,0,0,0,0-2.35l-3.19-1.84A4.5,4.5,0,0,0,154.63,206.21Zm9.41,5.21-3.56,2.06c-1,.58-1,1.53,0,2.12l3.58,2.06a4.06,4.06,0,0,0,3.67,0l3.56-2a1.12,1.12,0,0,0,0-2.12l-3.58-2.07A4.06,4.06,0,0,0,164,211.42Zm9.22,5.33-3.56,2.05c-1,.58-1,1.53,0,2.12l3.58,2.07a4.06,4.06,0,0,0,3.67,0l3.56-2.05a1.12,1.12,0,0,0,0-2.12l-3.58-2.07A4.06,4.06,0,0,0,173.26,216.75Zm9.22,5.32-3.56,2.05a1.12,1.12,0,0,0,0,2.12l3.58,2.07a4.06,4.06,0,0,0,3.67,0l3.56-2.06a1.12,1.12,0,0,0,0-2.12l-3.58-2.06A4.06,4.06,0,0,0,182.48,222.07Zm9.22,5.32-3.56,2.06a1.12,1.12,0,0,0,0,2.12l3.58,2.06a4.06,4.06,0,0,0,3.67,0l3.56-2.06a1.11,1.11,0,0,0,0-2.11l-3.58-2.07A4.06,4.06,0,0,0,191.7,227.39Zm9.22,5.32-3.56,2.06a1.12,1.12,0,0,0,0,2.12L201,239a4.06,4.06,0,0,0,3.67,0l3.56-2.05a1.12,1.12,0,0,0,0-2.12l-3.58-2.07A4.06,4.06,0,0,0,200.92,232.71Zm12.92,11.57,3.56-2.05c1-.58,1-1.53,0-2.12L213.81,238a4.08,4.08,0,0,0-3.68,0l-3.55,2.05a1.12,1.12,0,0,0,0,2.12l3.58,2.07A4.06,4.06,0,0,0,213.84,244.28Zm9.22,5.33,3.56-2.06c1-.58,1-1.53,0-2.12L223,243.37a4.06,4.06,0,0,0-3.67,0l-3.55,2a1.12,1.12,0,0,0,0,2.12l3.58,2.07A4.06,4.06,0,0,0,223.06,249.61ZM236,250.87l-3.58-2.07a4.06,4.06,0,0,0-3.67,0l-3.55,2.06a1.12,1.12,0,0,0,0,2.12L228.8,255a4.06,4.06,0,0,0,3.67,0l3.56-2A1.12,1.12,0,0,0,236,250.87ZM101.77,191.55l11.56,6.68a4.06,4.06,0,0,0,3.67,0l3.56-2c1-.59,1-1.53,0-2.12L109,187.39a4.06,4.06,0,0,0-3.67,0l-3.56,2.05A1.12,1.12,0,0,0,101.77,191.55Zm17.2,9.93,3.58,2.07a4.06,4.06,0,0,0,3.67,0l3.56-2.06c1-.58,1-1.53,0-2.12l-3.58-2.07a4.06,4.06,0,0,0-3.67,0L119,199.36C117.94,200,118,200.89,119,201.48Zm9.22,5.32,3.58,2.07a4.06,4.06,0,0,0,3.67,0l3.55-2.06a1.12,1.12,0,0,0,0-2.12l-3.58-2.06a4.06,4.06,0,0,0-3.67,0l-3.56,2.05A1.12,1.12,0,0,0,128.19,206.8Zm9.21,5.33,3.58,2.06a4.08,4.08,0,0,0,3.68,0l3.55-2a1.12,1.12,0,0,0,0-2.12L144.62,208a4.06,4.06,0,0,0-3.67,0L137.39,210C136.38,210.59,136.39,211.54,137.4,212.13Zm16.47,7.39,3.56-2.05a1.12,1.12,0,0,0,0-2.12l-3.58-2.07a4,4,0,0,0-3.67,0l-3.56,2.05c-1,.58-1,1.53,0,2.12l3.58,2.07A4.06,4.06,0,0,0,153.87,219.52Zm9.22,5.33,3.56-2.06a1.12,1.12,0,0,0,0-2.12l-3.58-2.07a4.06,4.06,0,0,0-3.67,0l-3.56,2.05a1.12,1.12,0,0,0,0,2.12l3.58,2.07A4.06,4.06,0,0,0,163.09,224.85Zm9.22,5.32,3.56-2.06c1-.58,1-1.53,0-2.12l-3.58-2.06a4.06,4.06,0,0,0-3.67,0L165.05,226a1.12,1.12,0,0,0,0,2.12l3.58,2.07A4.06,4.06,0,0,0,172.31,230.17Zm9.22,5.32,3.56-2.05a1.12,1.12,0,0,0,0-2.12l-3.58-2.07a4.06,4.06,0,0,0-3.67,0l-3.56,2.06a1.12,1.12,0,0,0,0,2.12l3.58,2.06A4.06,4.06,0,0,0,181.53,235.49Zm9.22,5.32,3.56-2.05c1-.58,1-1.53,0-2.12l-3.58-2.07a4.08,4.08,0,0,0-3.68,0l-3.55,2.05a1.12,1.12,0,0,0,0,2.12l3.58,2.07A4.06,4.06,0,0,0,190.75,240.81Zm9.22,5.33,3.56-2.06c1-.58,1-1.53,0-2.12l-3.58-2.07a4.06,4.06,0,0,0-3.67,0l-3.55,2.05a1.12,1.12,0,0,0,0,2.12l3.58,2.07A4.06,4.06,0,0,0,200,246.14Zm2,3.24,3.58,2.07a4.06,4.06,0,0,0,3.67,0l3.56-2.06c1-.58,1-1.53,0-2.12l-3.58-2.06a4.06,4.06,0,0,0-3.67,0l-3.56,2A1.12,1.12,0,0,0,201.94,249.38Zm25.54,6.42-9.11-5.26a4.06,4.06,0,0,0-3.67,0l-3.56,2.06c-1,.58-1,1.53,0,2.12l9.1,5.25a4.06,4.06,0,0,0,3.67,0l3.56-2.05A1.12,1.12,0,0,0,227.48,255.8ZM93.27,196.74l16.4,9.47a4.58,4.58,0,0,0,4.14,0l3.09-1.78c1.14-.66,1.13-1.73,0-2.39l-16.4-9.47a4.58,4.58,0,0,0-4.14,0l-3.09,1.78C92.11,195,92.12,196.07,93.27,196.74Zm22.51,13,3.1,1.79a4.6,4.6,0,0,0,4.15,0l3.09-1.78c1.14-.66,1.13-1.73,0-2.4l-3.1-1.79a4.6,4.6,0,0,0-4.15,0l-3.08,1.78A1.27,1.27,0,0,0,115.78,209.74Zm9.22,5.32,3.1,1.79a4.6,4.6,0,0,0,4.15,0l3.08-1.78c1.15-.66,1.14-1.73,0-2.4l-3.1-1.79a4.6,4.6,0,0,0-4.15,0L125,212.67A1.26,1.26,0,0,0,125,215.06Zm9.22,5.32,3.1,1.79a4.57,4.57,0,0,0,4.15,0l3.08-1.78a1.26,1.26,0,0,0,0-2.39l-3.1-1.79a4.57,4.57,0,0,0-4.15,0L134.21,218A1.26,1.26,0,0,0,134.22,220.38Zm9.22,5.32,3.1,1.8a4.6,4.6,0,0,0,4.15,0l3.08-1.78a1.26,1.26,0,0,0,0-2.39l-3.1-1.79a4.57,4.57,0,0,0-4.15,0l-3.08,1.78C142.28,224,142.29,225,143.44,225.7Zm9.22,5.33,3.1,1.79a4.6,4.6,0,0,0,4.15,0l3.08-1.78a1.27,1.27,0,0,0,0-2.4l-3.11-1.79a4.58,4.58,0,0,0-4.14,0l-3.09,1.78C151.5,229.29,151.51,230.36,152.66,231Zm9.22,5.32,3.1,1.79a4.6,4.6,0,0,0,4.15,0l3.08-1.78a1.27,1.27,0,0,0,0-2.4l-3.11-1.79a4.58,4.58,0,0,0-4.14,0L161.86,234C160.72,234.61,160.73,235.69,161.88,236.35Zm9.22,5.32,3.1,1.79a4.55,4.55,0,0,0,4.14,0l3.09-1.78a1.26,1.26,0,0,0,0-2.39l-3.11-1.79a4.55,4.55,0,0,0-4.14,0l-3.09,1.78C169.94,239.94,170,241,171.1,241.67Zm9.21,5.32,3.11,1.8a4.58,4.58,0,0,0,4.14,0l3.09-1.78c1.14-.66,1.13-1.73,0-2.39l-3.1-1.79a4.57,4.57,0,0,0-4.15,0l-3.08,1.78A1.26,1.26,0,0,0,180.31,247Zm9.22,5.33,3.11,1.79a4.58,4.58,0,0,0,4.14,0l3.09-1.78c1.14-.66,1.13-1.73,0-2.4l-3.1-1.79a4.6,4.6,0,0,0-4.15,0l-3.08,1.78A1.27,1.27,0,0,0,189.53,252.32Zm9.22,5.32,3.1,1.79a4.6,4.6,0,0,0,4.15,0l3.08-1.78c1.15-.66,1.14-1.73,0-2.4l-3.1-1.79a4.6,4.6,0,0,0-4.15,0l-3.08,1.78A1.26,1.26,0,0,0,198.75,257.64Zm19.75,3.07-3.11-1.8a4.58,4.58,0,0,0-4.14,0l-3.09,1.78c-1.14.66-1.13,1.73,0,2.39l3.1,1.79a4.55,4.55,0,0,0,4.14,0l3.09-1.78A1.26,1.26,0,0,0,218.5,260.71ZM99.14,201.65l-7.2-4.15a4.58,4.58,0,0,0-4.14,0l-3.09,1.78c-1.14.66-1.13,1.73,0,2.4l7.19,4.15a4.6,4.6,0,0,0,4.15,0l3.08-1.78A1.27,1.27,0,0,0,99.14,201.65Zm9.22,5.33-3.11-1.79a4.55,4.55,0,0,0-4.14,0L98,207c-1.14.66-1.13,1.73,0,2.39l3.1,1.79a4.57,4.57,0,0,0,4.15,0l3.08-1.78A1.26,1.26,0,0,0,108.36,207Zm9.22,5.32-3.11-1.79a4.55,4.55,0,0,0-4.14,0l-3.09,1.78c-1.14.66-1.13,1.73,0,2.39l3.1,1.8a4.6,4.6,0,0,0,4.15,0l3.08-1.78A1.26,1.26,0,0,0,117.58,212.3Zm64.53,37.26-58.42-33.73a4.58,4.58,0,0,0-4.14,0l-3.09,1.78c-1.14.66-1.13,1.73,0,2.4l58.41,33.72a4.57,4.57,0,0,0,4.15,0l3.08-1.78A1.26,1.26,0,0,0,182.11,249.56Zm9.22,5.32-3.11-1.79a4.55,4.55,0,0,0-4.14,0L181,254.86c-1.14.66-1.13,1.73,0,2.39l3.1,1.8a4.6,4.6,0,0,0,4.15,0l3.08-1.78A1.26,1.26,0,0,0,191.33,254.88Zm9.22,5.32-3.11-1.79a4.58,4.58,0,0,0-4.14,0l-3.09,1.78c-1.14.66-1.13,1.73,0,2.4l3.1,1.79a4.6,4.6,0,0,0,4.15,0l3.08-1.78A1.27,1.27,0,0,0,200.55,260.2Zm9.41,5.44-3.11-1.8a4.58,4.58,0,0,0-4.14,0l-3.09,1.78c-1.14.66-1.13,1.73,0,2.39l3.1,1.79a4.57,4.57,0,0,0,4.15,0L210,268A1.26,1.26,0,0,0,210,265.64Z"/><polygon class="cls-34" points="305.6 101.96 285.1 243.71 280.85 251.21 125.2 156.39 165.1 21.46 305.6 101.96"/><polygon class="cls-35" points="281.09 98.55 281.09 250.97 122.29 159.41 122.29 6.99 281.09 98.55"/><polygon class="cls-36" points="281.09 96.36 281.09 115.9 280.37 116.27 122.29 24.34 121.57 5.16 122.29 4.79 281.09 96.36"/><polygon class="cls-37" points="280.37 98.91 280.37 251.34 121.57 159.77 121.57 7.35 280.37 98.91"/><polygon class="cls-38" points="125.97 156.72 125.97 33.68 275.97 120.17 275.97 243.22 125.97 156.72"/><polygon class="cls-39" points="280.37 96.72 280.37 116.27 121.57 24.7 121.57 5.16 280.37 96.72"/><path class="cls-17" d="M129.21,16.44l10.55,6.09c.4.23.72,0,.72-.42a1.59,1.59,0,0,0-.72-1.25l-10.55-6.09c-.4-.23-.73,0-.73.42A1.6,1.6,0,0,0,129.21,16.44Zm10.55,8.18-10.55-6.09c-.4-.24-.73-.05-.73.41a1.63,1.63,0,0,0,.73,1.26l10.55,6.08c.4.24.72,0,.72-.41A1.59,1.59,0,0,0,139.76,24.62Zm0,3.75-10.55-6.09c-.4-.23-.73,0-.73.42a1.6,1.6,0,0,0,.73,1.25L139.76,30c.4.23.72.05.72-.41A1.59,1.59,0,0,0,139.76,28.37Z"/><path class="cls-17" d="M274,102.72c0,1.43-1,2-2.26,1.28a5,5,0,0,1-2.26-3.89c0-1.43,1-2,2.26-1.29A5,5,0,0,1,274,102.72Z"/><path class="cls-17" d="M267.15,98.76c0,1.43-1,2-2.26,1.28a5,5,0,0,1-2.25-3.89c0-1.43,1-2,2.25-1.29A5,5,0,0,1,267.15,98.76Z"/><path class="cls-17" d="M260.34,94.8c0,1.43-1,2-2.26,1.29a5,5,0,0,1-2.26-3.9c0-1.43,1-2,2.26-1.29A5,5,0,0,1,260.34,94.8Z"/><polygon class="cls-40" points="257.63 123.07 257.63 125.17 248.23 119.74 248.23 133.53 266.98 144.35 266.98 128.47 257.63 123.07"/><polygon class="cls-41" points="256.49 123.45 256.49 125.55 247.09 120.12 247.09 133.91 264.34 145.66 265.84 144.73 265.84 128.85 256.49 123.45"/><polygon class="cls-17" points="246.23 134.21 264.98 145.04 264.98 132.11 246.23 121.28 246.23 134.21"/><polygon class="cls-42" points="245.56 134.79 264.32 145.62 264.32 134.11 245.56 123.28 245.56 134.79"/><polygon class="cls-40" points="230.44 107.32 230.44 109.42 221.04 103.99 221.04 117.78 239.79 128.6 239.79 112.72 230.44 107.32"/><polygon class="cls-43" points="229.3 107.7 229.3 109.8 219.9 104.37 219.9 118.16 237.15 129.91 238.65 128.98 238.65 113.1 229.3 107.7"/><polygon class="cls-17" points="219.04 118.46 237.79 129.29 237.79 116.36 219.04 105.53 219.04 118.46"/><polygon class="cls-44" points="218.38 119.04 237.13 129.87 237.13 118.36 218.38 107.53 218.38 119.04"/><polygon class="cls-40" points="203.25 91.57 203.25 93.67 193.85 88.24 193.85 102.03 212.61 112.85 212.61 96.97 203.25 91.57"/><polygon class="cls-45" points="202.11 91.95 202.11 94.05 192.71 88.62 192.71 102.41 209.96 114.17 211.46 113.23 211.46 97.35 202.11 91.95"/><polygon class="cls-17" points="191.85 102.71 210.61 113.54 210.61 100.61 191.85 89.78 191.85 102.71"/><polygon class="cls-46" points="191.19 103.29 209.94 114.12 209.94 102.61 191.19 91.78 191.19 103.29"/><polygon class="cls-40" points="176.07 75.82 176.07 77.92 166.66 72.49 166.66 86.28 185.42 97.1 185.42 81.22 176.07 75.82"/><polygon class="cls-47" points="174.92 76.2 174.92 78.3 165.52 72.87 165.52 86.66 182.77 98.42 184.28 97.48 184.28 81.6 174.92 76.2"/><polygon class="cls-17" points="164.67 86.96 183.42 97.79 183.42 84.86 164.67 74.03 164.67 86.96"/><polygon class="cls-48" points="164 87.54 182.75 98.37 182.75 86.86 164 76.03 164 87.54"/><polygon class="cls-40" points="148.88 60.07 148.88 62.17 139.48 56.74 139.48 70.53 158.23 81.35 158.23 65.47 148.88 60.07"/><polygon class="cls-49" points="147.74 60.45 147.74 62.55 138.34 57.12 138.34 70.91 155.59 82.67 157.09 81.73 157.09 65.85 147.74 60.45"/><polygon class="cls-17" points="137.48 71.21 156.23 82.04 156.23 69.11 137.48 58.28 137.48 71.21"/><polygon class="cls-50" points="136.81 71.79 155.57 82.62 155.57 71.11 136.81 60.28 136.81 71.79"/><polygon class="cls-40" points="257.63 199.82 257.63 201.92 248.23 196.49 248.23 210.28 266.98 221.1 266.98 205.22 257.63 199.82"/><polygon class="cls-51" points="256.49 200.2 256.49 202.3 247.09 196.87 247.09 210.66 264.34 222.41 265.84 221.48 265.84 205.6 256.49 200.2"/><polygon class="cls-17" points="246.23 210.96 264.98 221.79 264.98 208.86 246.23 198.03 246.23 210.96"/><polygon class="cls-52" points="245.56 211.54 264.32 222.37 264.32 210.86 245.56 200.03 245.56 211.54"/><polygon class="cls-40" points="230.44 184.07 230.44 186.17 221.04 180.74 221.04 194.53 239.79 205.35 239.79 189.47 230.44 184.07"/><polygon class="cls-53" points="229.3 184.45 229.3 186.55 219.9 181.12 219.9 194.91 237.15 206.66 238.65 205.73 238.65 189.85 229.3 184.45"/><polygon class="cls-17" points="219.04 195.21 237.79 206.04 237.79 193.11 219.04 182.28 219.04 195.21"/><polygon class="cls-54" points="218.38 195.79 237.13 206.62 237.13 195.11 218.38 184.28 218.38 195.79"/><polygon class="cls-40" points="203.25 168.32 203.25 170.42 193.85 164.99 193.85 178.78 212.61 189.6 212.61 173.72 203.25 168.32"/><polygon class="cls-55" points="202.11 168.7 202.11 170.8 192.71 165.37 192.71 179.16 209.96 190.91 211.46 189.98 211.46 174.1 202.11 168.7"/><polygon class="cls-17" points="191.85 179.46 210.61 190.29 210.61 177.36 191.85 166.53 191.85 179.46"/><polygon class="cls-56" points="191.19 180.04 209.94 190.87 209.94 179.36 191.19 168.53 191.19 180.04"/><polygon class="cls-40" points="176.07 152.57 176.07 154.67 166.66 149.24 166.66 163.03 185.42 173.85 185.42 157.97 176.07 152.57"/><polygon class="cls-57" points="174.92 152.95 174.92 155.05 165.52 149.62 165.52 163.41 182.77 175.16 184.28 174.23 184.28 158.35 174.92 152.95"/><polygon class="cls-17" points="164.67 163.71 183.42 174.54 183.42 161.61 164.67 150.78 164.67 163.71"/><polygon class="cls-58" points="164 164.29 182.75 175.12 182.75 163.61 164 152.78 164 164.29"/><polygon class="cls-40" points="148.88 136.82 148.88 138.92 139.48 133.49 139.48 147.28 158.23 158.1 158.23 142.22 148.88 136.82"/><polygon class="cls-59" points="147.74 137.2 147.74 139.3 138.34 133.87 138.34 147.66 155.59 159.41 157.09 158.48 157.09 142.6 147.74 137.2"/><polygon class="cls-17" points="137.48 147.96 156.23 158.79 156.23 145.86 137.48 135.03 137.48 147.96"/><polygon class="cls-60" points="136.81 148.54 155.57 159.37 155.57 147.86 136.81 137.03 136.81 148.54"/><polygon class="cls-40" points="257.63 174.07 257.63 176.17 248.23 170.74 248.23 184.53 266.98 195.35 266.98 179.47 257.63 174.07"/><polygon class="cls-61" points="256.49 174.45 256.49 176.55 247.09 171.12 247.09 184.91 264.34 196.66 265.84 195.73 265.84 179.85 256.49 174.45"/><polygon class="cls-17" points="246.23 185.21 264.98 196.04 264.98 183.11 246.23 172.28 246.23 185.21"/><polygon class="cls-62" points="245.56 185.79 264.32 196.62 264.32 185.11 245.56 174.28 245.56 185.79"/><polygon class="cls-40" points="230.44 158.32 230.44 160.42 221.04 154.99 221.04 168.78 239.79 179.6 239.79 163.72 230.44 158.32"/><polygon class="cls-63" points="229.3 158.7 229.3 160.8 219.9 155.37 219.9 169.16 237.15 180.91 238.65 179.98 238.65 164.1 229.3 158.7"/><polygon class="cls-17" points="219.04 169.46 237.79 180.29 237.79 167.36 219.04 156.53 219.04 169.46"/><polygon class="cls-64" points="218.38 170.04 237.13 180.87 237.13 169.36 218.38 158.53 218.38 170.04"/><polygon class="cls-40" points="203.25 142.57 203.25 144.67 193.85 139.24 193.85 153.03 212.61 163.85 212.61 147.97 203.25 142.57"/><polygon class="cls-65" points="202.11 142.95 202.11 145.05 192.71 139.62 192.71 153.41 209.96 165.16 211.46 164.23 211.46 148.35 202.11 142.95"/><polygon class="cls-17" points="191.85 153.71 210.61 164.54 210.61 151.61 191.85 140.78 191.85 153.71"/><polygon class="cls-66" points="191.19 154.29 209.94 165.12 209.94 153.61 191.19 142.78 191.19 154.29"/><polygon class="cls-40" points="176.07 126.82 176.07 128.92 166.66 123.49 166.66 137.28 185.42 148.1 185.42 132.22 176.07 126.82"/><polygon class="cls-67" points="174.92 127.2 174.92 129.3 165.52 123.87 165.52 137.66 182.77 149.41 184.28 148.48 184.28 132.6 174.92 127.2"/><polygon class="cls-17" points="164.67 137.96 183.42 148.79 183.42 135.86 164.67 125.03 164.67 137.96"/><polygon class="cls-68" points="164 138.54 182.75 149.37 182.75 137.86 164 127.03 164 138.54"/><polygon class="cls-40" points="148.88 111.07 148.88 113.17 139.48 107.74 139.48 121.53 158.23 132.35 158.23 116.47 148.88 111.07"/><polygon class="cls-69" points="147.74 111.45 147.74 113.55 138.34 108.12 138.34 121.91 155.59 133.66 157.09 132.73 157.09 116.85 147.74 111.45"/><polygon class="cls-17" points="137.48 122.21 156.23 133.04 156.23 120.11 137.48 109.28 137.48 122.21"/><polygon class="cls-70" points="136.81 122.79 155.57 133.62 155.57 122.11 136.81 111.28 136.81 122.79"/><polygon class="cls-40" points="257.63 148.82 257.63 150.92 248.23 145.49 248.23 159.28 266.98 170.1 266.98 154.22 257.63 148.82"/><polygon class="cls-71" points="256.49 149.2 256.49 151.3 247.09 145.87 247.09 159.66 264.34 171.41 265.84 170.48 265.84 154.6 256.49 149.2"/><polygon class="cls-17" points="246.23 159.96 264.98 170.79 264.98 157.86 246.23 147.03 246.23 159.96"/><polygon class="cls-72" points="245.56 160.54 264.32 171.37 264.32 159.86 245.56 149.03 245.56 160.54"/><polygon class="cls-40" points="230.44 133.07 230.44 135.17 221.04 129.74 221.04 143.53 239.79 154.35 239.79 138.47 230.44 133.07"/><polygon class="cls-73" points="229.3 133.45 229.3 135.55 219.9 130.12 219.9 143.91 237.15 155.66 238.65 154.73 238.65 138.85 229.3 133.45"/><polygon class="cls-17" points="219.04 144.21 237.79 155.04 237.79 142.11 219.04 131.28 219.04 144.21"/><polygon class="cls-74" points="218.38 144.79 237.13 155.62 237.13 144.11 218.38 133.28 218.38 144.79"/><polygon class="cls-40" points="203.25 117.32 203.25 119.42 193.85 113.99 193.85 127.78 212.61 138.6 212.61 122.72 203.25 117.32"/><polygon class="cls-75" points="202.11 117.7 202.11 119.8 192.71 114.37 192.71 128.16 209.96 139.91 211.46 138.98 211.46 123.1 202.11 117.7"/><polygon class="cls-17" points="191.85 128.46 210.61 139.29 210.61 126.36 191.85 115.53 191.85 128.46"/><polygon class="cls-76" points="191.19 129.04 209.94 139.87 209.94 128.36 191.19 117.53 191.19 129.04"/><polygon class="cls-40" points="176.07 101.57 176.07 103.67 166.66 98.24 166.66 112.03 185.42 122.85 185.42 106.97 176.07 101.57"/><polygon class="cls-77" points="174.92 101.95 174.92 104.05 165.52 98.62 165.52 112.41 182.77 124.17 184.28 123.23 184.28 107.35 174.92 101.95"/><polygon class="cls-17" points="164.67 112.71 183.42 123.54 183.42 110.61 164.67 99.78 164.67 112.71"/><polygon class="cls-78" points="164 113.29 182.75 124.12 182.75 112.61 164 101.78 164 113.29"/><polygon class="cls-40" points="148.88 85.82 148.88 87.92 139.48 82.49 139.48 96.28 158.23 107.1 158.23 91.22 148.88 85.82"/><polygon class="cls-79" points="147.74 86.2 147.74 88.3 138.34 82.87 138.34 96.66 155.59 108.42 157.09 107.48 157.09 91.6 147.74 86.2"/><polygon class="cls-17" points="137.48 96.96 156.23 107.79 156.23 94.86 137.48 84.03 137.48 96.96"/><polygon class="cls-80" points="136.81 97.54 155.57 108.37 155.57 96.86 136.81 86.03 136.81 97.54"/><polygon class="cls-81" points="323.81 119.76 209.29 53.51 179.71 71.08 179.71 98.8 294.17 164.94 294.17 164.95 294.18 164.94 294.19 164.95 294.19 164.94 323.81 147.48 323.81 119.76"/><g class="cls-82"><polygon class="cls-83" points="294.17 137.39 294.17 164.95 302.16 160.34 302.16 132.62 294.17 137.39"/><polygon class="cls-84" points="294.19 137.39 294.19 164.95 179.71 98.8 179.71 71.08 294.19 137.39"/><polygon class="cls-85" points="179.71 71.08 294.19 137.39 302.16 132.62 187.63 66.37 179.71 71.08"/></g><path class="cls-17" d="M288.65,153.72l-3.5-6a1.67,1.67,0,0,0-1.35-1l-1-1.77c1.53-1.44,1.38-4.86-.47-8.05-2-3.49-5.3-5.38-7.33-4.23s-2,4.92,0,8.41c1.86,3.19,4.76,5,6.79,4.45l1,1.77a1.64,1.64,0,0,0,.18,1.65l3.5,6c.43.75,1.15,1.16,1.58.91l.6-.34C289.09,155.29,289.09,154.48,288.65,153.72Zm-7.59-10.59c-1.33.76-3.49-.49-4.83-2.78s-1.33-4.78,0-5.54,3.5.49,4.83,2.78S282.39,142.37,281.06,143.13Z"/><polygon class="cls-17" points="269.41 143.5 187.34 95.93 187.34 82.7 269.41 130.27 269.41 143.5"/><polygon class="cls-86" points="146.24 91.76 136.32 97.67 122.12 88.82 122.12 169.17 181.46 216 196.03 207.04 196.03 120.51 146.24 91.76"/><path class="cls-87" d="M137.45,96.69v6.91L91.08,76.83A2.46,2.46,0,0,0,87.39,79v85.31l88.48,51.43a6.49,6.49,0,0,0,6.68-.09l1.89-1.17a5.93,5.93,0,0,0,2.8-5V125a6.67,6.67,0,0,0-3.34-5.79L141.14,94.56A2.46,2.46,0,0,0,137.45,96.69Z"/><g class="cls-88"><path class="cls-89" d="M90.06,77.67l46.38,26.78V103L91.08,76.83a2.43,2.43,0,0,0-3.25.75A2.39,2.39,0,0,1,90.06,77.67Z"/><path class="cls-90" d="M183.9,119.25,141.14,94.56a2.45,2.45,0,0,0-3.25.75,2.39,2.39,0,0,1,2.23.1l42.76,24.69a6.68,6.68,0,0,1,3.35,5.79v84.36a5.92,5.92,0,0,1-1.62,4.07,5.92,5.92,0,0,0,2.63-4.91V125A6.69,6.69,0,0,0,183.9,119.25Z"/></g><polygon class="cls-17" points="82.83 156.67 182.69 214.32 182.69 138.54 82.83 80.89 82.83 156.67"/><polygon class="cls-91" points="82.83 159.2 180.92 215.83 180.92 144.96 82.83 88.33 82.83 159.2"/><path class="cls-92" d="M83.61,162.28,176,215.64a6.41,6.41,0,0,0,6.25.09l.6-.32-.63.24a2.31,2.31,0,0,1-3.12-2.16V150a6.68,6.68,0,0,0-3.35-5.79L83,90.66a2.46,2.46,0,0,0-3.69,2.13v62A8.66,8.66,0,0,0,83.61,162.28Z"/><path class="cls-93" d="M182.26,215.65a2.31,2.31,0,0,1-3.12-2.16V150a6.68,6.68,0,0,0-3.35-5.79L83,90.66a2.43,2.43,0,0,0-3.06.51,2.42,2.42,0,0,1,2.17.12l92.82,53.59a6.7,6.7,0,0,1,3.35,5.8v63.45a2.3,2.3,0,0,0,2,2.28,6.4,6.4,0,0,0,2.06-.68l.6-.32Z"/><path class="cls-94" d="M154.63,145.94c-8-4.53-15.82-11.83-22.37-20.87l-.09-.06c-6.56,1.48-14.37-.25-22.37-5l-.31-.18-4.23,2.41,4.85,3.19c1.52,20.24,9.42,36.86,22.14,56.53l.31.18c2.28-.9-1.18,1.17.79.06l5.65-3c8.82-5.06,14.27-12.82,15.5-27.84l.43-5.26Z"/><path class="cls-95" d="M154.63,145.94c-8-4.53-15.82-11.83-22.37-20.87l-.09-.06-.13,0L116,134.34l33,15.11,6-3.33Z"/><path class="cls-96" d="M150.92,148c-8-4.53-15.82-11.83-22.37-20.87l-.09,0c-6.55,1.47-14.37-.26-22.37-5l-.31-.18.44,5.76c1.51,20.24,9.41,36.86,22.13,56.53l.31.18c12.71-5,20.62-12.48,22.13-31l.43-5.26Z"/><path class="cls-97" d="M150.33,148.25c-8-4.54-15.82-11.84-22.37-20.88l-.09-.05c-6.55,1.48-14.37-.25-22.37-4.95l-.31-.18.44,5.76c1.51,20.24,9.41,36.86,22.13,56.53l.31.18c12.72-5,20.62-12.49,22.13-31l.43-5.26Z"/><path class="cls-98" d="M150.33,148.25c-8-4.54-15.82-11.84-22.37-20.88l-.09-.05c-6.55,1.48-14.37-.25-22.37-4.95l-.31-.18.44,5.76c1.51,20.24,9.41,36.86,22.13,56.53l.31.18c12.72-5,20.62-12.49,22.13-31l.43-5.26Z"/><path class="cls-99" d="M150.33,148.25l-.4-.24-.43,5.21c-1.51,18.41-9.35,25.92-22,30.91l.22.35.31.18c12.72-5,20.62-12.49,22.13-31l.43-5.26Z"/><path class="cls-100" d="M128.88,181.65c-11.43-17.89-19.3-34-20.78-53.89l-.1-1.25a35.56,35.56,0,0,0,15.12,3.8,23.86,23.86,0,0,0,3.72-.28A75.81,75.81,0,0,0,148,149.78l-.3,3.7C146.34,170.48,139.51,177.12,128.88,181.65Z"/><path class="cls-101" d="M109.7,127.46l0-.19c-.56-.24-1.12-.5-1.68-.76l.1,1.25c1.48,19.86,9.35,36,20.78,53.89.48-.2.94-.41,1.4-.62C119,163.27,111.18,147.2,109.7,127.46Z"/><polygon class="cls-102" points="130.6 163.53 126.29 161.04 126.29 141.28 130.6 143.76 130.6 163.53"/><polygon class="cls-103" points="127.6 160.19 127.6 142.03 126.29 141.28 126.29 161.04 130.6 163.53 130.6 161.92 127.6 160.19"/><polygon class="cls-104" points="130.11 143.58 130.05 143.54 127.71 142.03 71.6 174.43 71.6 196.8 73.94 195.45 73.94 198.11 102.35 177.71 130.05 162.43 130.05 143.67 130.11 143.58"/><polygon class="cls-105" points="119.34 146.85 63.24 179.25 63.24 201.62 101.56 179.49 102.66 175.57 121.74 148.39 119.34 146.85"/><polygon class="cls-106" points="121.68 148.17 65.57 180.56 65.57 202.93 103.89 180.81 104.99 176.88 121.68 167.25 121.68 148.17"/><polygon class="cls-17" points="115.1 168.04 71.07 193.48 71.07 182.45 115.1 157.01 115.1 168.04"/><polygon class="cls-107" points="114.34 157.45 114.34 167.73 71.07 192.73 71.07 193.48 115.1 168.04 115.1 157.01 114.34 157.45"/><path class="cls-108" d="M67.11,168.92,63.4,167a3.34,3.34,0,0,0-3.55.27L43.8,176.54A10.67,10.67,0,0,0,39,184.89v32.69c0,1.74.69,2.88,1.77,3.28l3.77,2,.06-1.88.23-.13,16.06-9.26a10.7,10.7,0,0,0,4.84-8.36V170.54c0-.17,0-.33,0-.49ZM55.13,201a9.67,9.67,0,0,1-4.38,7.56l-.92.53c-2.42,1.4-4.39.28-4.39-2.5v-4.37L48.55,184a7.26,7.26,0,0,1,1.28-1l.92-.53c2.42-1.4,4.38-.28,4.38,2.5Z"/><path class="cls-109" d="M63.62,169.24l-16,9.27a10.66,10.66,0,0,0-4.84,8.35v32.69c0,3.07,2.16,4.31,4.84,2.77l16-9.27a10.68,10.68,0,0,0,4.85-8.36V172C68.47,168.93,66.3,167.7,63.62,169.24Zm-5.71,33.22A9.66,9.66,0,0,1,53.53,210l-.93.53c-2.42,1.4-4.38.28-4.38-2.5V192a9.66,9.66,0,0,1,4.38-7.56l.93-.53c2.42-1.4,4.38-.28,4.38,2.5Z"/><g class="cls-88"><path class="cls-110" d="M53.11,210.55,54,210a9.66,9.66,0,0,0,4.38-7.56v-16c0-1.82-.84-2.92-2.1-3.08a3,3,0,0,1,1.37,2.86v16a9.66,9.66,0,0,1-4.38,7.56l-.93.53a3.73,3.73,0,0,1-2.28.58A3.16,3.16,0,0,0,53.11,210.55Z"/><path class="cls-111" d="M43.24,219.55V186.87a10.67,10.67,0,0,1,4.84-8.36l16-9.27a4.11,4.11,0,0,1,2.56-.63,3.52,3.52,0,0,0-3.29.41l-16,9.27a10.68,10.68,0,0,0-4.84,8.36v32.69c0,2,.91,3.2,2.28,3.39A3.27,3.27,0,0,1,43.24,219.55Z"/></g><g class="cls-2"><path class="cls-3" d="M50.73,237a13.49,13.49,0,0,0,6.73-1.62l34.18-21.79,34.19-21.79a7.09,7.09,0,0,0,3.85-6.15c0-2.73.38-21.55-2.57-23.26l-3.72-1.52c-2.32-1.34-7.29,14.21-10.24,14.21a13.51,13.51,0,0,0-6.73,1.62L70.8,197.28,35.18,217.85A7.1,7.1,0,0,0,31.33,224c0,2.73,1.69,5.28,4.64,7C36,231,47.78,237,50.73,237Z"/><path class="cls-4" d="M126.1,164.3c-.08,0-3.53-1.36-3.6-1.34-2.53-1.12-7.36,13.23-10.2,13.27a14,14,0,0,0-6.44,1.67L71.54,197.71,37.21,217.53a7.5,7.5,0,0,0-3.78,5.07,5.87,5.87,0,0,0-.08.72c-.13,2.59,1.43,5.07,4.31,6.73,0,0,1.37.73,3.09,1.56,3.57,1.73,9.15,4.17,11.11,4.1.51,0,1-.05,1.5-.1a13.06,13.06,0,0,0,4.92-1.56l32.83-21,2.8-1.79,30-19.18a7.19,7.19,0,0,0,3.84-5.81c0-.64.18-2.37.22-4.43.06-4,.38-9.83-.41-13.65C127.19,166.33,126.78,164.69,126.1,164.3Z"/><path class="cls-5" d="M125.08,166.18c-.15,0-3.33-1.19-3.47-1.16-2.75-.88-7.43,12.26-10.15,12.35a14.86,14.86,0,0,0-6.17,1.7l-33,19.07-33,19.07A7.91,7.91,0,0,0,35.48,222c0,.22-.08.45-.11.68-.25,2.44,1.18,4.85,4,6.47,0,0,1.4.76,2.95,1.51,3.41,1.66,8.71,3.9,10.68,3.77.49,0,1-.07,1.44-.13a13.69,13.69,0,0,0,4.68-1.58l31.47-20.15,2.69-1.72L122,192.39c2-1.15,3.82-3.43,3.82-5.46,0-.58.34-2.29.42-4.14.16-3.74.94-9.23.1-12.82C126,168.27,125.7,166.53,125.08,166.18Z"/><path class="cls-6" d="M124.07,168.06c-.23,0-3.15-1-3.35-1-3-.66-7.49,11.28-10.11,11.41a16,16,0,0,0-5.88,1.75L73,198.56,41.27,216.89c-1.59.92-3.41,2.9-3.73,4.47a6.4,6.4,0,0,0-.14.63c-.39,2.3.91,4.64,3.63,6.21,0,0,1.44.81,2.82,1.48,3.25,1.6,8.28,3.62,10.25,3.42.47,0,.93-.09,1.37-.15a14.33,14.33,0,0,0,4.45-1.59L90,212l2.58-1.65,27.54-17.69c1.78-1,3.79-3.31,3.79-5.13,0-.51.51-2.2.63-3.84.25-3.47,1.51-8.62.62-12C124.79,170.21,124.61,168.38,124.07,168.06Z"/><path class="cls-7" d="M123.05,170c-.3.05-3-.86-3.23-.79-3.17-.44-7.55,10.3-10.06,10.48a17,17,0,0,0-5.59,1.79L73.75,199,43.3,216.57c-1.39.81-3.38,2.81-3.71,4.16-.05.2-.12.39-.17.59-.51,2.17.65,4.43,3.3,6,0,0,1.47.85,2.67,1.44,3.11,1.53,7.86,3.34,9.83,3.08.45,0,.88-.12,1.3-.18A15.22,15.22,0,0,0,60.73,230L89.5,211.49,92,209.91,118.26,193c1.56-.9,3.77-3.2,3.77-4.79,0-.45.67-2.12.83-3.55.34-3.21,2.08-8,1.13-11.18C123.6,172.15,123.53,170.22,123.05,170Z"/><path class="cls-8" d="M122,171.83c-.37.06-2.76-.69-3.11-.61-3.39-.21-7.61,9.33-10,9.55a19.2,19.2,0,0,0-5.32,1.84L74.49,199.42,45.33,216.25c-1.19.69-3.36,2.71-3.68,3.86-.06.19-.15.36-.2.54-.66,2,.39,4.22,3,5.7,0,0,1.5.9,2.53,1.41,3,1.46,7.43,3.06,9.41,2.74.42-.05.83-.15,1.23-.21a16.77,16.77,0,0,0,4-1.62L89,211l2.35-1.51,25.06-16.2c1.34-.77,3.75-3.08,3.75-4.44,0-.38.85-2,1-3.26.43-3,2.65-7.37,1.65-10.35C122.42,174.1,122.45,172.06,122,171.83Z"/><path class="cls-9" d="M121,173.71c-.45.08-2.58-.52-3-.42-3.61,0-7.66,8.35-10,8.62a21.91,21.91,0,0,0-5,1.87L75.22,199.84,47.36,215.93c-1,.58-3.54,2.57-3.66,3.56a4.37,4.37,0,0,0-.23.49c-.79,1.89.13,4,2.62,5.45,0,0,1.54.94,2.4,1.36,2.79,1.4,7,2.79,9,2.4.4-.05.78-.16,1.16-.23a19.5,19.5,0,0,0,3.74-1.64l26.05-16.89L90.65,209l23.83-15.45c1.11-.64,3.72-3,3.72-4.11,0-.31,1.24-1.93,1.24-3,1.06-2.58,3.73-7,2.16-9.53C121.43,176,121.37,173.91,121,173.71Z"/><path class="cls-10" d="M120,175.59c-.52.09-2.38-.35-2.86-.24-3.82.24-7.71,7.38-9.93,7.7a26.5,26.5,0,0,0-4.74,1.91L76,200.27,49.39,215.61c-.8.46-3.54,2.46-3.63,3.25q-.15.22-.27.45c-.93,1.75-.13,3.8,2.29,5.19,0,0,1.57,1,2.25,1.33,2.64,1.33,6.57,2.51,8.56,2.06.38-.07.74-.19,1.1-.26a24.51,24.51,0,0,0,3.5-1.65l24.7-16.08L90,208.53l22.58-14.7c.9-.52,3.71-2.86,3.71-3.77,0-.25,1.44-1.85,1.44-2.67,1.24-2.29,4.39-6.4,2.67-8.7C120.26,177.92,120.29,175.75,120,175.59Z"/><path class="cls-11" d="M119,177.48c-.6.1-2.19-.19-2.74-.06-4,.47-7.76,6.4-9.89,6.76a34.72,34.72,0,0,0-4.46,2L76.7,200.7,51.42,215.29c-.6.35-3.54,2.36-3.61,3a3.69,3.69,0,0,0-.29.4c-1.08,1.61-.39,3.59,1.95,4.94,0,0,1.6,1,2.11,1.29,2.49,1.27,6.14,2.23,8.13,1.71.36-.07.69-.21,1-.29A27.82,27.82,0,0,0,64,224.63l23.34-15.26,2-1.3,21.34-14c.67-.38,3.68-2.74,3.68-3.42,0-.19,1.65-1.76,1.65-2.38,1.42-2,5-5.82,3.19-7.88A23.67,23.67,0,0,0,119,177.48Z"/><path class="cls-12" d="M118,179.36c-.67.12-2,0-2.62.13-4.24.69-7.91,5-9.83,5.83a29.76,29.76,0,0,0-4.18,2L77.43,201.13,53.45,215c-.4.23-3.54,2.25-3.58,2.65a3.61,3.61,0,0,0-.33.35c-1.23,1.47-.65,3.38,1.62,4.69,0,0,1.63,1.07,2,1.25,2.33,1.2,5.71,2,7.71,1.37.33-.08.64-.24.95-.32s2.77-1.52,3-1.67l22-14.45,1.89-1.23,20.1-13.21c.45-.26,3.66-2.63,3.66-3.09,0-.12,1.85-1.67,1.85-2.08,1.6-1.71,5.69-5.25,3.7-7.06C117.94,181.79,118.12,179.44,118,179.36Z"/><path class="cls-13" d="M117,181.24c-.75.13-1.81.14-2.5.31-4.46.92-8,4-9.79,4.9-.23,0-3.73,2-3.89,2.05L78.17,201.55l-22.69,13.1A37.83,37.83,0,0,0,51.92,217a2,2,0,0,0-.35.3c-1.39,1.32-.92,3.17,1.27,4.43,0,0,1.66,1.13,1.83,1.21,2.18,1.14,5.29,1.68,7.29,1a5.89,5.89,0,0,0,.89-.35c.17,0,2.66-1.61,2.79-1.69l20.64-13.63,1.77-1.16,18.86-12.47a31.45,31.45,0,0,0,3.64-2.74,21.86,21.86,0,0,0,2-1.79c1.78-1.42,6.35-4.67,4.21-6.23C116.78,183.73,117,181.28,117,181.24Z"/><path d="M63.9,222.3l23.49-15.61,23.5-15.62c2-1.14,7-4.1,4.73-5.41l.34-2.53a36.1,36.1,0,0,0-12.13,4.46L78.91,202,54,216.37c-2,1.14-1.72,3.12.55,4.44L56.22,222C58.49,223.29,61.93,223.44,63.9,222.3Z"/></g><path class="cls-112" d="M79.54,182.86a6,6,0,0,1-2.74,4.72c-1.51.88-2.74.18-2.74-1.56a6,6,0,0,1,2.74-4.72C78.32,180.43,79.54,181.13,79.54,182.86Z"/><path class="cls-113" d="M86.6,178.85a6,6,0,0,1-2.73,4.73c-1.52.87-2.74.17-2.74-1.56a6,6,0,0,1,2.74-4.73C85.38,176.42,86.6,177.12,86.6,178.85Z"/><path class="cls-114" d="M93.67,174.85a6,6,0,0,1-2.74,4.72c-1.51.87-2.74.17-2.74-1.56a6,6,0,0,1,2.74-4.72C92.44,172.41,93.67,173.11,93.67,174.85Z"/><path class="cls-115" d="M100.73,170.84A6,6,0,0,1,98,175.56c-1.51.88-2.74.18-2.74-1.56A6,6,0,0,1,98,169.28C99.5,168.41,100.73,169.1,100.73,170.84Z"/><path class="cls-116" d="M107.79,166.83a6.06,6.06,0,0,1-2.74,4.73c-1.51.87-2.74.17-2.74-1.57a6,6,0,0,1,2.74-4.72C106.56,164.4,107.79,165.1,107.79,166.83Z"/><path class="cls-117" d="M84.74,28l6,3.47V29.53l-6-3.47ZM85.08,37,93.58,42V40l-8.5-4.91Zm.78-4L93,37.17V35.25l-7.12-4.12Zm-2.49-7.79L76.16,21.1V23l7.21,4.16Zm13.3,3.25-5.83-3.37v1.92l5.83,3.37ZM79.25,33.67l4.46,2.58V34.33l-4.46-2.58Zm5.32,5.58-2.06-1.18V40l2.06,1.19ZM82.34,22.16l7.12,4.11V24.35l-7.12-4.11Zm-7.56-1.85-4.46-2.58v1.92l4.46,2.58Zm2.75,23.75L68.26,38.7v1.92L77.53,46Zm2.83-27.48,8.5,4.91V19.57l-8.5-4.91Zm-8.5,17.26,9.28,5.35V37.27l-9.28-5.35Zm9.19-5.48L71.78,23v1.92l9.27,5.35ZM78.9,20.17,81,21.36V19.44L78.9,18.25Zm-4.37-7L79,15.79V13.87l-4.46-2.58ZM69.8,37.08,73.15,39V37.1L69.8,35.16ZM77.87,31,74.53,29v1.92l3.34,1.94ZM98.56,44.82l1.56.9V43.8l-1.56-.9ZM69.8,8.57v1.92l3.35,1.93V10.5ZM84.48,30.34l-2.06-1.19v1.92l2.06,1.19ZM94.35,38l5.77,3.33V39.37L94.35,36Zm-3.51,15.7L96.67,57V55.11l-5.83-3.37Zm-5,8.94L93,66.72V64.8l-7.12-4.12ZM68.26,14l9.27,5.35V17.46l-9.27-5.35ZM95,40.82v1.92L97.19,44V42.11Zm-16-.35-4.46-2.58v1.92L79,42.39ZM81,46,78.9,44.85v1.92L81,48Zm7.9.13-8.5-4.91v1.92l8.5,4.91Zm3.26-13.93,1.67,1V31.32l-1.67-1Zm2.32,14.63,5.68,3.28V48.23L94.44,45ZM95.16,34l5,2.83V34.93l-5-2.82Zm2.89-2.8,2.07,1.19V30.5l-2.07-1.19ZM70.41,51.76l-5.21-3v1.92l5.21,3Zm4.37-2.94V46.9l-4.46-2.57v1.92ZM69,16.94,65.2,14.78V16.7L69,18.86Zm0,26.59L65.2,41.37v1.92L69,45.45ZM65.2,55.11l8,4.59V57.78l-8-4.59Zm3.23-20.74L65.2,32.51v1.92l3.23,1.86Zm2.06-3.24L65.2,28.07V30l5.29,3.06Zm-.08-8.92-5.21-3v1.92l5.21,3Zm2.74,6-8-4.59v1.92l8,4.59Zm-6.26,9.68-1.69-1v1.92l1.69,1Zm27.46,29.6,5.77,3.33V68.92l-5.77-3.33ZM82.42,60.62l2.06,1.19V59.89L82.42,58.7Zm8.33-4.5-6-3.47v1.92l6,3.47ZM74.53,60.49l3.34,1.94V60.51l-3.34-1.94Zm15.7-11.61L95,51.6V49.68L90.23,47Zm6.1,3.52,3.79,2.19V52.66l-3.79-2.18Zm-3.26-8.24-7.13-4.11V42l7.13,4.11Zm5,13.66,2.07,1.2V57.1l-2.07-1.2Zm-8.59-6.88-7.12-4.11v1.92l7.12,4.12ZM71.78,54.48l9.27,5.35V57.91l-9.27-5.35Zm11.59-2.62L76.16,47.7v1.92l7.21,4.16ZM68.43,7.77,65.2,5.91V7.83L68.43,9.7Zm2.06-4.72L65.2,0V1.92L70.49,5Zm-3.6,8.27-1.69-1v1.92l1.69,1ZM81.14,9.2,71.86,3.85V5.77l9.28,5.35ZM96.33,23.88V25.8L100.12,28V26.07ZM84.57,11.18,82.51,10v1.92l2.06,1.19Zm5.66,11.1L95,25V23.09l-4.73-2.73Zm2.84-6.19L85.94,12V13.9L93.07,18Z"/><path class="cls-117" d="M45.57,118.27l8.5,4.91v-1.92l-8.5-4.91Zm.77-4,7.13,4.12v-1.92l-7.13-4.12Zm-6.61.62,4.47,2.58v-1.92L39.73,113Zm5.32,5.59L43,119.3v1.92l2.06,1.19Zm-7,4.8-9.28-5.36v1.92L38,127.21Zm-5.67-10.22,9.27,5.35V118.5l-9.27-5.35Zm9.18-5.48-9.27-5.35v1.92l9.27,5.35Zm-11.24,8.72,3.35,1.94v-1.92l-3.35-1.94Zm8.07-6.12L35,110.25v1.93l3.35,1.93Zm20.69,13.86,1.55.9V125l-1.55-.9ZM45,111.57l-2.06-1.19v1.92L45,113.49Zm9.87,7.62,5.76,3.33V120.6l-5.76-3.33Zm-3.52,15.7,5.84,3.37v-1.92L51.32,133Zm4.12-12.84V124l2.23,1.29v-1.92Zm-16-.35L35,119.12V121l4.46,2.58Zm2,5.57-2.06-1.19V128l2.06,1.19Zm7.9.13-8.5-4.91v1.92l8.5,4.91Zm5.58.71,5.67,3.27v-1.92l-5.67-3.28Zm-19.66,1.94v-1.92l-4.47-2.57v1.92Zm-5.84-5.29-3.74-2.16v1.92l3.74,2.16Zm-3.74-34.2,8,4.59V93.23l-7.95-4.6Zm3.23,25-3.23-1.86v1.92l3.23,1.86ZM31,112.36l-5.29-3.06v1.92L31,114.28Zm-.09-8.92-5.2-3v1.92l5.2,3Zm2.75,6-7.95-4.59v1.92l8,4.59Zm-6.27,9.68-1.68-1v1.92l1.68,1Zm23.86,18.21-6-3.47v1.92l6,3.47ZM35,95.94l3.35,1.93V96L35,94Zm15.71,34.17,4.72,2.73v-1.93l-4.72-2.72Zm6.09,3.52,3.79,2.19V133.9l-3.79-2.19Zm-3.26-8.24-7.12-4.11v1.92l7.12,4.11Zm5,13.66,2.07,1.2v-1.92l-2.07-1.2ZM50,132.18l-7.13-4.12V130L50,134.1Zm-6.1.91-7.21-4.16v1.92L43.85,135ZM31,95.62l-5.29-3.05v1.92L31,97.54Zm10.64,6.15-9.27-5.35v1.92l9.27,5.35Zm3.43,2L43,102.56v1.92l2.06,1.19Zm8.5,4.91-7.12-4.12v1.92l7.12,4.12Z"/><g class="cls-118"><path class="cls-119" d="M64.74,98.13a.63.63,0,0,1-.2-.2.6.6,0,0,1-.08-.28V96.39a.35.35,0,0,1,.08-.26.56.56,0,0,1,.27-.11l3.39-.65-3.39-4.56a4.54,4.54,0,0,1-.27-.42,1,1,0,0,1-.08-.38V88.77c0-.11,0-.17.08-.2a.19.19,0,0,1,.2,0,.82.82,0,0,1,.28.3l4.75,6.46a2.72,2.72,0,0,1,.32.52,1.12,1.12,0,0,1,.09.44v.38a.45.45,0,0,1-.1.33.56.56,0,0,1-.31.15l-4.75,1A.31.31,0,0,1,64.74,98.13Z"/><path class="cls-119" d="M62.58,99.12l-.91-.53a.81.81,0,0,1-.28-.27,1.25,1.25,0,0,1-.15-.31L56.45,82.1a.63.63,0,0,1,0-.19.2.2,0,0,1,.08-.19.18.18,0,0,1,.21,0l.91.53a.77.77,0,0,1,.28.26,1.74,1.74,0,0,1,.17.33l4.77,15.89a1.37,1.37,0,0,1,0,.19c0,.1,0,.17-.08.2A.21.21,0,0,1,62.58,99.12Z"/><path class="cls-119" d="M54.55,92.25a1,1,0,0,1-.28-.29l-4.75-6.47a3.45,3.45,0,0,1-.31-.5,1.2,1.2,0,0,1-.09-.45v-.38a.55.55,0,0,1,.09-.34.53.53,0,0,1,.31-.15l4.75-1a.3.3,0,0,1,.28,0,.64.64,0,0,1,.2.2.56.56,0,0,1,.08.3v1.24c0,.14,0,.23-.08.28a.56.56,0,0,1-.27.11l-3.39.65,3.39,4.56a4.54,4.54,0,0,1,.27.42.8.8,0,0,1,.08.37v1.25c0,.1,0,.16-.08.18A.21.21,0,0,1,54.55,92.25Z"/></g><g class="cls-120"><path class="cls-119" d="M30.54,140.2,17.4,132.61a1.48,1.48,0,0,0-.73-.22c-.65,0-1.11.6-1.11,1.61v7.18a4.39,4.39,0,0,0,1.84,3.5l13.14,7.59a1.48,1.48,0,0,0,.73.22c.65,0,1.11-.6,1.11-1.6v-7.18A4.4,4.4,0,0,0,30.54,140.2Zm1.13,9.6-15.4-8.9v-5.82l15.4,8.9Zm-4.21-5.73-7-4v1l7,4Z"/></g><path class="cls-121" d="M10.57,71.92a17.14,17.14,0,0,0-3.88-4.53V62.07a5.47,5.47,0,0,1,1.42,3l3,1.28a10.67,10.67,0,0,0-1.42-4.08,10.62,10.62,0,0,0-3-3.21V57.71L5,56.72v1.35c-1.36-.63-2.45-.68-3.27-.14A3.37,3.37,0,0,0,.47,61a9.78,9.78,0,0,0,1.09,4.38A14.71,14.71,0,0,0,5,69.62v5.71A8.56,8.56,0,0,1,3.1,71.22L0,69.82a13.21,13.21,0,0,0,1.64,5.09A11.52,11.52,0,0,0,5,78.59v2.48l1.72,1V79.52c1.54.63,2.75.64,3.61,0s1.3-1.75,1.3-3.4A9.06,9.06,0,0,0,10.57,71.92ZM5,65.74a6.22,6.22,0,0,1-1.15-1.66,3.86,3.86,0,0,1-.38-1.56,1.63,1.63,0,0,1,.41-1.2A1.17,1.17,0,0,1,5,61ZM8.14,76.4a1.43,1.43,0,0,1-1.45.11V71.2a7,7,0,0,1,1.54,1.9A4.11,4.11,0,0,1,8.69,75,1.73,1.73,0,0,1,8.14,76.4Z"/><g class="cls-118"><path class="cls-119" d="M35.08,48.92l-1.79,1.67v0l2.84,1.21V53.3l-2.84-2v0L35.09,55,33.91,55l-1.13-3.67,0,0-1.23,2.34-1.07-1.4,1.79-1.6v0l-2.78-1.2V48l2.76,2v0L30.45,46.3l1.15-.1,1.16,3.67,0,0L34,47.54Z"/><path class="cls-119" d="M42.87,53.42l-1.78,1.67v0l2.84,1.21v1.47l-2.84-2v0l1.8,3.63-1.18.09-1.13-3.67,0,0-1.22,2.34-1.07-1.4L40,55.19v0L37.25,54V52.49l2.77,2v0L38.25,50.8l1.15-.09,1.16,3.67,0,0L41.75,52Z"/><path class="cls-119" d="M50.67,57.93l-1.78,1.66v0l2.83,1.21v1.47l-2.83-2v0L50.69,64l-1.18.1-1.13-3.67,0,0-1.22,2.34L46.05,61.3l1.78-1.6v-.05l-2.78-1.19V57l2.77,2v0L46.05,55.3l1.15-.09,1.16,3.67,0,0,1.14-2.36Z"/><path class="cls-119" d="M58.47,62.43l-1.78,1.66v0l2.83,1.2v1.47l-2.83-2v0l1.8,3.63-1.18.09-1.13-3.67,0,0-1.22,2.33L53.85,65.8l1.78-1.6v0L52.85,63V61.49l2.76,2v0L53.85,59.8,55,59.71l1.17,3.67,0,0,1.14-2.35Z"/><path class="cls-119" d="M66.27,66.93,64.48,68.6v0l2.84,1.21v1.46l-2.84-2v0L66.29,73l-1.19.09L64,69.38l0,0-1.22,2.33L61.65,70.3l1.78-1.6v0l-2.78-1.2V66l2.76,2v0l-1.76-3.65,1.14-.1L64,67.88l0,0,1.14-2.35Z"/></g><g class="cls-120"><path class="cls-119" d="M24,11.59l7.68,12,7.69-3.14h0a2.72,2.72,0,0,0-.91-.88L24.93,11.76a1.18,1.18,0,0,0-.91-.17Z"/><path class="cls-119" d="M39.42,20.5l-7.71,4.4-2.18-3.77L24,23.38l0,0,5.12-2.92L24,11.6a1,1,0,0,0-.57,1V21.8a3.31,3.31,0,0,0,1.5,2.6l13.56,7.83c.83.48,1.51.09,1.51-.86V22.18A3.15,3.15,0,0,0,39.42,20.5Zm0,11.75-5.5-8.6.41-.23,5.11,8.82Z"/></g></g></g></g></svg>